<?xml version="1.0" encoding="UTF-8" standalone="no"?>
<svg
   version="1.0"
   width="822.32184pt"
   height="814.51892pt"
   viewBox="0 0 822.32184 814.51892"
   preserveAspectRatio="xMidYMid"
   id="svg40"
   xmlns="http://www.w3.org/2000/svg"
   xmlns:svg="http://www.w3.org/2000/svg">
  <defs
     id="defs44" />
  <metadata
     id="metadata2">
Created by potrace 1.14, written by Peter Selinger 2001-2017
</metadata>
  <g
     transform="matrix(0.1,0,0,-0.1,-308.17815,1119)"
     fill="#000000"
     stroke="none"
     id="g38">
    <path
       d="m 6518,11183 c -3,-5 -4,-260 -4,-568 l 1,-560 h 455 c 397,0 542,5 616,19 113,23 236,65 299,104 35,21 119,113 120,131 1,3 6,15 12,26 25,44 35,144 31,305 -3,161 -4,167 -37,242 -44,105 -103,168 -194,212 -183,87 -247,94 -824,96 -259,0 -473,-3 -475,-7 z m 990,-199 c 165,-25 262,-76 303,-161 22,-44 24,-61 24,-208 0,-136 -3,-166 -19,-199 -44,-93 -154,-146 -335,-163 -42,-3 -229,-7 -416,-7 l -340,-1 -3,378 -2,378 349,-2 c 229,-1 380,-7 439,-15 z"
       id="path4" />
    <path
       d="m 4889,9998 c -1,-77 0,-1060 0,-1070 1,-11 891,-7 971,3 187,25 340,73 419,130 52,37 104,118 127,195 24,83 24,345 -1,429 -50,174 -134,258 -320,320 -145,49 -203,53 -717,55 l -478,1 z m 976,-144 c 146,-23 194,-40 260,-90 68,-52 79,-88 82,-269 2,-142 0,-165 -17,-204 -25,-55 -52,-82 -110,-111 -109,-55 -193,-64 -660,-64 l -325,-1 -2,365 c -1,201 0,371 2,378 6,18 652,14 770,-4 z"
       id="path6" />
    <path
       d="m 8799,10052 c -8,-2 -75,-108 -150,-235 -75,-128 -223,-379 -329,-559 -106,-179 -193,-330 -194,-335 0,-4 50,-8 112,-8 l 113,-1 63,101 63,100 h 429 428 l 59,-95 c 33,-52 63,-97 67,-100 12,-8 214,-6 220,1 3,4 -145,261 -328,570 l -333,564 h -103 c -56,0 -109,-1 -117,-3 z m 191,-347 c 46,-77 88,-149 94,-160 6,-11 37,-63 69,-116 31,-53 59,-103 62,-110 4,-12 -46,-14 -310,-14 -277,0 -315,2 -310,15 6,14 117,208 252,438 30,51 56,92 58,90 2,-2 40,-66 85,-143 z"
       id="path8" />
    <path
       d="m 7750,9725 c -25,-6 -70,-23 -100,-37 -30,-15 -179,-81 -330,-148 -151,-66 -284,-125 -295,-130 -11,-5 -89,-41 -174,-79 -84,-39 -162,-78 -172,-87 -11,-9 -24,-35 -30,-58 -8,-28 -11,-715 -12,-2337 -1,-1853 -3,-2301 -14,-2315 -13,-17 -40,-20 -98,-11 -160,25 -190,34 -217,60 -2,1 -5,896 -8,1989 l -5,1987 -21,27 c -77,104 -114,97 -572,-112 -29,-13 -55,-24 -57,-24 -3,0 -33,-13 -67,-29 -35,-16 -157,-70 -272,-120 -116,-51 -228,-102 -250,-114 -77,-42 -71,76 -72,-1466 l -1,-1384 -23,-19 c -33,-26 -52,-23 -107,21 -61,48 -272,266 -383,394 -89,104 -120,127 -170,127 -60,0 -64,-3 -460,-286 -170,-121 -200,-139 -235,-140 -73,-1 -82,-4 -108,-29 -67,-68 -17,-175 82,-175 63,0 98,32 110,104 6,32 26,49 267,219 296,209 301,212 331,222 24,7 29,3 113,-91 213,-239 363,-393 427,-437 80,-56 177,-36 223,46 l 24,42 1,1365 c 1,751 4,1375 8,1387 9,25 32,41 107,72 76,32 779,342 863,380 37,17 81,31 97,31 63,0 59,146 58,-2007 -1,-2040 -2,-1999 37,-2039 25,-26 84,-47 198,-70 170,-36 224,-25 270,54 18,31 19,120 19,2338 v 2306 l 27,29 c 19,21 157,86 514,243 268,118 500,217 517,221 40,9 68,-9 75,-48 3,-17 6,-1162 8,-2543 2,-2495 2,-2512 22,-2534 74,-81 241,-76 319,10 22,24 36,51 37,68 9,259 10,666 4,2082 -3,773 -2,918 10,937 15,22 74,44 380,138 83,25 161,50 175,55 14,5 79,25 145,45 66,20 168,53 227,72 126,40 165,44 184,18 16,-22 16,18 18,-1555 1,-1031 2,-1076 20,-1106 33,-54 104,-82 167,-64 38,11 66,35 214,179 125,122 160,159 260,276 33,39 65,76 72,82 11,13 33,18 64,15 8,-1 119,-76 245,-167 126,-90 237,-170 248,-177 87,-60 106,-80 106,-109 0,-35 47,-88 79,-90 67,-4 76,-2 110,30 77,72 0,195 -107,170 -34,-7 -43,-3 -201,111 -91,65 -216,155 -277,199 -228,162 -263,163 -390,9 -148,-180 -403,-434 -445,-443 -40,-9 -68,2 -75,31 -3,13 -7,606 -8,1317 l -1,1292 -23,36 c -27,45 -73,68 -126,65 -23,-2 -232,-62 -466,-135 -682,-211 -652,-200 -683,-263 -15,-30 -16,-175 -17,-1542 0,-1389 -1,-1511 -17,-1528 -36,-40 -145,-47 -174,-11 -12,13 -14,439 -15,2537 0,1898 -4,2528 -12,2549 -29,70 -100,97 -192,72 z"
       id="path10" />
    <path
       d="m 7234,8676 c -47,-47 -48,-96 0,-141 l 34,-32 V 6515 4527 l -34,-32 c -71,-67 -24,-175 76,-175 64,0 109,43 110,104 0,31 -7,45 -34,71 l -34,32 v 1987 1986 l 34,34 c 71,71 23,176 -81,176 -29,0 -45,-8 -71,-34 z"
       id="path12" />
    <path
       d="m 5577,7697 c -39,-22 -47,-34 -54,-85 -4,-27 1,-38 32,-69 l 37,-37 V 6160 4814 l -36,-36 c -31,-31 -35,-41 -32,-72 7,-52 23,-76 62,-92 65,-27 141,10 157,75 8,31 -15,84 -44,105 l -24,16 v 1351 1350 l 22,15 c 30,19 51,63 46,94 -13,80 -95,118 -166,77 z"
       id="path14" />
    <path
       d="m 8754,6999 c -57,-29 -72,-122 -27,-164 15,-14 31,-25 34,-25 4,0 6,-399 6,-887 v -887 l -33,-32 c -28,-25 -34,-39 -34,-71 0,-76 63,-120 144,-100 41,11 76,54 76,95 0,31 -26,79 -50,92 -20,11 -20,22 -20,894 v 884 l 35,35 c 45,45 48,92 7,138 -21,24 -38,32 -72,35 -25,2 -54,-1 -66,-7 z"
       id="path16" />
    <path
       d="m 3244,4824 c -88,-91 -160,-172 -162,-179 -2,-6 10,-20 25,-30 15,-10 35,-27 45,-38 16,-21 17,-20 81,48 75,78 55,80 180,-20 41,-33 80,-69 87,-80 8,-12 14,-63 16,-135 l 4,-115 52,-47 c 28,-27 55,-48 59,-48 5,0 6,17 4,38 -3,36 -8,189 -6,206 1,4 12,1 26,-8 90,-59 225,2 225,102 0,50 -14,73 -81,139 -72,68 -354,308 -384,325 -9,5 -65,-47 -171,-158 z m 218,8 c 2,-4 57,-53 123,-108 136,-115 150,-129 164,-166 13,-34 -15,-64 -51,-52 -28,9 -94,50 -122,76 -12,11 -63,54 -113,96 -51,42 -93,79 -93,82 0,4 15,23 33,43 31,35 52,46 59,29 z"
       id="path18" />
    <path
       d="m 10700,4769 c -146,-121 -266,-224 -268,-228 -2,-5 34,-47 80,-93 46,-47 120,-124 166,-173 l 82,-89 33,31 c 30,29 389,333 472,400 l 40,32 -32,31 c -18,16 -37,30 -43,30 -6,0 -41,-25 -78,-56 -37,-31 -89,-75 -116,-98 -27,-23 -54,-45 -60,-51 -11,-9 -131,-112 -168,-143 -15,-12 -21,-11 -47,8 -29,20 -43,60 -21,60 12,0 420,340 420,350 0,16 -43,60 -58,60 -9,0 -36,-17 -58,-37 -41,-37 -312,-269 -360,-307 l -24,-20 -30,29 c -16,16 -30,34 -30,40 0,6 19,27 43,45 23,19 53,44 67,56 43,39 284,236 303,248 9,6 17,18 17,27 0,14 -30,48 -55,62 -6,3 -130,-93 -275,-214 z"
       id="path20" />
    <path
       d="m 10191,4390 c -90,-55 -165,-100 -166,-100 -2,0 -269,-161 -273,-165 -9,-9 41,-75 56,-75 9,0 63,29 120,65 57,36 108,65 113,65 5,0 51,-65 103,-144 52,-79 99,-147 105,-151 12,-7 94,36 106,55 7,11 -6,31 -123,197 -40,55 -70,107 -67,115 3,7 59,44 125,82 66,37 120,71 120,74 0,5 -51,82 -54,82 0,0 -75,-45 -165,-100 z"
       id="path22" />
    <path
       d="m 3930,4328 c -57,-84 -116,-169 -131,-188 -33,-40 -36,-58 -11,-68 25,-10 544,-322 563,-339 23,-19 43,-8 63,34 14,29 15,38 4,45 -40,26 -440,265 -458,273 -26,13 -25,38 3,70 l 22,27 25,-20 c 28,-22 457,-282 466,-282 9,0 54,53 54,64 0,14 -17,25 -284,181 -120,70 -205,126 -205,135 -1,8 10,28 24,43 20,20 30,25 43,18 9,-5 120,-72 246,-150 220,-135 231,-140 249,-123 32,28 41,53 25,68 -7,7 -110,73 -228,145 -211,129 -243,149 -327,196 l -41,24 z"
       id="path24" />
    <path
       d="m 9335,3950 c -33,-16 -66,-33 -72,-37 -12,-8 -27,-70 -38,-150 -3,-18 -12,-72 -21,-120 -9,-49 -18,-106 -21,-128 -2,-22 -11,-64 -19,-94 -9,-29 -12,-57 -7,-62 4,-4 33,4 63,19 49,24 55,31 58,62 2,19 8,40 13,47 6,6 58,32 117,56 59,25 151,66 205,91 54,25 103,46 108,46 6,0 22,-9 36,-20 33,-26 67,-25 122,4 l 44,23 -34,19 c -19,11 -59,33 -89,49 -103,54 -199,109 -307,176 -82,51 -90,52 -158,19 z m 100,-105 c 27,-20 78,-50 112,-68 71,-36 70,-42 -12,-72 -27,-10 -87,-36 -132,-58 -45,-23 -85,-38 -89,-34 -4,4 0,42 10,84 21,101 24,122 25,156 1,37 25,35 86,-8 z"
       id="path26" />
    <path
       d="m 4985,3938 c -11,-6 -112,-67 -224,-135 -112,-68 -214,-128 -227,-133 -35,-14 -30,-25 25,-49 61,-26 66,-26 100,-2 14,10 33,20 41,22 13,3 309,-108 418,-156 32,-14 36,-22 32,-58 -2,-26 19,-47 68,-68 68,-29 71,-27 55,34 -16,60 -78,369 -87,438 -8,57 -23,70 -104,98 -71,24 -70,24 -97,9 z m 89,-94 c 3,-9 6,-28 6,-42 0,-25 18,-116 35,-184 9,-36 -5,-36 -70,-1 -28,14 -88,39 -135,54 -47,15 -85,33 -85,40 0,6 14,19 30,28 70,38 132,76 160,98 35,27 51,29 59,7 z"
       id="path28" />
    <path
       d="m 8730,3730 c -85,-22 -164,-41 -175,-44 -69,-15 -320,-78 -326,-81 -10,-7 11,-83 25,-88 7,-3 67,10 134,27 67,18 126,30 132,26 6,-4 29,-78 51,-165 22,-87 42,-162 45,-166 15,-26 141,8 131,35 -3,7 -24,78 -46,156 -23,78 -44,146 -47,151 -13,22 23,38 146,64 71,16 134,31 139,34 6,4 5,22 -2,49 -9,32 -16,42 -32,41 -11,0 -90,-18 -175,-39 z"
       id="path30" />
    <path
       d="m 5525,3723 c -10,-49 -97,-377 -107,-402 -10,-29 -7,-33 31,-37 16,-2 126,-26 243,-54 117,-27 253,-59 301,-71 49,-11 90,-19 91,-17 7,10 29,89 25,91 -7,6 -503,117 -521,117 -10,0 -18,5 -18,11 0,14 77,301 90,334 6,16 6,25 0,25 -15,0 -22,1 -70,16 -59,18 -59,18 -65,-13 z"
       id="path32" />
    <path
       d="m 7988,3585 c -2,-1 -46,-5 -98,-8 -88,-6 -111,-9 -180,-22 -14,-3 -38,-8 -53,-10 -57,-11 -138,-47 -166,-75 -62,-63 -45,-152 37,-191 39,-19 61,-23 137,-21 49,1 106,4 125,7 19,3 87,8 150,11 131,7 158,-2 146,-49 -4,-18 -18,-30 -48,-41 -60,-22 -219,-46 -307,-46 -73,0 -185,23 -209,42 -20,17 -25,3 -17,-51 6,-46 10,-51 42,-62 57,-18 287,-15 394,6 13,3 38,8 54,11 95,17 178,55 208,95 12,17 19,42 19,67 -1,90 -62,125 -215,123 -54,0 -102,-3 -106,-6 -5,-2 -64,-8 -132,-11 -147,-7 -182,1 -177,44 4,37 48,58 158,77 161,28 267,27 354,-4 l 58,-20 -5,51 c -7,58 -14,65 -77,73 -25,3 -55,7 -67,9 -13,2 -24,2 -25,1 z"
       id="path34" />
    <path
       d="m 6636,3518 c -3,-7 -7,-106 -10,-219 -3,-113 -6,-212 -8,-220 -3,-16 -27,-14 389,-24 155,-4 294,-8 310,-10 15,-1 31,2 35,8 6,10 -1,77 -9,86 -3,5 -73,7 -416,14 -92,2 -162,8 -168,14 -6,6 -9,26 -7,44 3,29 7,34 28,33 14,-1 148,-5 298,-8 218,-6 272,-4 273,6 0,7 2,22 4,33 2,11 0,27 -5,34 -8,14 -48,16 -477,21 -79,1 -113,5 -114,13 -3,21 0,61 5,74 5,12 124,12 469,-2 113,-5 118,-4 125,16 5,12 6,34 4,50 -3,23 -9,29 -31,30 -539,19 -691,20 -695,7 z"
       id="path36" />
  </g>
</svg>
