<?xml version="1.0" standalone="no"?>
<!DOCTYPE svg PUBLIC "-//W3C//DTD SVG 1.1//EN" "http://www.w3.org/Graphics/SVG/1.1/DTD/svg11.dtd" >
<svg xmlns="http://www.w3.org/2000/svg" xmlns:xlink="http://www.w3.org/1999/xlink" version="1.1">
<metadata>
Created by FontForge 20170731 at Thu May 25 11:46:16 2023
 By Aleksey,,,
Copyright 2011 The Michroma Project Authors (https://github.com/googlefonts/Michroma-font)
</metadata>
<defs>
<font id="Michroma-Regular" horiz-adv-x="1601" >
  <font-face 
    font-family="Michroma"
    font-weight="400"
    font-stretch="normal"
    units-per-em="2048"
    panose-1="0 0 0 0 0 0 0 0 0 0"
    ascent="1638"
    descent="-410"
    x-height="1152"
    cap-height="1536"
    bbox="-226 -576 5313 3040"
    underline-thickness="50"
    underline-position="-175"
    unicode-range="U+0020-FB02"
  />
<missing-glyph horiz-adv-x="1792" 
d="M192 -386v2024h1408v-2024h-1408zM384 -226h1024v1704h-1024v-1704z" />
    <glyph glyph-name="fi" unicode="fi" horiz-adv-x="1504" 
d="M320 0v1006h-192v146h192v50q0 164 53.5 252t167 121t292.5 33h223v-156h-224q-143 0 -211 -18t-88.5 -71.5t-20.5 -160.5v-50h544v-146h-544v-1006h-192zM1184 0v1088h192v-1088h-192zM1184 1344v192h192v-192h-192z" />
    <glyph glyph-name="fl" unicode="fl" horiz-adv-x="1632" 
d="M320 0v1006h-192v146h192v50q0 164 53.5 252t167 121t292.5 33h223v-156h-224q-143 0 -211 -18t-88.5 -71.5t-20.5 -160.5v-50h544v-146h-544v-1006h-192zM1248 0v1536h192v-1536h-192z" />
    <glyph glyph-name=".notdef" horiz-adv-x="1792" 
d="M192 -386v2024h1408v-2024h-1408zM384 -226h1024v1704h-1024v-1704z" />
    <glyph glyph-name=".null" horiz-adv-x="0" 
 />
    <glyph glyph-name="nonmarkingreturn" horiz-adv-x="682" 
 />
    <glyph glyph-name="space" unicode=" " horiz-adv-x="582" 
 />
    <glyph glyph-name="exclam" unicode="!" horiz-adv-x="568" 
d="M236 448l-48 1088h192l-48 -1088h-96zM188 0v192h192v-192h-192z" />
    <glyph glyph-name="quotedbl" unicode="&#x22;" horiz-adv-x="768" 
d="M480 1152l-32 384h192l-32 -384h-128zM160 1152l-32 384h192l-32 -384h-128z" />
    <glyph glyph-name="numbersign" unicode="#" horiz-adv-x="1536" 
d="M212 -104l130 552h-237v140h269l100 424h-265v140h298l90 384h170l-91 -384h451l90 384h170l-91 -384h229v-140h-262l-101 -424h259v-140h-292l-131 -552h-166l130 552h-453l-131 -552h-166zM542 588h452l100 424h-451z" />
    <glyph glyph-name="dollar" unicode="$" horiz-adv-x="2142" 
d="M1006 -228v196h-153q-205 0 -344 18t-221.5 72.5t-118.5 162.5t-36 288h192q0 -141 23 -218t80.5 -110.5t161 -40t263.5 -6.5h153v572l-246 4q-206 3 -331 25t-189 69.5t-85.5 127.5t-21.5 200q0 131 29.5 216t107 133t219.5 67.5t367 19.5h150v186h162v-186h116
q204 0 340 -13t216 -60t114.5 -146t34.5 -272h-192q0 134 -25.5 202.5t-84 93.5t-157.5 27t-246 2h-116v-526l224 -3q210 -3 335.5 -24.5t188 -69.5t83 -129.5t20.5 -205.5q0 -135 -25.5 -226.5t-98.5 -146.5t-211 -79t-363 -24h-153v-196h-162zM796 881l210 -3v524h-140
q-179 0 -286.5 -7t-162.5 -32t-73.5 -80t-18.5 -151q0 -81 13 -130t58.5 -74.5t140.5 -35t259 -11.5zM1827 444q0 89 -14 140t-63 75.5t-152 32t-282 10.5l-148 2v-570h143q179 0 283 11.5t154 44t64.5 93.5t14.5 161z" />
    <glyph glyph-name="percent" unicode="%" horiz-adv-x="3869" 
d="M798 454q-179 0 -303.5 18t-201.5 74t-112 167.5t-35 298.5q0 185 35 296t112 167t201.5 74.5t303.5 18.5t303 -18.5t201 -74.5t112 -167t35 -296q0 -187 -35 -298.5t-112 -167.5t-201 -74t-303 -18zM1521 0l704 1536h192l-704 -1536h-192zM798 602q165 0 260.5 13.5
t141 54.5t59 123t13.5 219q0 135 -13.5 216.5t-59 123t-141 55.5t-260.5 14t-260.5 -14t-141.5 -55.5t-59 -123t-13 -216.5q0 -137 13 -219t59 -123t141.5 -54.5t260.5 -13.5zM3071 -32q-178 0 -302.5 18t-201.5 74t-112 167.5t-35 298.5q0 185 35 295.5t112 167t201.5 75
t302.5 18.5q179 0 303.5 -18.5t201.5 -75t112 -167t35 -295.5q0 -187 -35 -298.5t-112 -167.5t-201.5 -74t-303.5 -18zM3071 115q165 0 260.5 13.5t141.5 55t59 123.5t13 219q0 135 -13 216.5t-59 122.5t-141.5 55t-260.5 14t-260.5 -14t-141 -55t-59 -122.5t-13.5 -216.5
q0 -137 13.5 -219t59 -123.5t141 -55t260.5 -13.5z" />
    <glyph glyph-name="ampersand" unicode="&#x26;" horiz-adv-x="2432" 
d="M1028 -32q-144 0 -277.5 2t-246.5 23t-197.5 76.5t-131.5 162t-47 280.5q0 139 52 230.5t134 140.5t170 59q-81 41 -127 114t-37 188q10 132 72 202t169 96.5t253 26.5h252v-1h138q206 0 341.5 -16.5t214 -68t111.5 -156t33 -280.5h-192q0 133 -17 206t-69 104.5t-153 38
t-269 6.5h-422q-124 0 -192 -29.5t-78 -133.5q-8 -86 29 -133.5t143 -101.5l1125 -569q9 61 12.5 138.5t3.5 174.5v40l192 -40q0 -124 -7.5 -223.5t-24.5 -178.5l317 -160l-75 -144l-298 148q-49 -89 -133.5 -137t-212.5 -66.5t-309 -18.5h-246zM320 515q0 -142 40.5 -220.5
t125.5 -112.5t219.5 -41t322.5 -7h246q138 0 234 9t157.5 39t95.5 92l-1121 559q-155 0 -237.5 -80t-82.5 -238z" />
    <glyph glyph-name="quotesingle" unicode="'" horiz-adv-x="448" 
d="M160 1152l-32 384h192l-32 -384h-128z" />
    <glyph glyph-name="parenleft" unicode="(" horiz-adv-x="768" 
d="M640 -232q-344 0 -448 272q-56 149 -62 365q-1 33 -1.5 85.5t-0.5 105v84.5q0 87 1.5 177t5.5 163.5t9 109.5q17 107 47.5 188.5t88.5 143.5q123 130 360 130v-160q-156 0 -226 -74q-88 -92 -92 -392q0 -31 -0.5 -84.5t-1 -108.5t-0.5 -93q0 -196 2.5 -296t7.5 -144
q12 -100 41.5 -170t93 -106t175.5 -36v-160z" />
    <glyph glyph-name="parenright" unicode=")" horiz-adv-x="768" 
d="M128 -232v160q112 0 175.5 36t93.5 106t41 170q5 44 7.5 144t2.5 296q0 38 -0.5 93t-0.5 108.5t-1 84.5q-4 300 -92 392q-70 74 -226 74v160q237 0 360 -130q59 -62 89.5 -143.5t46.5 -188.5q6 -36 9.5 -109.5t5 -163.5t1.5 -177v-84.5t-0.5 -105t-1.5 -85.5
q-6 -216 -62 -365q-104 -272 -448 -272z" />
    <glyph glyph-name="asterisk" unicode="*" horiz-adv-x="1415" 
d="M420 384l-156 111l364 401l-500 176l100 178l432 -258l-48 544h192l-48 -544l431 258l100 -178l-499 -176l364 -401l-156 -111l-288 450z" />
    <glyph glyph-name="plus" unicode="+" horiz-adv-x="1400" 
d="M604 169v464h-448v160h448v464h192v-464h448v-160h-448v-464h-192z" />
    <glyph glyph-name="comma" unicode="," horiz-adv-x="448" 
d="M64 -256l64 384h192l-128 -384h-128z" />
    <glyph glyph-name="hyphen" unicode="-" horiz-adv-x="1024" 
d="M128 512v160h768v-160h-768z" />
    <glyph glyph-name="period" unicode="." horiz-adv-x="448" 
d="M128 0v192h192v-192h-192z" />
    <glyph glyph-name="slash" unicode="/" horiz-adv-x="1023" 
d="M64 0l704 1536h192l-704 -1536h-192z" />
    <glyph glyph-name="zero" unicode="0" horiz-adv-x="1948" 
d="M1628 788q0 176 -12 290t-44.5 180t-94 96.5t-159.5 39t-241 8.5h-206q-143 0 -241 -8.5t-159.5 -39t-94 -96.5t-44.5 -180t-12 -290v-40q0 -170 12 -282t44.5 -179t94 -100t159.5 -43t241 -10h206q143 0 241 10t159.5 43t94 100t44.5 179t12 282v40zM128 748v40
q0 204 20 342.5t69 225.5t133.5 133t212.5 62.5t308 16.5h206q180 0 308 -16.5t212.5 -62.5t133.5 -133t69 -225.5t20 -342.5v-40q0 -247 -32.5 -401t-114 -236t-226.5 -112.5t-370 -30.5h-206q-225 0 -370 30.5t-226.5 112.5t-114 236t-32.5 401z" />
    <glyph glyph-name="one" unicode="1" horiz-adv-x="1948" 
d="M388 0v160h614v1214l-573 -191l-61 148l620 205h206v-1376h536v-160h-1342z" />
    <glyph glyph-name="two" unicode="2" horiz-adv-x="1948" 
d="M166 371q0 134 25 225t96 146t206.5 79.5t355.5 25.5h358q156 0 243.5 10.5t127.5 40t49.5 86t9.5 148.5q0 96 -18 151t-71 80t-156.5 32t-274.5 7h-218q-179 0 -286.5 -7t-162.5 -32t-73.5 -80t-18.5 -151h-192q0 131 29.5 216t107 133t219.5 67.5t367 19.5h238
q217 0 355 -19.5t213.5 -67.5t104.5 -133t29 -216q0 -168 -44.5 -265.5t-156 -139t-314.5 -41.5h-440q-179 0 -283 -12t-154 -45.5t-64.5 -95.5t-14.5 -162v-211h1410v-160h-1602v371z" />
    <glyph glyph-name="three" unicode="3" horiz-adv-x="1948" 
d="M830 -32q-225 0 -363 24t-211 79t-98.5 146.5t-25.5 226.5h192q0 -100 14.5 -161t64.5 -93.5t154 -44t283 -11.5h268q179 0 283 11.5t154 44t64.5 93.5t14.5 161q0 89 -14 143t-63 82t-152 37.5t-282 9.5h-298v161h338q164 0 259 10t140.5 36.5t58.5 77t13 131.5
q0 96 -18.5 151t-73.5 80t-162.5 32t-286.5 7h-218q-179 0 -286.5 -7t-162.5 -32t-73.5 -80t-18.5 -151h-192q0 131 29.5 216t107 133t219.5 67.5t367 19.5h238q225 0 367 -19.5t219.5 -67.5t107 -133t29.5 -216q0 -155 -58.5 -237t-150.5 -99q93 -19 151 -105t58 -247
q0 -135 -25.5 -226.5t-98.5 -146.5t-211 -79t-363 -24h-288z" />
    <glyph glyph-name="four" unicode="4" horiz-adv-x="2048" 
d="M1472 0v320h-1344v192l1280 1024h256v-1056h256v-160h-256v-320h-192zM320 480h1152v928z" />
    <glyph glyph-name="five" unicode="5" horiz-adv-x="1948" 
d="M203 735v801h1549v-160h-1357v-503q90 104 330 104h462q209 0 335 -23.5t190.5 -75t86 -134t21.5 -200.5v-100q0 -135 -25.5 -227t-98.5 -146.5t-211 -78.5t-363 -24h-247q-225 0 -363 24t-211 79t-98.5 146.5t-25.5 226.5h192q0 -100 14.5 -161t64.5 -93.5t154 -44
t283 -11.5h227q179 0 283 11t154 43.5t64.5 94t14.5 161.5v100q0 89 -14 143t-63 82t-152 37.5t-282 9.5h-212q-223 0 -329 -15.5t-146 -65.5h-227z" />
    <glyph glyph-name="six" unicode="6" horiz-adv-x="1948" 
d="M853 -32q-225 0 -363 24t-211 79t-98.5 146.5t-25.5 226.5v678q0 131 29.5 217.5t107 136.5t219.5 71t367 21h238q221 0 357.5 -19.5t208.5 -67.5t97.5 -133t25.5 -216h-192q0 96 -14.5 151t-64 80t-151.5 32t-277 7h-218q-179 0 -286.5 -8.5t-162.5 -35.5t-73.5 -83.5
t-18.5 -152.5v-350q91 105 331 105h528q209 0 335 -23.5t190.5 -75t86 -134t21.5 -200.5q0 -135 -25.5 -226.5t-98.5 -146.5t-211 -79t-363 -24h-288zM1647 444q0 89 -14 143t-63 82t-152 37.5t-282 9.5h-278q-179 0 -282 -9.5t-152 -37.5t-63 -82t-14 -143
q0 -100 14.5 -161t64.5 -93.5t154 -44t283 -11.5h268q179 0 283 11.5t154 44t64.5 93.5t14.5 161z" />
    <glyph glyph-name="seven" unicode="7" horiz-adv-x="1984" 
d="M448 0l1184 1376h-1504v160h1728v-192l-1152 -1344h-256z" />
    <glyph glyph-name="eight" unicode="8" horiz-adv-x="1948" 
d="M1624 1132q0 96 -18.5 151t-73.5 80t-162.5 32t-286.5 7h-218q-179 0 -286.5 -7t-162.5 -32t-73.5 -80t-18.5 -151q0 -81 13 -131.5t58.5 -77t140.5 -36.5t259 -10h358q164 0 259 10t140.5 36.5t58.5 77t13 131.5zM132 444q0 161 58 247t151 105q-92 17 -150.5 99
t-58.5 237q0 131 29.5 216t107 133t219.5 67.5t367 19.5h238q225 0 367 -19.5t219.5 -67.5t107 -133t29.5 -216q0 -155 -58.5 -237t-150.5 -99q93 -19 151 -105t58 -247q0 -135 -25.5 -226.5t-98.5 -146.5t-211 -79t-363 -24h-288q-225 0 -363 24t-211 79t-98.5 146.5
t-25.5 226.5zM1624 444q0 89 -14 143t-63 82t-152 37.5t-282 9.5h-278q-179 0 -282 -9.5t-152 -37.5t-63 -82t-14 -143q0 -100 14.5 -161t64.5 -93.5t154 -44t283 -11.5h268q179 0 283 11.5t154 44t64.5 93.5t14.5 161z" />
    <glyph glyph-name="nine" unicode="9" horiz-adv-x="1984" 
d="M855 -32q-225 0 -363 19.5t-210.5 67.5t-98.5 133t-26 216h192q0 -96 14.5 -151t65 -80t154.5 -32t282 -7h218q179 0 286.5 10t162.5 39t73.5 87t18.5 154v340q-91 -105 -331 -105h-528q-209 0 -335 23.5t-190.5 75t-86 134t-21.5 200.5q0 135 25.5 226.5t98.5 146.5
t211 79t363 24h288q225 0 363 -24t211 -79t98.5 -146.5t25.5 -226.5v-668q0 -131 -29.5 -219t-107 -140t-219.5 -74.5t-367 -22.5h-238zM1624 1092q0 100 -14.5 161t-64.5 93.5t-154 44t-283 11.5h-268q-179 0 -283 -11.5t-154 -44t-64.5 -93.5t-14.5 -161q0 -89 14 -143
t63 -82t152 -37.5t282 -9.5h278q179 0 282 9.5t152 37.5t63 82t14 143z" />
    <glyph glyph-name="colon" unicode=":" horiz-adv-x="448" 
d="M128 768v192h192v-192h-192zM128 192v192h192v-192h-192z" />
    <glyph glyph-name="semicolon" unicode=";" horiz-adv-x="448" 
d="M128 768v192h192v-192h-192zM64 128l64 384h192l-128 -384h-128z" />
    <glyph glyph-name="less" unicode="&#x3c;" horiz-adv-x="1400" 
d="M1148 192l-876 544v192l876 544v-256l-732 -384l732 -384v-256z" />
    <glyph glyph-name="equal" unicode="=" horiz-adv-x="1400" 
d="M197 893v160h1006v-160h-1006zM197 460v160h1006v-160h-1006z" />
    <glyph glyph-name="greater" unicode="&#x3e;" horiz-adv-x="1400" 
d="M252 192v256l732 384l-732 384v256l896 -544v-192z" />
    <glyph glyph-name="question" unicode="?" horiz-adv-x="1856" 
d="M684 321v153q0 136 12.5 219.5t51 127t114 59t201.5 15.5h151q105 0 159 21t73 76.5t19 160.5q0 90 -22.5 141.5t-76.5 76t-146 31t-232 6.5q-199 0 -315.5 -9t-172.5 -37t-73 -85.5t-17 -154.5h-192q0 164 44.5 255.5t137.5 132t239 49.5t349 9q155 0 278.5 -11
t210.5 -50.5t133.5 -123.5t46.5 -230q0 -99 -14.5 -176t-59 -131t-133 -82t-236.5 -28h-151q-68 0 -106 -7t-55 -32t-21.5 -78t-4.5 -145v-153h-192zM684 0v192h192v-192h-192z" />
    <glyph glyph-name="at" unicode="@" horiz-adv-x="2240" 
d="M1152 -224q-442 0 -664 86q-214 82 -294 265q-66 150 -66 449q0 342 66 492q77 175 294 242q210 66 664 66q568 0 768 -136q73 -49 114 -116q42 -68 78 -644q0 -201 -59 -272q-66 -80 -262 -80q-103 0 -163.5 46t-60.5 146q-22 -47 -59.5 -78.5t-79.5 -53.5
q-59 -31 -138 -45.5t-170 -14.5q-127 0 -240.5 10t-197.5 48t-126 121q-44 90 -44 269t45.5 273t176.5 135q126 40 383 40q205 0 318 -80q48 -34 69 -80v128h192v-512q0 -124 12 -151q13 -27 31.5 -34t56.5 -7q60 0 86 18.5t32 60.5t6 113v288q0 135 -25 218t-87 129.5
t-173 69.5q-145 31 -403 31q-128 0 -224.5 -1.5t-161.5 -3.5q-169 -7 -290 -45t-176 -154q-59 -126 -59 -436q0 -298 59 -422q53 -112 176 -156t290 -54q65 -4 301.5 -6t643.5 -2v-160h-639zM1082 288h41q89 0 166 6t129 38q86 53 86 241q0 142 -45.5 206.5t-160.5 76.5
q-37 4 -81 6t-94 2h-43q-70 0 -128.5 -3t-111.5 -15q-61 -14 -90 -44.5t-37.5 -85t-8.5 -140.5q0 -138 18 -179q18 -40 44.5 -60t73.5 -31q53 -12 112.5 -15t129.5 -3z" />
    <glyph glyph-name="A" unicode="A" horiz-adv-x="2176" 
d="M64 0l896 1536h256l896 -1536h-224l-192 352h-1216l-192 -352h-224zM576 512h1024l-512 896z" />
    <glyph glyph-name="B" unicode="B" horiz-adv-x="2112" 
d="M192 0v1536h1224q174 0 285.5 -32.5t165 -115t53.5 -233.5q0 -136 -63 -225t-193 -98q170 -17 245 -121.5t75 -262.5q0 -137 -31.5 -225t-105.5 -136.5t-200.5 -67.5t-315.5 -19h-1139zM384 896h895q155 0 254 11t147 65t48 183q0 101 -28.5 148t-96.5 60t-187 13h-1032
v-480zM384 160h947q137 0 226.5 7t141 34t72.5 85.5t21 161.5q0 106 -39.5 165t-110 85t-163.5 32t-200 6h-895v-576z" />
    <glyph glyph-name="C" unicode="C" horiz-adv-x="2145" 
d="M128 748v40q0 204 20 342.5t69 225.5t133.5 133t212.5 62.5t308 16.5h403q206 0 347.5 -19.5t228 -77t125.5 -169t39 -295.5h-192q0 145 -26 225.5t-87.5 116.5t-167.5 44.5t-267 8.5h-403q-143 0 -241 -8.5t-159.5 -39t-94 -96.5t-44.5 -180t-12 -290v-40
q0 -170 12 -282t44.5 -179t94 -100t159.5 -43t241 -10h403q161 0 267 7t167.5 41t87.5 113.5t26 223.5h192q0 -184 -39 -294t-125.5 -165.5t-228 -73.5t-347.5 -18h-403q-225 0 -370 30.5t-226.5 112.5t-114 236t-32.5 401z" />
    <glyph glyph-name="D" unicode="D" horiz-adv-x="2207" 
d="M196 0v1536h1140q225 0 370 -27t226.5 -104.5t114 -225.5t32.5 -391v-40q0 -235 -32.5 -382.5t-114 -227t-226.5 -109t-370 -29.5h-1140zM388 166h948q179 0 288 17t166 74t77 174t20 317v40q0 166 -12 274t-44.5 170.5t-94 92t-159.5 37.5t-241 8h-948v-1204z" />
    <glyph glyph-name="E" unicode="E" horiz-adv-x="1792" 
d="M192 0v1536h1508v-160h-1316v-512h1261v-160h-1261v-544h1344v-160h-1536z" />
    <glyph glyph-name="F" unicode="F" horiz-adv-x="1728" 
d="M192 0v1536h1448v-160h-1256v-512h1199v-160h-1199v-704h-192z" />
    <glyph glyph-name="G" unicode="G" horiz-adv-x="2177" 
d="M128 748v40q0 204 20 342.5t69 225.5t133.5 133t212.5 62.5t308 16.5h376q236 0 383.5 -18t227 -69t109.5 -148.5t30 -255.5h-192q0 119 -21 185.5t-79 96t-168.5 36.5t-289.5 7h-376q-143 0 -241 -8.5t-159.5 -39t-94 -96.5t-44.5 -180t-12 -290v-40q0 -170 12 -282
t44.5 -179t94 -100t159.5 -43t241 -10h443q165 0 266 13.5t153.5 58t70.5 136t18 247.5v59h-735v160h927v-219q0 -195 -33 -317t-111.5 -188.5t-214 -91t-341.5 -24.5h-443q-225 0 -370 30.5t-226.5 112.5t-114 236t-32.5 401z" />
    <glyph glyph-name="H" unicode="H" horiz-adv-x="2184" 
d="M196 0v1536h192v-672h1408v672h192v-1536h-192v704h-1408v-704h-192z" />
    <glyph glyph-name="I" unicode="I" horiz-adv-x="576" 
d="M192 0v1536h192v-1536h-192z" />
    <glyph glyph-name="J" unicode="J" horiz-adv-x="1715" 
d="M576 0q-191 0 -298.5 55t-133.5 215q-16 95 -16 242v64h192v-64q0 -228 56 -298q31 -38 80.5 -48t119.5 -10h448q173 0 246.5 61.5t73.5 230.5v1088h192v-1088q0 -244 -112 -344q-116 -104 -400 -104h-448z" />
    <glyph glyph-name="K" unicode="K" horiz-adv-x="2016" 
d="M192 0v1536h192v-672h255l993 672h288l-1088 -752l1120 -784h-288l-1024 704h-256v-704h-192z" />
    <glyph glyph-name="L" unicode="L" horiz-adv-x="1664" 
d="M192 0v1536h192v-1376h1216v-160h-1408z" />
    <glyph glyph-name="M" unicode="M" horiz-adv-x="2808" 
d="M196 0v1536h286l929 -1253l915 1253h286v-1536h-192v1362l-917 -1261h-174l-941 1261v-1362h-192z" />
    <glyph glyph-name="N" unicode="N" horiz-adv-x="2321" 
d="M192 0v1536h200l1543 -1299h2v1299h192v-1536h-200l-1543 1310h-2v-1310h-192z" />
    <glyph glyph-name="O" unicode="O" horiz-adv-x="2145" 
d="M871 -32q-225 0 -370 30.5t-226.5 112.5t-114 236t-32.5 401v40q0 204 20 342.5t69 225.5t133.5 133t212.5 62.5t308 16.5h403q180 0 308 -16.5t212.5 -62.5t133.5 -133t69 -225.5t20 -342.5v-40q0 -247 -32.5 -401t-114 -236t-226.5 -112.5t-370 -30.5h-403zM871 134
h403q143 0 241 10t159.5 43t94 100t44.5 179t12 282v40q0 176 -12 290t-44.5 180t-94 96.5t-159.5 39t-241 8.5h-403q-143 0 -241 -8.5t-159.5 -39t-94 -96.5t-44.5 -180t-12 -290v-40q0 -170 12 -282t44.5 -179t94 -100t159.5 -43t241 -10z" />
    <glyph glyph-name="P" unicode="P" horiz-adv-x="1991" 
d="M196 0v1536h1028q225 0 362.5 -22t208.5 -73.5t96 -139t25 -217.5v-40q0 -124 -25.5 -210.5t-98.5 -139.5t-211 -77.5t-363 -24.5h-830v-592h-192zM1724 1084q0 95 -18 152t-72 86t-161 38.5t-286 9.5h-799v-612h799q179 0 286 11.5t161 42t72 87t18 145.5v40z" />
    <glyph glyph-name="Q" unicode="Q" horiz-adv-x="2145" 
d="M871 -32q-225 0 -370 30.5t-226.5 112.5t-114 236t-32.5 401v40q0 204 20 342.5t69 225.5t133.5 133t212.5 62.5t308 16.5h403q180 0 308 -16.5t212.5 -62.5t133.5 -133t69 -225.5t20 -342.5v-40q0 -243 -30.5 -394.5t-109.5 -236.5l268 -210l-97 -119l-306 239
q-83 -34 -198.5 -46.5t-269.5 -12.5h-403zM871 134h403q97 0 173 4t134 16l-474 371l97 119l527 -413q57 63 75.5 185t18.5 332v40q0 176 -12 290t-44.5 180t-94 96.5t-159.5 39t-241 8.5h-403q-143 0 -241 -8.5t-159.5 -39t-94 -96.5t-44.5 -180t-12 -290v-40
q0 -170 12 -282t44.5 -179t94 -100t159.5 -43t241 -10z" />
    <glyph glyph-name="R" unicode="R" horiz-adv-x="2087" 
d="M196 1536h1028q225 0 362.5 -20t208.5 -69t96 -134t25 -215v-40q0 -120 -28.5 -206.5t-109.5 -140t-240 -75.5l334 -636h-192l-327 622q-20 -1 -41.5 -1h-44.5h-879v-621h-192v1536zM388 787h849q171 0 269.5 11.5t145 40.5t59.5 82t13 137v40q0 95 -18 150t-72 81
t-161 33.5t-286 7.5h-799v-583z" />
    <glyph glyph-name="S" unicode="S" horiz-adv-x="2142" 
d="M1827 444q0 89 -14 140t-63 75.5t-152 32t-282 10.5l-556 8q-206 3 -331 25t-189 69.5t-85.5 127.5t-21.5 200q0 131 29.5 216t107 133t219.5 67.5t367 19.5h428q204 0 340 -13t216 -60t114.5 -146t34.5 -272h-192q0 134 -25.5 202.5t-84 93.5t-157.5 27t-246 2h-418
q-179 0 -286.5 -7t-162.5 -32t-73.5 -80t-18.5 -151q0 -81 13 -130t58.5 -74.5t140.5 -35t259 -11.5l596 -8q210 -3 335.5 -24.5t188 -69.5t83 -129.5t20.5 -205.5q0 -135 -25.5 -226.5t-98.5 -146.5t-211 -79t-363 -24h-468q-205 0 -344 18t-221.5 72.5t-118.5 162.5
t-36 288h192q0 -141 23 -218t80.5 -110.5t161 -40t263.5 -6.5h458q179 0 283 11.5t154 44t64.5 93.5t14.5 161z" />
    <glyph glyph-name="T" unicode="T" horiz-adv-x="1916" 
d="M862 0v1376h-768v160h1728v-160h-768v-1376h-192z" />
    <glyph glyph-name="U" unicode="U" horiz-adv-x="2120" 
d="M879 -32q-225 0 -370 30.5t-226.5 112.5t-114 236t-32.5 401v788h192v-788q0 -170 12 -282t45 -179t94.5 -100t159.5 -43t240 -10h362q143 0 240.5 10t159 43t94.5 100t45 179t12 282v788h192v-788q0 -247 -32.5 -401t-114 -236t-226.5 -112.5t-370 -30.5h-362z" />
    <glyph glyph-name="V" unicode="V" horiz-adv-x="2048" 
d="M896 0l-828 1536h220l736 -1400l736 1400h217l-825 -1536h-256z" />
    <glyph glyph-name="W" unicode="W" horiz-adv-x="3328" 
d="M832 0l-755 1536h221l662 -1373l624 1373h224l624 -1373l598 1373h221l-691 -1536h-256l-608 1343l-608 -1343h-256z" />
    <glyph glyph-name="X" unicode="X" horiz-adv-x="2176" 
d="M64 0l873 810l-809 726h272l670 -602l649 602h272l-782 -726l903 -810h-272l-765 686l-739 -686h-272z" />
    <glyph glyph-name="Y" unicode="Y" horiz-adv-x="2176" 
d="M992 0v640l-864 896h256l704 -752l704 752h256l-864 -896v-640h-192z" />
    <glyph glyph-name="Z" unicode="Z" horiz-adv-x="2046" 
d="M128 0v160l1486 1216h-1422v160h1696v-160l-1494 -1216h1526v-160h-1792z" />
    <glyph glyph-name="bracketleft" unicode="[" horiz-adv-x="832" 
d="M128 -202v1794h576v-160h-384v-1474h384v-160h-576z" />
    <glyph glyph-name="backslash" unicode="\" horiz-adv-x="1023" 
d="M768 0l-704 1536h192l704 -1536h-192z" />
    <glyph glyph-name="bracketright" unicode="]" horiz-adv-x="832" 
d="M704 -202h-576v160h384v1474h-384v160h576v-1794z" />
    <glyph glyph-name="asciicircum" unicode="^" horiz-adv-x="1088" 
d="M192 896l-128 96l384 544h192l384 -544l-128 -96l-352 512z" />
    <glyph glyph-name="underscore" unicode="_" horiz-adv-x="1088" 
d="M0 -160v160h1088v-160h-1088z" />
    <glyph glyph-name="grave" unicode="`" horiz-adv-x="960" 
d="M768 1280l-630 404l118 172l576 -480z" />
    <glyph glyph-name="a" unicode="a" horiz-adv-x="1560" 
d="M736 -22q-207 0 -341.5 21.5t-200 94.5t-65.5 227q0 157 61.5 230.5t195 95.5t350.5 22q176 0 295 -8t213 -28q-2 133 -18 209.5t-60 113.5t-128.5 47.5t-224.5 10.5q-160 0 -250.5 -7t-131.5 -25t-51.5 -52t-10.5 -88h-192q0 108 29.5 174t100.5 100t194.5 46t311.5 12
q202 0 325.5 -26t188 -93.5t87 -188.5t22.5 -312v-554h-192v79q-34 -36 -94 -58t-159.5 -32.5t-254.5 -10.5zM736 134q171 0 273 4t152.5 22t66.5 58t16 112v177l-508 6q-135 2 -217.5 -3.5t-125.5 -24t-57.5 -58t-14.5 -106.5q0 -65 14.5 -103t57.5 -56t125.5 -23t217.5 -5
z" />
    <glyph glyph-name="b" unicode="b" horiz-adv-x="1638" 
d="M837 -22q-185 0 -312.5 28t-200.5 126v-132h-192v1536h192v-515q73 97 200.5 125t312.5 28q194 0 328.5 -20t217.5 -80t121 -178t38 -314q0 -202 -38 -323t-121 -181.5t-217.5 -80t-328.5 -19.5zM1350 582q0 143 -14.5 229t-63.5 129.5t-152.5 58.5t-282.5 15
q-163 0 -264 -15t-155 -58.5t-74 -129.5t-20 -229q0 -148 20 -237t74 -133.5t155 -59t264 -14.5q179 0 282.5 14.5t152.5 59t63.5 133.5t14.5 237z" />
    <glyph glyph-name="c" unicode="c" horiz-adv-x="1571" 
d="M801 -22q-193 0 -328 19.5t-218 80t-121 181.5t-38 323q0 196 38 314t121 178t218 80t328 20q231 0 380.5 -26.5t221.5 -108.5t72 -250h-184q0 97 -40 145t-146 64t-304 16q-178 0 -282 -15t-153 -58.5t-63.5 -129.5t-14.5 -229q0 -148 14.5 -237t63.5 -133.5t153 -59
t282 -14.5q151 0 247 8.5t149 34t73.5 74t20.5 129.5h184q0 -134 -40 -215t-122 -122t-209.5 -55t-302.5 -14z" />
    <glyph glyph-name="d" unicode="d" horiz-adv-x="1638" 
d="M801 -22q-193 0 -328 19.5t-218 80t-121 181.5t-38 323q0 196 38 314t121 178t218 80t328 20q185 0 312.5 -28t200.5 -125v515h192v-1536h-192v132q-73 -98 -200.5 -126t-312.5 -28zM1314 582q0 143 -20 229t-74 129.5t-155 58.5t-264 15q-178 0 -282 -15t-153 -58.5
t-63.5 -129.5t-14.5 -229q0 -148 14.5 -237t63.5 -133.5t153 -59t282 -14.5q163 0 264 14.5t155 59t74 133.5t20 237z" />
    <glyph glyph-name="e" unicode="e" horiz-adv-x="1567" 
d="M1447 342q0 -129 -38.5 -203t-117.5 -108t-201.5 -43.5t-291.5 -9.5q-193 0 -327.5 19.5t-217 80t-120 181.5t-37.5 323q0 196 36.5 314t118.5 178t215.5 80t326.5 20q221 0 366 -31t216.5 -118t71.5 -255v-247h-1158q1 -128 18 -205t68 -116t152.5 -51.5t270.5 -12.5
q152 0 245.5 6t142 26.5t65.5 61.5t17 110h179zM793 1014q-163 0 -262.5 -12t-151.5 -46.5t-70.5 -102.5t-19.5 -179h974v96q0 72 -16.5 119.5t-64.5 75t-141.5 38.5t-247.5 11z" />
    <glyph glyph-name="f" unicode="f" horiz-adv-x="1056" 
d="M320 0v1006h-192v146h192v50q0 164 53.5 252t167 121t292.5 33h223v-156h-224q-143 0 -211 -18t-88.5 -71.5t-20.5 -160.5v-50h544v-146h-544v-1006h-192z" />
    <glyph glyph-name="g" unicode="g" horiz-adv-x="1612" 
d="M835 -439q-153 0 -278.5 7.5t-215.5 36t-139 90t-49 168.5h192q0 -70 54.5 -100t163.5 -36t272 -6q121 0 207 7.5t140.5 43.5t80 120.5t25.5 237.5v27q-70 -90 -192.5 -119t-303.5 -29q-187 0 -319 21.5t-214.5 81.5t-120.5 174t-38 298q0 196 38 314t120.5 177.5
t214.5 79t319 19.5q181 0 303.5 -26.5t192.5 -117.5v122h192v-1030q-4 -190 -48 -302.5t-125.5 -168t-200 -73t-271.5 -17.5zM1288 584q0 143 -17.5 228.5t-68 129t-149 58t-261.5 14.5q-172 0 -272.5 -14.5t-149.5 -58t-63.5 -129t-14.5 -228.5q0 -130 14.5 -212t63 -126
t149.5 -60.5t273 -16.5q163 0 261.5 16.5t149 60.5t68 126t17.5 212z" />
    <glyph glyph-name="h" unicode="h" horiz-adv-x="1603" 
d="M132 0v1536h192v-537q43 58 106.5 97t170 58.5t279.5 19.5q226 0 356.5 -44t185.5 -157t55 -320v-653h-193v653q0 118 -20 190t-68.5 109t-133.5 49.5t-216 12.5q-200 0 -314 -33t-161 -103.5t-47 -183.5v-694h-192z" />
    <glyph glyph-name="i" unicode="i" horiz-adv-x="448" 
d="M128 0v1088h192v-1088h-192zM128 1344v192h192v-192h-192z" />
    <glyph glyph-name="j" unicode="j" horiz-adv-x="672" 
d="M288 1344v192h192v-192h-192zM-37 -384v160h145q97 0 138.5 36.5t41.5 163.5v1176h192v-1176q0 -181 -83 -270.5t-289 -89.5h-145z" />
    <glyph glyph-name="k" unicode="k" horiz-adv-x="1414" 
d="M134 0v1536h192v-887l765 503h291l-813 -541l845 -611h-286l-802 591v-591h-192z" />
    <glyph glyph-name="l" unicode="l" horiz-adv-x="576" 
d="M192 0v1536h192v-1536h-192z" />
    <glyph glyph-name="m" unicode="m" horiz-adv-x="2474" 
d="M132 0v1152h192v-143q43 58 103 97t153.5 58.5t239.5 19.5q181 0 295 -49t168 -169q49 76 118 124.5t173.5 71t257.5 22.5q182 0 296 -49.5t167.5 -168.5t53.5 -326v-640h-192v640q0 158 -33 240.5t-109.5 113t-206.5 30.5q-255 0 -363.5 -75t-108.5 -245v1q1 -31 1 -65
v-640h-192v640q0 158 -33 240.5t-109.5 113t-206.5 30.5q-255 0 -363.5 -75t-108.5 -245v-704h-192z" />
    <glyph glyph-name="n" unicode="n" 
d="M132 0v1152h192v-153q43 58 106.5 97t170 58.5t279.5 19.5q226 0 356.5 -44t185.5 -157t55 -320v-653h-193v653q0 118 -20 190t-68.5 109t-133.5 49.5t-216 12.5q-200 0 -314 -33t-161 -103.5t-47 -183.5v-694h-192z" />
    <glyph glyph-name="o" unicode="o" horiz-adv-x="1602" 
d="M801 -22q-193 0 -328 19.5t-218 80t-121 181.5t-38 323q0 196 38 314t121 178t218 80t328 20q194 0 328.5 -20t217.5 -80t121 -178t38 -314q0 -202 -38 -323t-121 -181.5t-217.5 -80t-328.5 -19.5zM1314 582q0 143 -14.5 229t-63.5 129.5t-152.5 58.5t-282.5 15
q-178 0 -282 -15t-153 -58.5t-63.5 -129.5t-14.5 -229q0 -148 14.5 -237t63.5 -133.5t153 -59t282 -14.5q179 0 282.5 14.5t152.5 59t63.5 133.5t14.5 237z" />
    <glyph glyph-name="p" unicode="p" horiz-adv-x="1638" 
d="M1350 582q0 143 -14.5 229t-63.5 129.5t-152.5 58.5t-282.5 15q-163 0 -264 -15t-155 -58.5t-74 -129.5t-20 -229q0 -148 20 -237t74 -133.5t155 -59t264 -14.5q179 0 282.5 14.5t152.5 59t63.5 133.5t14.5 237zM132 -384v1536h192v-131q73 97 200.5 125t312.5 28
q194 0 328.5 -20t217.5 -80t121 -178t38 -314q0 -202 -38 -323t-121 -181.5t-217.5 -80t-328.5 -19.5q-185 0 -312.5 28t-200.5 126v-516h-192z" />
    <glyph glyph-name="q" unicode="q" horiz-adv-x="1638" 
d="M1314 582q0 143 -20 229t-74 129.5t-155 58.5t-264 15q-178 0 -282 -15t-153 -58.5t-63.5 -129.5t-14.5 -229q0 -148 14.5 -237t63.5 -133.5t153 -59t282 -14.5q163 0 264 14.5t155 59t74 133.5t20 237zM96 582q0 196 38 314t121 178t218 80t328 20q185 0 312.5 -28
t200.5 -125v131h192v-1536h-192v516q-73 -98 -200.5 -126t-312.5 -28q-193 0 -328 19.5t-218 80t-121 181.5t-38 323z" />
    <glyph glyph-name="r" unicode="r" horiz-adv-x="986" 
d="M148 0v1152h192v-159q32 51 64.5 85t85 54t142.5 28.5t237 8.5v-161q-198 0 -306.5 -14t-155.5 -47.5t-57 -92.5t-10 -150v-704h-192z" />
    <glyph glyph-name="s" unicode="s" horiz-adv-x="1589" 
d="M779 -22q-210 0 -337.5 14t-193 52t-88 108t-22.5 182h184q0 -63 9 -101.5t51 -59t136.5 -28t265.5 -7.5q181 0 281.5 7.5t144.5 28t53.5 59.5t9.5 103q0 78 -14 117t-66 52.5t-166 14.5l-458 5q-177 2 -270 30t-127 98.5t-34 200.5q0 121 37.5 187t117.5 94t208 33.5
t309 5.5q213 0 338.5 -13t188 -49t82 -104.5t19.5 -178.5h-184q0 65 -9 102.5t-48.5 55t-128 22.5t-248.5 5q-182 0 -283 -4t-146 -19t-55 -47.5t-10 -89.5q0 -58 6.5 -91.5t34.5 -50.5t91.5 -22.5t177.5 -6.5l395 -4q178 -2 270.5 -29.5t126 -101t33.5 -212.5
q0 -125 -36.5 -197t-116.5 -106.5t-210.5 -44.5t-318.5 -10z" />
    <glyph glyph-name="t" unicode="t" horiz-adv-x="1297" 
d="M661 0q-176 0 -282 35.5t-153.5 126t-47.5 254.5v1051h192v-315h709v-158h-709v-578q0 -112 20.5 -167t83 -72t187.5 -17q111 0 174.5 7t93.5 37.5t38 100.5t8 197h170q0 -166 -20.5 -266t-73 -151t-147 -68t-243.5 -17z" />
    <glyph glyph-name="u" unicode="u" 
d="M720 -22q-226 0 -356 49.5t-185 166t-55 318.5v640h193v-640q0 -114 18.5 -187.5t65.5 -114t132.5 -56.5t220.5 -16q200 0 314 33t161.5 103.5t47.5 183.5v694h192v-1152h-192v153q-42 -58 -106 -97t-171 -58.5t-280 -19.5z" />
    <glyph glyph-name="v" unicode="v" horiz-adv-x="1588" 
d="M666 0l-602 1152h226l504 -1008h2l514 1008h214l-602 -1152h-256z" />
    <glyph glyph-name="w" unicode="w" horiz-adv-x="2240" 
d="M512 0l-442 1152h218l351 -997h2l383 997h192l379 -997h2l355 997h218l-442 -1152h-256l-351 933h-2l-351 -933h-256z" />
    <glyph glyph-name="x" unicode="x" horiz-adv-x="1628" 
d="M96 0l590 586l-562 566h256l439 -445l429 445h256l-562 -565l590 -587h-256l-462 482l-462 -482h-256z" />
    <glyph glyph-name="y" unicode="y" horiz-adv-x="1568" 
d="M308 -384v160q103 0 170.5 4.5t113 25t82 66.5t76.5 128h-64l-640 1152h220l548 -1009l461 1009h225l-584 -1216q-39 -81 -80.5 -141t-104 -100t-163.5 -59.5t-260 -19.5z" />
    <glyph glyph-name="z" unicode="z" horiz-adv-x="1472" 
d="M128 0v160l973 844h-909v148h1152v-160l-959 -842h959v-150h-1216z" />
    <glyph glyph-name="braceleft" unicode="{" horiz-adv-x="960" 
d="M832 -232q-148 0 -247 11.5t-157.5 47t-83 106.5t-24.5 190v382q0 48 -10.5 68t-51 23.5t-130.5 3.5v160q90 0 130.5 4t51 23.5t10.5 67.5v382q0 119 24.5 190t83 106.5t157.5 47t247 11.5v-160q-114 0 -179.5 -4t-96 -23t-38.5 -63.5t-8 -124.5v-365q0 -71 -22 -121.5
t-104 -50.5q82 0 104 -50.5t22 -121.5v-365q0 -80 8 -124.5t38.5 -63.5t96 -23t179.5 -4v-160z" />
    <glyph glyph-name="bar" unicode="|" horiz-adv-x="448" 
d="M128 -128v1728h192v-1728h-192z" />
    <glyph glyph-name="braceright" unicode="}" horiz-adv-x="960" 
d="M128 -232v160q114 0 179.5 4t96 23t38.5 63.5t8 124.5v365q0 71 22 121.5t104 50.5q-82 0 -104 50.5t-22 121.5v365q0 80 -8 124.5t-38.5 63.5t-96 23t-179.5 4v160q149 0 247.5 -11.5t157 -47t83 -106.5t24.5 -190v-382q0 -48 10.5 -67.5t51 -23.5t130.5 -4v-160
q-90 0 -130.5 -3.5t-51 -23.5t-10.5 -68v-382q0 -119 -24.5 -190t-83 -106.5t-157 -47t-247.5 -11.5z" />
    <glyph glyph-name="asciitilde" unicode="~" horiz-adv-x="1400" 
d="M252 832q0 124 73 190t183 66q105 0 219 -48q33 -14 72 -31t79 -17q48 0 63 18.5t15 77.5h192q0 -133 -92 -202q-72 -54 -164 -54q-105 0 -219 48q-33 14 -72 31t-79 17q-51 0 -64.5 -18.5t-13.5 -77.5h-192z" />
    <glyph glyph-name="uni00A0" unicode="&#xa0;" horiz-adv-x="582" 
 />
    <glyph glyph-name="exclamdown" unicode="&#xa1;" horiz-adv-x="568" 
d="M236 801h96l48 -1088h-192zM188 1249h192v-192h-192v192z" />
    <glyph glyph-name="cent" unicode="&#xa2;" 
d="M783 -32q-146 0 -265.5 18t-205 67.5t-130.5 142.5q-54 114 -54 348t54 348q60 127 212 178q148 50 439 50q372 0 512 -100q69 -49 98.5 -125.5t29.5 -190.5h-192q0 83 -13 126t-47.5 65.5t-99.5 41.5q-78 23 -288 23q-253 0 -360 -36q-55 -19 -86.5 -50.5t-48.5 -87.5
t-17 -242q0 -189 19 -250q26 -85 99 -116t179 -42q44 -4 108 -6t149 -2q171 0 273 31q51 16 77 37q38 31 47 68.5t9 119.5h192q0 -109 -28 -186q-32 -89 -109 -136.5t-187 -69.5q-124 -24 -366 -24z" />
    <glyph glyph-name="sterling" unicode="&#xa3;" horiz-adv-x="1663" 
d="M256 0v640h-192v160h192v158q0 157 21 267.5t78.5 181.5t166.5 110q144 52 438 52q333 0 459 -95q117 -87 117 -301h-192q0 76 -8.5 110t-41.5 63q-25 22 -66 35q-84 28 -241 28q-156 0 -243 -9q-109 -11 -180 -45t-97 -124q-19 -66 -19 -273v-158h832v-160h-832v-480
h1024v-160h-1216z" />
    <glyph glyph-name="currency" unicode="&#xa4;" horiz-adv-x="1280" 
d="M196 47l-84 97l144 124q-64 98 -64 244t64 244l-144 124l84 97l150 -129q116 80 294 80t294 -80l150 129l84 -97l-145 -124q65 -98 65 -242q0 -145 -65 -246l145 -124l-84 -97l-151 128q-112 -79 -294 -79q-181 0 -293 80zM640 256q256 0 256 256q0 128 -66 192t-190 64
q-256 0 -256 -256t256 -256z" />
    <glyph glyph-name="yen" unicode="&#xa5;" horiz-adv-x="2048" 
d="M928 0v256h-512v160h512v224h-512v160h357l-709 736h256l704 -768l704 768h256l-710 -736h358v-160h-512v-224h512v-160h-512v-256h-192z" />
    <glyph glyph-name="brokenbar" unicode="&#xa6;" horiz-adv-x="448" 
d="M128 896v704h192v-704h-192zM128 -128v704h192v-704h-192z" />
    <glyph glyph-name="section" unicode="&#xa7;" horiz-adv-x="1504" 
d="M672 -32q-301 0 -422 80q-118 78 -118 272h192q0 -98 45.5 -136t133.5 -48q34 -4 92.5 -6t142.5 -2t154.5 5t125.5 15q57 11 90 27q47 23 61.5 57.5t14.5 104.5q0 73 -44.5 96t-111.5 33q-69 10 -124.5 12t-128.5 2h-136q-176 0 -310 27q-64 13 -103 33q-44 22 -71 55
t-27 104q0 76 92 188q-49 36 -70 90.5t-21 138.5q0 115 35 178.5t102.5 96.5t165.5 55q118 26 401 26q301 0 422 -80q118 -78 118 -272h-192q0 98 -45.5 136t-133.5 48q-34 4 -92.5 6t-142.5 2t-154 -4.5t-126 -15.5q-79 -14 -122.5 -48t-43.5 -124q0 -53 14 -81t57 -45
q86 -34 408 -34q574 0 574 -203q0 -84 -88 -206q50 -35 70 -89.5t20 -137.5q0 -114 -35 -178t-102.5 -97t-165.5 -55q-118 -26 -401 -26zM1153 607q33 66 33 105q0 24 -20 42q-20 19 -84 32q-67 14 -281 14q-307 0 -449 32q-10 -25 -20.5 -49.5t-10.5 -54.5
q0 -37 23.5 -50.5t64.5 -23.5q61 -14 295 -14q308 0 449 -33z" />
    <glyph glyph-name="dieresis" unicode="&#xa8;" horiz-adv-x="1088" 
d="M802 1344v192h192v-192h-192zM94 1344v192h192v-192h-192z" />
    <glyph glyph-name="copyright" unicode="&#xa9;" horiz-adv-x="1920" 
d="M960 64q-346 0 -528 86q-176 83 -245 265q-59 156 -59 449q0 136 12 248q25 228 140 356q175 196 680 196q346 0 528 -86q176 -83 245 -265q59 -156 59 -449q0 -135 -12 -248q-25 -228 -140 -356q-175 -196 -680 -196zM960 224q274 0 394 38q140 45 194 180
q52 129 52 422t-52 422q-31 79 -80 119.5t-138 68.5q-94 30 -370 30q-274 0 -394 -38q-140 -45 -194 -180q-52 -129 -52 -422t52 -422q32 -79 81 -119t137 -69q95 -30 370 -30zM956 410q-157 0 -254 22q-104 24 -159 83t-75 153.5t-20 224.5q0 140 21 233q24 106 89 159
t166.5 71.5t234.5 18.5q295 0 409 -83q104 -76 104 -265h-160q0 89 -21.5 129t-86.5 60q-57 18 -110 21.5t-135 3.5h-43q-128 0 -202 -31q-40 -16 -60.5 -42.5t-31.5 -70.5q-12 -45 -12 -204q0 -117 10.5 -188t53.5 -107t138 -47q30 -4 77 -5.5t110 -1.5q124 0 205 26
q65 21 86.5 59t21.5 130h160q0 -189 -104 -265q-70 -52 -174.5 -68t-237.5 -16z" />
    <glyph glyph-name="ordfeminine" unicode="&#xaa;" horiz-adv-x="1560" 
d="M713 416q-199 0 -328.5 21t-192.5 91t-63 218q0 151 59 222t187.5 92t337.5 21q169 0 283.5 -8t205.5 -26q-2 127 -17.5 201t-58 109t-124 45.5t-215.5 10.5q-154 0 -241 -6.5t-126.5 -24.5t-49.5 -50.5t-10 -84.5h-185q0 104 28.5 167.5t97 96.5t187 44.5t299.5 11.5
q195 0 314 -25t181 -90t83.5 -182t21.5 -300v-533h-185v76q-33 -35 -90.5 -56t-154 -31t-244.5 -10zM713 566q165 0 263 4t146.5 21.5t64 56t15.5 107.5v170l-489 6q-130 2 -209.5 -3t-120.5 -23.5t-55 -56t-14 -102.5q0 -63 14 -99.5t55 -53.5t120.5 -22t209.5 -5z" />
    <glyph glyph-name="guillemotleft" unicode="&#xab;" horiz-adv-x="1344" 
d="M1120 128l-544 384v192l544 384l96 -128l-512 -352l512 -352zM672 128l-544 384v192l544 384l96 -128l-512 -352l512 -352z" />
    <glyph glyph-name="logicalnot" unicode="&#xac;" horiz-adv-x="1400" 
d="M988 640v288h-768v160h960v-448h-192z" />
    <glyph glyph-name="registered" unicode="&#xae;" horiz-adv-x="1920" 
d="M960 64q-346 0 -528 86q-176 83 -245 265q-59 156 -59 449q0 136 12 248q24 226 140 356q175 196 680 196q346 0 528 -86q176 -83 245 -265q59 -156 59 -449q0 -135 -12 -248q-25 -228 -140 -356q-175 -196 -680 -196zM960 224q274 0 394 38q140 45 194 180
q52 129 52 422t-52 422q-31 79 -80 119.5t-138 68.5q-94 30 -370 30q-274 0 -394 -38q-140 -45 -194 -180q-52 -129 -52 -422t52 -422q32 -79 81 -119t137 -69q95 -30 370 -30zM573 384v992h287q317 0 439 -74q56 -34 80.5 -86t24.5 -138q0 -107 -68.5 -159t-175.5 -59
q96 -12 149 -46.5t74.5 -101.5t21.5 -176v-152h-161v213q0 76 -31 118t-82 60t-111 21.5t-117 3.5h-170v-416h-160zM733 928h127q235 0 312 34q38 17 55 45.5t17 79.5t-17 79.5t-55 45.5q-79 36 -312 36h-127v-320z" />
    <glyph glyph-name="macron" unicode="&#xaf;" horiz-adv-x="1024" 
d="M128 1305v160h768v-160h-768z" />
    <glyph glyph-name="degree" unicode="&#xb0;" horiz-adv-x="1280" 
d="M640 96q-206 0 -327 107t-121 309q0 109 34 186q99 230 414 230q206 0 327 -106.5t121 -309.5q0 -109 -34 -186q-99 -230 -414 -230zM640 256q256 0 256 256q0 128 -66 192t-190 64q-256 0 -256 -256t256 -256z" />
    <glyph glyph-name="plusminus" unicode="&#xb1;" horiz-adv-x="1400" 
d="M604 540v300h-417v160h417v300h192v-300h417v-160h-417v-300h-192zM187 172v160h1026v-160h-1026z" />
    <glyph glyph-name="uni00B2" unicode="&#xb2;" horiz-adv-x="1344" 
d="M128 449v224q0 105 39 161t111 83.5t170 45.5l386 73q69 13 110.5 32t60.5 59t19 116q0 95 -45 126.5t-137 35.5q-34 2 -86.5 3t-123.5 1q-141 0 -212 -12q-66 -10 -83 -36.5t-17 -111.5h-192q0 141 50 209.5t147.5 90t239.5 21.5q32 0 65 -0.5t67 -0.5q106 0 210.5 -6.5
t174.5 -39.5q78 -37 106 -107t28 -195q0 -158 -81.5 -231.5t-236.5 -104.5l-258 -51q-177 -35 -224 -51q-42 -13 -62.5 -29.5t-27 -49t-6.5 -95.5h866v-160h-1058z" />
    <glyph glyph-name="uni00B3" unicode="&#xb3;" horiz-adv-x="1403" 
d="M537 447q-276 0 -363 75q-74 63 -74 213h192q0 -81 31 -98.5t104 -22.5q53 -4 100.5 -5t75.5 -1q139 0 248 1t155 17q47 16 61.5 50.5t14.5 101.5q0 90 -46.5 120t-144.5 30h-391v160h391q106 0 148.5 34.5t42.5 135.5q0 92 -43 121.5t-136 29.5q-46 0 -107.5 -0.5
t-158.5 -0.5q-59 0 -116.5 -1.5t-93.5 -4.5q-76 -7 -105.5 -32t-29.5 -120h-192q0 167 74 238q54 52 145 66.5t197 14.5h73.5t72.5 -0.5t109 -0.5q50 0 117.5 -1t134 -8.5t113.5 -27.5q81 -33 110 -104.5t29 -190.5q0 -100 -39.5 -151t-120.5 -77q66 -26 100.5 -55t47 -78
t12.5 -137q0 -109 -44.5 -168.5t-122 -85t-176.5 -31t-209 -5.5q-67 0 -101.5 -0.5t-84.5 -0.5z" />
    <glyph glyph-name="acute" unicode="&#xb4;" horiz-adv-x="960" 
d="M192 1342l-64 96l576 480l118 -172z" />
    <glyph glyph-name="uni00B5" unicode="&#xb5;" 
d="M129 -384v1472h192v-576q0 -101 14.5 -176t65.5 -123q89 -85 368 -85q422 0 491 189q21 59 21 131v640h192v-1088h-192v191q-30 -60 -82 -100t-123 -67q-150 -56 -386 -56t-369 65v-417h-192z" />
    <glyph glyph-name="paragraph" unicode="&#xb6;" horiz-adv-x="1984" 
d="M896 0v608h-63q-310 0 -468 55q-80 28 -125 67q-67 58 -89.5 145.5t-22.5 210.5q0 119 21.5 201.5t90.5 136.5q142 112 593 112h1023v-160h-192v-1376h-192v1376h-384v-1376h-192z" />
    <glyph glyph-name="periodcentered" unicode="&#xb7;" horiz-adv-x="448" 
d="M128 704v192h192v-192h-192z" />
    <glyph glyph-name="cedilla" unicode="&#xb8;" horiz-adv-x="640" 
d="M128 -544v160q46 0 90 5t73 23t29 56q0 47 -53 61.5t-139 14.5v288h128v-192q128 0 192 -43.5t64 -146.5q0 -87 -48.5 -136.5t-135 -69.5t-200.5 -20z" />
    <glyph glyph-name="uni00B9" unicode="&#xb9;" horiz-adv-x="938" 
d="M576 448v928l-416 -384l-96 128l448 416h256v-1088h-192z" />
    <glyph glyph-name="ordmasculine" unicode="&#xba;" horiz-adv-x="1664" 
d="M832 416q-169 0 -304 23t-227.5 87t-134.5 187q-38 112 -38 279q0 245 88 377t290 172q134 27 326 27q169 0 304 -23t227.5 -87t134.5 -187q38 -112 38 -279q0 -244 -87.5 -376t-290.5 -173q-133 -27 -326 -27zM788 576q94 0 165.5 3t120.5 8q109 12 167 60.5t80.5 134.5
t22.5 210q0 125 -22 210.5t-80.5 134t-167.5 60.5q-49 5 -109.5 8t-132.5 3q-123 0 -222.5 -9t-167 -48.5t-96.5 -131.5q-26 -84 -26 -199q0 -127 11 -220t77 -148q36 -30 92 -46q101 -30 288 -30z" />
    <glyph glyph-name="guillemotright" unicode="&#xbb;" horiz-adv-x="1344" 
d="M672 128l-96 128l512 352l-512 352l96 128l544 -384v-192zM224 128l-96 128l512 352l-512 352l96 128l544 -384v-192z" />
    <glyph glyph-name="onequarter" unicode="&#xbc;" horiz-adv-x="2918" 
d="M576 447v928l-416 -384l-96 128l448 416h256v-1088h-192zM868 0l704 1536h192l-704 -1536h-192zM2406 0v242h-832v192l768 687h256v-719h242v-160h-242v-242h-192zM1766 402h640v571z" />
    <glyph glyph-name="onehalf" unicode="&#xbd;" horiz-adv-x="3038" 
d="M576 447v928l-416 -384l-96 128l448 416h256v-1088h-192zM868 0l704 1536h192l-704 -1536h-192zM1822 0v224q0 105 39 161t111 83.5t170 45.5l386 73q69 13 110.5 32t60.5 59t19 116q0 95 -45 126.5t-137 35.5q-34 2 -86.5 3t-123.5 1q-141 0 -212 -12q-66 -10 -83 -36.5
t-17 -111.5h-192q0 141 50 209.5t147.5 90t239.5 21.5q32 0 65 -0.5t67 -0.5q106 0 210.5 -6.5t174.5 -39.5q78 -37 106 -107t28 -195q0 -158 -81.5 -231.5t-236.5 -104.5l-258 -51q-177 -35 -224 -51q-42 -13 -62.5 -29.5t-27 -49t-6.5 -95.5h866v-160h-1058z" />
    <glyph glyph-name="threequarters" unicode="&#xbe;" horiz-adv-x="3472" 
d="M537 447q-276 0 -363 75q-74 63 -74 213h192q0 -81 31 -98.5t104 -22.5q53 -4 100.5 -5t75.5 -1q139 0 248 1t155 17q47 16 61.5 50.5t14.5 101.5q0 90 -46.5 120t-144.5 30h-391v160h391q106 0 148.5 34.5t42.5 135.5q0 92 -43 121.5t-136 29.5q-46 0 -107.5 -0.5
t-158.5 -0.5q-59 0 -116.5 -1.5t-93.5 -4.5q-76 -7 -105.5 -32t-29.5 -120h-192q0 167 74 238q54 52 145 66.5t197 14.5h73.5t72.5 -0.5t109 -0.5q50 0 117.5 -1t134 -8.5t113.5 -27.5q81 -33 110 -104.5t29 -190.5q0 -100 -39.5 -151t-120.5 -77q66 -26 100.5 -55t47 -78
t12.5 -137q0 -109 -44.5 -168.5t-122 -85t-176.5 -31t-209 -5.5q-67 0 -101.5 -0.5t-84.5 -0.5zM1333 0l704 1536h192l-704 -1536h-192zM2960 0v242h-832v192l768 687h256v-719h242v-160h-242v-242h-192zM2320 402h640v571z" />
    <glyph glyph-name="questiondown" unicode="&#xbf;" horiz-adv-x="1856" 
d="M1191 890v-153q0 -136 -12.5 -219.5t-51 -127t-114 -59t-201.5 -15.5h-151q-104 0 -158.5 -20.5t-73.5 -76.5t-19 -161q0 -90 22.5 -141.5t76.5 -76t146.5 -31t231.5 -6.5q199 0 315.5 9t172.5 37t73 85.5t17 154.5h192q0 -164 -44.5 -255.5t-137.5 -132t-239 -49.5
t-349 -9q-154 0 -278 11t-211 50.5t-133.5 123.5t-46.5 230q0 99 14.5 176t59 131t133 82t236.5 28h151q68 0 106 7t55 32t21.5 78t4.5 145v153h192zM1191 1211v-192h-192v192h192z" />
    <glyph glyph-name="Agrave" unicode="&#xc0;" horiz-adv-x="2176" 
d="M64 0l896 1536h256l896 -1536h-224l-192 352h-1216l-192 -352h-224zM576 512h1024l-512 896zM1438 1724l-630 404l118 172l576 -480z" />
    <glyph glyph-name="Aacute" unicode="&#xc1;" horiz-adv-x="2176" 
d="M64 0l896 1536h256l896 -1536h-224l-192 352h-1216l-192 -352h-224zM576 512h1024l-512 896zM864 1726l-64 96l576 480l118 -172z" />
    <glyph glyph-name="Acircumflex" unicode="&#xc2;" horiz-adv-x="2176" 
d="M64 0l896 1536h256l896 -1536h-224l-192 352h-1216l-192 -352h-224zM576 512h1024l-512 896zM800 1694l-128 96l320 480h192l320 -480l-128 -96l-288 448z" />
    <glyph glyph-name="Atilde" unicode="&#xc3;" horiz-adv-x="2176" 
d="M64 0l896 1536h256l896 -1536h-224l-192 352h-1216l-192 -352h-224zM576 512h1024l-512 896zM640 1726q0 124 73.5 190.5t182.5 66.5q104 0 219 -49q33 -14 72 -31t79 -17q48 0 63 18.5t15 77.5h192q0 -133 -92 -202q-72 -54 -164 -54q-105 0 -219 48q-33 14 -72 31
t-79 17q-51 0 -64.5 -18.5t-13.5 -77.5h-192z" />
    <glyph glyph-name="Adieresis" unicode="&#xc4;" horiz-adv-x="2176" 
d="M64 0l896 1536h256l896 -1536h-224l-192 352h-1216l-192 -352h-224zM576 512h1024l-512 896zM1346 1728v192h192v-192h-192zM638 1728v192h192v-192h-192z" />
    <glyph glyph-name="Aring" unicode="&#xc5;" horiz-adv-x="2176" 
d="M64 0l896 1536h256l896 -1536h-224l-192 352h-1216l-192 -352h-224zM576 512h1024l-512 896zM1088 1724q-166 0 -259 86t-93 234q0 154 97.5 237t254.5 83q166 0 259 -86t93 -234q0 -154 -97.5 -237t-254.5 -83zM1088 1852q109 0 164 70q28 35 28 122q0 96 -45.5 144
t-146.5 48q-109 0 -164 -70q-28 -35 -28 -122q0 -96 46 -144t146 -48z" />
    <glyph glyph-name="AE" unicode="&#xc6;" horiz-adv-x="3072" 
d="M0 0l1408 1536h1536v-160h-1280v-512h1216v-160h-1216v-544h1280v-160h-1472v352h-890l-326 -352h-256zM704 512h768v864z" />
    <glyph glyph-name="Ccedilla" unicode="&#xc7;" horiz-adv-x="2145" 
d="M128 748v40q0 204 20 342.5t69 225.5t133.5 133t212.5 62.5t308 16.5h403q206 0 347.5 -19.5t228 -77t125.5 -169t39 -295.5h-192q0 145 -26 225.5t-87.5 116.5t-167.5 44.5t-267 8.5h-403q-143 0 -241 -8.5t-159.5 -39t-94 -96.5t-44.5 -180t-12 -290v-40
q0 -170 12 -282t44.5 -179t94 -100t159.5 -43t241 -10h403q161 0 267 7t167.5 41t87.5 113.5t26 223.5h192q0 -184 -39 -294t-125.5 -165.5t-228 -73.5t-347.5 -18h-403q-225 0 -370 30.5t-226.5 112.5t-114 236t-32.5 401zM963 -544v160q46 0 90 5t73 23t29 56
q0 47 -53 61.5t-139 14.5v288h128v-192q128 0 192 -43.5t64 -146.5q0 -87 -48.5 -136.5t-135 -69.5t-200.5 -20z" />
    <glyph glyph-name="Egrave" unicode="&#xc8;" horiz-adv-x="1792" 
d="M192 0v1536h1508v-160h-1316v-512h1261v-160h-1261v-544h1344v-160h-1536zM1306 1724l-630 404l118 172l576 -480z" />
    <glyph glyph-name="Eacute" unicode="&#xc9;" horiz-adv-x="1792" 
d="M192 0v1536h1508v-160h-1316v-512h1261v-160h-1261v-544h1344v-160h-1536zM732 1726l-64 96l576 480l118 -172z" />
    <glyph glyph-name="Ecircumflex" unicode="&#xca;" horiz-adv-x="1792" 
d="M192 0v1536h1508v-160h-1316v-512h1261v-160h-1261v-544h1344v-160h-1536zM668 1694l-128 96l320 480h192l320 -480l-128 -96l-288 448z" />
    <glyph glyph-name="Edieresis" unicode="&#xcb;" horiz-adv-x="1792" 
d="M192 0v1536h1508v-160h-1316v-512h1261v-160h-1261v-544h1344v-160h-1536zM1214 1728v192h192v-192h-192zM506 1728v192h192v-192h-192z" />
    <glyph glyph-name="Igrave" unicode="&#xcc;" horiz-adv-x="576" 
d="M192 0v1536h192v-1536h-192zM638 1724l-630 404l118 172l576 -480z" />
    <glyph glyph-name="Iacute" unicode="&#xcd;" horiz-adv-x="576" 
d="M192 0v1536h192v-1536h-192zM64 1726l-64 96l576 480l118 -172z" />
    <glyph glyph-name="Icircumflex" unicode="&#xce;" horiz-adv-x="576" 
d="M192 0v1536h192v-1536h-192zM0 1694l-128 96l320 480h192l320 -480l-128 -96l-288 448z" />
    <glyph glyph-name="Idieresis" unicode="&#xcf;" horiz-adv-x="576" 
d="M192 0v1536h192v-1536h-192zM546 1728v192h192v-192h-192zM-162 1728v192h192v-192h-192z" />
    <glyph glyph-name="Eth" unicode="&#xd0;" horiz-adv-x="2112" 
d="M128 0v704h-128v160h128v672h1151q340 0 495 -83q81 -44 122 -105q64 -94 76 -232t12 -296v-52q0 -65 -1 -124.5t-3 -113.5q-5 -163 -50.5 -275.5t-155.5 -171.5q-155 -83 -495 -83h-1151zM320 160h959q266 0 360 36q62 23 91 65.5t45 116.5q17 82 17 390t-20 402
q-16 75 -48.5 113.5t-103.5 64.5q-74 28 -341 28h-959v-512h448v-160h-448v-544z" />
    <glyph glyph-name="Ntilde" unicode="&#xd1;" horiz-adv-x="2321" 
d="M192 0v1536h200l1543 -1299h2v1299h192v-1536h-200l-1543 1310h-2v-1310h-192zM713 1726q0 124 73.5 190.5t182.5 66.5q104 0 219 -49q33 -14 72 -31t79 -17q48 0 63 18.5t15 77.5h192q0 -133 -92 -202q-72 -54 -164 -54q-105 0 -219 48q-33 14 -72 31t-79 17
q-51 0 -64.5 -18.5t-13.5 -77.5h-192z" />
    <glyph glyph-name="Ograve" unicode="&#xd2;" horiz-adv-x="2145" 
d="M871 -32q-225 0 -370 30.5t-226.5 112.5t-114 236t-32.5 401v40q0 204 20 342.5t69 225.5t133.5 133t212.5 62.5t308 16.5h403q180 0 308 -16.5t212.5 -62.5t133.5 -133t69 -225.5t20 -342.5v-40q0 -247 -32.5 -401t-114 -236t-226.5 -112.5t-370 -30.5h-403zM871 134
h403q143 0 241 10t159.5 43t94 100t44.5 179t12 282v40q0 176 -12 290t-44.5 180t-94 96.5t-159.5 39t-241 8.5h-403q-143 0 -241 -8.5t-159.5 -39t-94 -96.5t-44.5 -180t-12 -290v-40q0 -170 12 -282t44.5 -179t94 -100t159.5 -43t241 -10zM1423 1724l-630 404l118 172
l576 -480z" />
    <glyph glyph-name="Oacute" unicode="&#xd3;" horiz-adv-x="2145" 
d="M871 -32q-225 0 -370 30.5t-226.5 112.5t-114 236t-32.5 401v40q0 204 20 342.5t69 225.5t133.5 133t212.5 62.5t308 16.5h403q180 0 308 -16.5t212.5 -62.5t133.5 -133t69 -225.5t20 -342.5v-40q0 -247 -32.5 -401t-114 -236t-226.5 -112.5t-370 -30.5h-403zM871 134
h403q143 0 241 10t159.5 43t94 100t44.5 179t12 282v40q0 176 -12 290t-44.5 180t-94 96.5t-159.5 39t-241 8.5h-403q-143 0 -241 -8.5t-159.5 -39t-94 -96.5t-44.5 -180t-12 -290v-40q0 -170 12 -282t44.5 -179t94 -100t159.5 -43t241 -10zM849 1726l-64 96l576 480
l118 -172z" />
    <glyph glyph-name="Ocircumflex" unicode="&#xd4;" horiz-adv-x="2145" 
d="M871 -32q-225 0 -370 30.5t-226.5 112.5t-114 236t-32.5 401v40q0 204 20 342.5t69 225.5t133.5 133t212.5 62.5t308 16.5h403q180 0 308 -16.5t212.5 -62.5t133.5 -133t69 -225.5t20 -342.5v-40q0 -247 -32.5 -401t-114 -236t-226.5 -112.5t-370 -30.5h-403zM871 134
h403q143 0 241 10t159.5 43t94 100t44.5 179t12 282v40q0 176 -12 290t-44.5 180t-94 96.5t-159.5 39t-241 8.5h-403q-143 0 -241 -8.5t-159.5 -39t-94 -96.5t-44.5 -180t-12 -290v-40q0 -170 12 -282t44.5 -179t94 -100t159.5 -43t241 -10zM785 1694l-128 96l320 480h192
l320 -480l-128 -96l-288 448z" />
    <glyph glyph-name="Otilde" unicode="&#xd5;" horiz-adv-x="2145" 
d="M871 -32q-225 0 -370 30.5t-226.5 112.5t-114 236t-32.5 401v40q0 204 20 342.5t69 225.5t133.5 133t212.5 62.5t308 16.5h403q180 0 308 -16.5t212.5 -62.5t133.5 -133t69 -225.5t20 -342.5v-40q0 -247 -32.5 -401t-114 -236t-226.5 -112.5t-370 -30.5h-403zM871 134
h403q143 0 241 10t159.5 43t94 100t44.5 179t12 282v40q0 176 -12 290t-44.5 180t-94 96.5t-159.5 39t-241 8.5h-403q-143 0 -241 -8.5t-159.5 -39t-94 -96.5t-44.5 -180t-12 -290v-40q0 -170 12 -282t44.5 -179t94 -100t159.5 -43t241 -10zM625 1726q0 124 73.5 190.5
t182.5 66.5q104 0 219 -49q33 -14 72 -31t79 -17q48 0 63 18.5t15 77.5h192q0 -133 -92 -202q-72 -54 -164 -54q-105 0 -219 48q-33 14 -72 31t-79 17q-51 0 -64.5 -18.5t-13.5 -77.5h-192z" />
    <glyph glyph-name="Odieresis" unicode="&#xd6;" horiz-adv-x="2145" 
d="M871 -32q-225 0 -370 30.5t-226.5 112.5t-114 236t-32.5 401v40q0 204 20 342.5t69 225.5t133.5 133t212.5 62.5t308 16.5h403q180 0 308 -16.5t212.5 -62.5t133.5 -133t69 -225.5t20 -342.5v-40q0 -247 -32.5 -401t-114 -236t-226.5 -112.5t-370 -30.5h-403zM871 134
h403q143 0 241 10t159.5 43t94 100t44.5 179t12 282v40q0 176 -12 290t-44.5 180t-94 96.5t-159.5 39t-241 8.5h-403q-143 0 -241 -8.5t-159.5 -39t-94 -96.5t-44.5 -180t-12 -290v-40q0 -170 12 -282t44.5 -179t94 -100t159.5 -43t241 -10zM1331 1728v192h192v-192h-192z
M623 1728v192h192v-192h-192z" />
    <glyph glyph-name="multiply" unicode="&#xd7;" horiz-adv-x="1400" 
d="M383 341l-136 136l317 317l-317 317l136 136l317 -317l317 317l136 -136l-317 -317l317 -317l-136 -136l-317 317z" />
    <glyph glyph-name="Oslash" unicode="&#xd8;" horiz-adv-x="2145" 
d="M664 -254l-126 52l88 180q-148 15 -245 59.5t-152.5 131.5t-78 228.5t-22.5 350.5v40q0 204 20 342.5t69 225.5t133.5 133t212.5 62.5t308 16.5h403q74 0 133 -2l111 226l126 -52l-91 -184q138 -16 228 -60t141.5 -130.5t73 -227.5t21.5 -350v-40q0 -247 -32.5 -401
t-114 -236t-226.5 -112.5t-370 -30.5h-403q-52 0 -97 1zM320 748q0 -185 14.5 -301.5t54.5 -181.5t116.5 -93t199.5 -35l621 1265h-52h-403q-143 0 -241 -8.5t-159.5 -39t-94 -96.5t-44.5 -180t-12 -290v-40zM871 134h403q143 0 241 10t159.5 43t94 100t44.5 179t12 282v40
q0 184 -13.5 300.5t-50 181t-105.5 92.5t-180 36l-621 -1264h16z" />
    <glyph glyph-name="Ugrave" unicode="&#xd9;" horiz-adv-x="2120" 
d="M879 -32q-225 0 -370 30.5t-226.5 112.5t-114 236t-32.5 401v788h192v-788q0 -170 12 -282t45 -179t94.5 -100t159.5 -43t240 -10h362q143 0 240.5 10t159 43t94.5 100t45 179t12 282v788h192v-788q0 -247 -32.5 -401t-114 -236t-226.5 -112.5t-370 -30.5h-362z
M1410 1724l-630 404l118 172l576 -480z" />
    <glyph glyph-name="Uacute" unicode="&#xda;" horiz-adv-x="2120" 
d="M879 -32q-225 0 -370 30.5t-226.5 112.5t-114 236t-32.5 401v788h192v-788q0 -170 12 -282t45 -179t94.5 -100t159.5 -43t240 -10h362q143 0 240.5 10t159 43t94.5 100t45 179t12 282v788h192v-788q0 -247 -32.5 -401t-114 -236t-226.5 -112.5t-370 -30.5h-362zM836 1726
l-64 96l576 480l118 -172z" />
    <glyph glyph-name="Ucircumflex" unicode="&#xdb;" horiz-adv-x="2120" 
d="M879 -32q-225 0 -370 30.5t-226.5 112.5t-114 236t-32.5 401v788h192v-788q0 -170 12 -282t45 -179t94.5 -100t159.5 -43t240 -10h362q143 0 240.5 10t159 43t94.5 100t45 179t12 282v788h192v-788q0 -247 -32.5 -401t-114 -236t-226.5 -112.5t-370 -30.5h-362zM772 1694
l-128 96l320 480h192l320 -480l-128 -96l-288 448z" />
    <glyph glyph-name="Udieresis" unicode="&#xdc;" horiz-adv-x="2120" 
d="M879 -32q-225 0 -370 30.5t-226.5 112.5t-114 236t-32.5 401v788h192v-788q0 -170 12 -282t45 -179t94.5 -100t159.5 -43t240 -10h362q143 0 240.5 10t159 43t94.5 100t45 179t12 282v788h192v-788q0 -247 -32.5 -401t-114 -236t-226.5 -112.5t-370 -30.5h-362z
M1318 1728v192h192v-192h-192zM610 1728v192h192v-192h-192z" />
    <glyph glyph-name="Yacute" unicode="&#xdd;" horiz-adv-x="2176" 
d="M992 0v640l-864 896h256l704 -752l704 752h256l-864 -896v-640h-192zM864 1726l-64 96l576 480l118 -172z" />
    <glyph glyph-name="Thorn" unicode="&#xde;" horiz-adv-x="1920" 
d="M128 0v1536h192v-192h962q275 0 404 -50q64 -25 98 -62q53 -56 62.5 -142t9.5 -196q0 -38 -1 -73.5t-3 -68.5q-8 -142 -84 -214q-128 -122 -617 -122h-831v-416h-192zM320 576h831q261 0 360 21q74 16 110.5 55.5t40.5 123.5q2 26 2 65v94q0 86 -13 132t-49 68t-107 35
q-76 14 -344 14h-831v-608z" />
    <glyph glyph-name="germandbls" unicode="&#xdf;" horiz-adv-x="2048" 
d="M128 -128v1186q0 122 20.5 211.5t83.5 147.5q128 119 537 119h511q280 0 400 -92q53 -40 82.5 -105.5t29.5 -152.5q0 -38 -1.5 -69t-6.5 -56q-37 -215 -184 -229q135 -7 227.5 -94.5t92.5 -266.5q0 -118 -21 -206.5t-83 -145.5q-128 -119 -537 -119h-767v160h703
q81 0 162.5 2t151 13t111.5 37q62 38 75 110t13 179q0 94 -34 145q-25 38 -64 51.5t-102 24.5q-79 14 -313 14h-703v160h711q98 0 177 6.5t130 43.5q43 31 56.5 86.5t13.5 129.5q0 83 -26 120.5t-87 64.5q-66 29 -271 29h-383q-241 0 -333 -18q-60 -12 -94 -34t-60 -69
q-26 -46 -26 -197v-1186h-192z" />
    <glyph glyph-name="agrave" unicode="&#xe0;" horiz-adv-x="1560" 
d="M736 -22q-207 0 -341.5 21.5t-200 94.5t-65.5 227q0 157 61.5 230.5t195 95.5t350.5 22q176 0 295 -8t213 -28q-2 133 -18 209.5t-60 113.5t-128.5 47.5t-224.5 10.5q-160 0 -250.5 -7t-131.5 -25t-51.5 -52t-10.5 -88h-192q0 108 29.5 174t100.5 100t194.5 46t311.5 12
q202 0 325.5 -26t188 -93.5t87 -188.5t22.5 -312v-554h-192v79q-34 -36 -94 -58t-159.5 -32.5t-254.5 -10.5zM736 134q171 0 273 4t152.5 22t66.5 58t16 112v177l-508 6q-135 2 -217.5 -3.5t-125.5 -24t-57.5 -58t-14.5 -106.5q0 -65 14.5 -103t57.5 -56t125.5 -23t217.5 -5
zM1154 1340l-630 404l118 172l576 -480z" />
    <glyph glyph-name="aacute" unicode="&#xe1;" horiz-adv-x="1560" 
d="M736 -22q-207 0 -341.5 21.5t-200 94.5t-65.5 227q0 157 61.5 230.5t195 95.5t350.5 22q176 0 295 -8t213 -28q-2 133 -18 209.5t-60 113.5t-128.5 47.5t-224.5 10.5q-160 0 -250.5 -7t-131.5 -25t-51.5 -52t-10.5 -88h-192q0 108 29.5 174t100.5 100t194.5 46t311.5 12
q202 0 325.5 -26t188 -93.5t87 -188.5t22.5 -312v-554h-192v79q-34 -36 -94 -58t-159.5 -32.5t-254.5 -10.5zM736 134q171 0 273 4t152.5 22t66.5 58t16 112v177l-508 6q-135 2 -217.5 -3.5t-125.5 -24t-57.5 -58t-14.5 -106.5q0 -65 14.5 -103t57.5 -56t125.5 -23t217.5 -5
zM580 1342l-64 96l576 480l118 -172z" />
    <glyph glyph-name="acircumflex" unicode="&#xe2;" horiz-adv-x="1560" 
d="M736 -22q-207 0 -341.5 21.5t-200 94.5t-65.5 227q0 157 61.5 230.5t195 95.5t350.5 22q176 0 295 -8t213 -28q-2 133 -18 209.5t-60 113.5t-128.5 47.5t-224.5 10.5q-160 0 -250.5 -7t-131.5 -25t-51.5 -52t-10.5 -88h-192q0 108 29.5 174t100.5 100t194.5 46t311.5 12
q202 0 325.5 -26t188 -93.5t87 -188.5t22.5 -312v-554h-192v79q-34 -36 -94 -58t-159.5 -32.5t-254.5 -10.5zM736 134q171 0 273 4t152.5 22t66.5 58t16 112v177l-508 6q-135 2 -217.5 -3.5t-125.5 -24t-57.5 -58t-14.5 -106.5q0 -65 14.5 -103t57.5 -56t125.5 -23t217.5 -5
zM516 1310l-128 96l320 480h192l320 -480l-128 -96l-288 448z" />
    <glyph glyph-name="atilde" unicode="&#xe3;" horiz-adv-x="1560" 
d="M736 -22q-207 0 -341.5 21.5t-200 94.5t-65.5 227q0 157 61.5 230.5t195 95.5t350.5 22q176 0 295 -8t213 -28q-2 133 -18 209.5t-60 113.5t-128.5 47.5t-224.5 10.5q-160 0 -250.5 -7t-131.5 -25t-51.5 -52t-10.5 -88h-192q0 108 29.5 174t100.5 100t194.5 46t311.5 12
q202 0 325.5 -26t188 -93.5t87 -188.5t22.5 -312v-554h-192v79q-34 -36 -94 -58t-159.5 -32.5t-254.5 -10.5zM736 134q171 0 273 4t152.5 22t66.5 58t16 112v177l-508 6q-135 2 -217.5 -3.5t-125.5 -24t-57.5 -58t-14.5 -106.5q0 -65 14.5 -103t57.5 -56t125.5 -23t217.5 -5
zM356 1342q0 124 73.5 190.5t182.5 66.5q104 0 219 -49q33 -14 72 -31t79 -17q48 0 63 18.5t15 77.5h192q0 -133 -92 -202q-72 -54 -164 -54q-105 0 -219 48q-33 14 -72 31t-79 17q-51 0 -64.5 -18.5t-13.5 -77.5h-192z" />
    <glyph glyph-name="adieresis" unicode="&#xe4;" horiz-adv-x="1560" 
d="M736 -22q-207 0 -341.5 21.5t-200 94.5t-65.5 227q0 157 61.5 230.5t195 95.5t350.5 22q176 0 295 -8t213 -28q-2 133 -18 209.5t-60 113.5t-128.5 47.5t-224.5 10.5q-160 0 -250.5 -7t-131.5 -25t-51.5 -52t-10.5 -88h-192q0 108 29.5 174t100.5 100t194.5 46t311.5 12
q202 0 325.5 -26t188 -93.5t87 -188.5t22.5 -312v-554h-192v79q-34 -36 -94 -58t-159.5 -32.5t-254.5 -10.5zM736 134q171 0 273 4t152.5 22t66.5 58t16 112v177l-508 6q-135 2 -217.5 -3.5t-125.5 -24t-57.5 -58t-14.5 -106.5q0 -65 14.5 -103t57.5 -56t125.5 -23t217.5 -5
zM1062 1344v192h192v-192h-192zM354 1344v192h192v-192h-192z" />
    <glyph glyph-name="aring" unicode="&#xe5;" horiz-adv-x="1560" 
d="M736 -22q-207 0 -341.5 21.5t-200 94.5t-65.5 227q0 157 61.5 230.5t195 95.5t350.5 22q176 0 295 -8t213 -28q-2 133 -18 209.5t-60 113.5t-128.5 47.5t-224.5 10.5q-160 0 -250.5 -7t-131.5 -25t-51.5 -52t-10.5 -88h-192q0 108 29.5 174t100.5 100t194.5 46t311.5 12
q202 0 325.5 -26t188 -93.5t87 -188.5t22.5 -312v-554h-192v79q-34 -36 -94 -58t-159.5 -32.5t-254.5 -10.5zM736 134q171 0 273 4t152.5 22t66.5 58t16 112v177l-508 6q-135 2 -217.5 -3.5t-125.5 -24t-57.5 -58t-14.5 -106.5q0 -65 14.5 -103t57.5 -56t125.5 -23t217.5 -5
zM804 1340q-166 0 -259 86t-93 234q0 154 97.5 237t254.5 83q166 0 259 -86t93 -234q0 -154 -97.5 -237t-254.5 -83zM804 1468q109 0 164 70q28 35 28 122q0 96 -45.5 144t-146.5 48q-109 0 -164 -70q-28 -35 -28 -122q0 -96 46 -144t146 -48z" />
    <glyph glyph-name="ae" unicode="&#xe6;" horiz-adv-x="2752" 
d="M762 -36q-114 0 -226 12.5t-204.5 48t-148 104t-55.5 180.5q0 253 176 328q104 45 238 50q132 6 221 6q98 0 204.5 -10.5t192.5 -37t120 -73.5q0 173 -32 279.5t-148 141.5q-73 23 -237 23q-80 0 -142 -2t-106 -6q-103 -10 -167 -49t-64 -152h-192q0 205 140 285
q144 84 502 84q226 0 319 -34q87 -33 138 -77t91 -124q62 138 202 186.5t341 48.5q199 0 297 -19q209 -40 305.5 -165.5t96.5 -385.5l-16 -67h-1136v-28q2 -117 26.5 -200t91.5 -124q70 -43 170.5 -51t219.5 -8q68 0 123.5 2t98.5 6q104 10 167 49.5t63 151.5h192
q0 -202 -140 -285q-145 -84 -468 -84q-142 0 -264 13t-216.5 53t-153.5 120q-101 -139 -398 -180q-40 -5 -95.5 -7.5t-126.5 -2.5zM1472 673h960q0 98 -26 169t-78 107q-95 67 -356 67q-108 0 -205 -8.5t-167.5 -42.5t-101.5 -112q-26 -67 -26 -180zM814 128q121 0 209 7.5
t161 42.5q48 24 72 65.5t24 93.5q0 103 -110 143q-114 42 -400 42q-290 0 -356 -24q-55 -22 -74.5 -54.5t-19.5 -106.5q0 -69 19.5 -110t69.5 -61q50 -21 155 -30q51 -4 114 -6t136 -2z" />
    <glyph glyph-name="ccedilla" unicode="&#xe7;" horiz-adv-x="1571" 
d="M801 -22q-193 0 -328 19.5t-218 80t-121 181.5t-38 323q0 196 38 314t121 178t218 80t328 20q231 0 380.5 -26.5t221.5 -108.5t72 -250h-184q0 97 -40 145t-146 64t-304 16q-178 0 -282 -15t-153 -58.5t-63.5 -129.5t-14.5 -229q0 -148 14.5 -237t63.5 -133.5t153 -59
t282 -14.5q151 0 247 8.5t149 34t73.5 74t20.5 129.5h184q0 -134 -40 -215t-122 -122t-209.5 -55t-302.5 -14zM707 -544v160q46 0 90 5t73 23t29 56q0 47 -53 61.5t-139 14.5v288h128v-192q128 0 192 -43.5t64 -146.5q0 -87 -48.5 -136.5t-135 -69.5t-200.5 -20z" />
    <glyph glyph-name="egrave" unicode="&#xe8;" horiz-adv-x="1567" 
d="M1447 342q0 -129 -38.5 -203t-117.5 -108t-201.5 -43.5t-291.5 -9.5q-193 0 -327.5 19.5t-217 80t-120 181.5t-37.5 323q0 196 36.5 314t118.5 178t215.5 80t326.5 20q221 0 366 -31t216.5 -118t71.5 -255v-247h-1158q1 -128 18 -205t68 -116t152.5 -51.5t270.5 -12.5
q152 0 245.5 6t142 26.5t65.5 61.5t17 110h179zM793 1014q-163 0 -262.5 -12t-151.5 -46.5t-70.5 -102.5t-19.5 -179h974v96q0 72 -16.5 119.5t-64.5 75t-141.5 38.5t-247.5 11zM1134 1340l-630 404l118 172l576 -480z" />
    <glyph glyph-name="eacute" unicode="&#xe9;" horiz-adv-x="1567" 
d="M1447 342q0 -129 -38.5 -203t-117.5 -108t-201.5 -43.5t-291.5 -9.5q-193 0 -327.5 19.5t-217 80t-120 181.5t-37.5 323q0 196 36.5 314t118.5 178t215.5 80t326.5 20q221 0 366 -31t216.5 -118t71.5 -255v-247h-1158q1 -128 18 -205t68 -116t152.5 -51.5t270.5 -12.5
q152 0 245.5 6t142 26.5t65.5 61.5t17 110h179zM793 1014q-163 0 -262.5 -12t-151.5 -46.5t-70.5 -102.5t-19.5 -179h974v96q0 72 -16.5 119.5t-64.5 75t-141.5 38.5t-247.5 11zM560 1342l-64 96l576 480l118 -172z" />
    <glyph glyph-name="ecircumflex" unicode="&#xea;" horiz-adv-x="1567" 
d="M1447 342q0 -129 -38.5 -203t-117.5 -108t-201.5 -43.5t-291.5 -9.5q-193 0 -327.5 19.5t-217 80t-120 181.5t-37.5 323q0 196 36.5 314t118.5 178t215.5 80t326.5 20q221 0 366 -31t216.5 -118t71.5 -255v-247h-1158q1 -128 18 -205t68 -116t152.5 -51.5t270.5 -12.5
q152 0 245.5 6t142 26.5t65.5 61.5t17 110h179zM793 1014q-163 0 -262.5 -12t-151.5 -46.5t-70.5 -102.5t-19.5 -179h974v96q0 72 -16.5 119.5t-64.5 75t-141.5 38.5t-247.5 11zM496 1310l-128 96l320 480h192l320 -480l-128 -96l-288 448z" />
    <glyph glyph-name="edieresis" unicode="&#xeb;" horiz-adv-x="1567" 
d="M1447 342q0 -129 -38.5 -203t-117.5 -108t-201.5 -43.5t-291.5 -9.5q-193 0 -327.5 19.5t-217 80t-120 181.5t-37.5 323q0 196 36.5 314t118.5 178t215.5 80t326.5 20q221 0 366 -31t216.5 -118t71.5 -255v-247h-1158q1 -128 18 -205t68 -116t152.5 -51.5t270.5 -12.5
q152 0 245.5 6t142 26.5t65.5 61.5t17 110h179zM793 1014q-163 0 -262.5 -12t-151.5 -46.5t-70.5 -102.5t-19.5 -179h974v96q0 72 -16.5 119.5t-64.5 75t-141.5 38.5t-247.5 11zM1042 1344v192h192v-192h-192zM334 1344v192h192v-192h-192z" />
    <glyph glyph-name="igrave" unicode="&#xec;" horiz-adv-x="448" 
d="M128 0v1088h192v-1088h-192zM574 1340l-630 404l118 172l576 -480z" />
    <glyph glyph-name="iacute" unicode="&#xed;" horiz-adv-x="448" 
d="M128 0v1088h192v-1088h-192zM0 1342l-64 96l576 480l118 -172z" />
    <glyph glyph-name="icircumflex" unicode="&#xee;" horiz-adv-x="448" 
d="M128 0v1088h192v-1088h-192zM-64 1310l-128 96l320 480h192l320 -480l-128 -96l-288 448z" />
    <glyph glyph-name="idieresis" unicode="&#xef;" horiz-adv-x="448" 
d="M128 0v1088h192v-1088h-192zM482 1344v192h192v-192h-192zM-226 1344v192h192v-192h-192z" />
    <glyph glyph-name="eth" unicode="&#xf0;" horiz-adv-x="1984" 
d="M831 -32q-412 0 -567 120q-74 58 -105 145.5t-31 214.5q0 118 29 210q35 109 129 167.5t226.5 80.5t281.5 22h161.5t127.5 -2q447 -11 581 -94q0 189 -33 304l-307 -110l-43 120l298 107q-40 59 -92 87.5t-136 47.5q-91 20 -327 20q-305 0 -458 -39q-74 -19 -118 -45
q-51 -31 -73.5 -73t-22.5 -131h-159q0 156 59 244q62 92 180 135t268 56t306 13q160 0 272 -15q327 -43 461 -242l265 95l43 -120l-251 -90q60 -159 60 -428q0 -68 -1 -130t-3 -118q-5 -167 -50 -286.5t-154 -179.5q-154 -86 -496 -86h-321zM831 128h321q132 0 238.5 10.5
t175.5 61.5q62 46 80 124t18 190q0 122 -51 168q-39 36 -99.5 50.5t-137.5 21.5q-107 11 -240 12.5t-260 1.5h-55q-101 0 -173 -3.5t-148 -22.5q-58 -14 -93 -38t-61 -72q-26 -46 -26 -184q0 -102 17.5 -160t62 -89t124.5 -51q83 -20 307 -20z" />
    <glyph glyph-name="ntilde" unicode="&#xf1;" 
d="M132 0v1152h192v-153q43 58 106.5 97t170 58.5t279.5 19.5q226 0 356.5 -44t185.5 -157t55 -320v-653h-193v653q0 118 -20 190t-68.5 109t-133.5 49.5t-216 12.5q-200 0 -314 -33t-161 -103.5t-47 -183.5v-694h-192zM353 1342q0 124 73.5 190.5t182.5 66.5q104 0 219 -49
q33 -14 72 -31t79 -17q48 0 63 18.5t15 77.5h192q0 -133 -92 -202q-72 -54 -164 -54q-105 0 -219 48q-33 14 -72 31t-79 17q-51 0 -64.5 -18.5t-13.5 -77.5h-192z" />
    <glyph glyph-name="ograve" unicode="&#xf2;" horiz-adv-x="1602" 
d="M801 -22q-193 0 -328 19.5t-218 80t-121 181.5t-38 323q0 196 38 314t121 178t218 80t328 20q194 0 328.5 -20t217.5 -80t121 -178t38 -314q0 -202 -38 -323t-121 -181.5t-217.5 -80t-328.5 -19.5zM1314 582q0 143 -14.5 229t-63.5 129.5t-152.5 58.5t-282.5 15
q-178 0 -282 -15t-153 -58.5t-63.5 -129.5t-14.5 -229q0 -148 14.5 -237t63.5 -133.5t153 -59t282 -14.5q179 0 282.5 14.5t152.5 59t63.5 133.5t14.5 237zM1151 1340l-630 404l118 172l576 -480z" />
    <glyph glyph-name="oacute" unicode="&#xf3;" horiz-adv-x="1602" 
d="M801 -22q-193 0 -328 19.5t-218 80t-121 181.5t-38 323q0 196 38 314t121 178t218 80t328 20q194 0 328.5 -20t217.5 -80t121 -178t38 -314q0 -202 -38 -323t-121 -181.5t-217.5 -80t-328.5 -19.5zM1314 582q0 143 -14.5 229t-63.5 129.5t-152.5 58.5t-282.5 15
q-178 0 -282 -15t-153 -58.5t-63.5 -129.5t-14.5 -229q0 -148 14.5 -237t63.5 -133.5t153 -59t282 -14.5q179 0 282.5 14.5t152.5 59t63.5 133.5t14.5 237zM577 1342l-64 96l576 480l118 -172z" />
    <glyph glyph-name="ocircumflex" unicode="&#xf4;" horiz-adv-x="1602" 
d="M801 -22q-193 0 -328 19.5t-218 80t-121 181.5t-38 323q0 196 38 314t121 178t218 80t328 20q194 0 328.5 -20t217.5 -80t121 -178t38 -314q0 -202 -38 -323t-121 -181.5t-217.5 -80t-328.5 -19.5zM1314 582q0 143 -14.5 229t-63.5 129.5t-152.5 58.5t-282.5 15
q-178 0 -282 -15t-153 -58.5t-63.5 -129.5t-14.5 -229q0 -148 14.5 -237t63.5 -133.5t153 -59t282 -14.5q179 0 282.5 14.5t152.5 59t63.5 133.5t14.5 237zM513 1310l-128 96l320 480h192l320 -480l-128 -96l-288 448z" />
    <glyph glyph-name="otilde" unicode="&#xf5;" horiz-adv-x="1602" 
d="M801 -22q-193 0 -328 19.5t-218 80t-121 181.5t-38 323q0 196 38 314t121 178t218 80t328 20q194 0 328.5 -20t217.5 -80t121 -178t38 -314q0 -202 -38 -323t-121 -181.5t-217.5 -80t-328.5 -19.5zM1314 582q0 143 -14.5 229t-63.5 129.5t-152.5 58.5t-282.5 15
q-178 0 -282 -15t-153 -58.5t-63.5 -129.5t-14.5 -229q0 -148 14.5 -237t63.5 -133.5t153 -59t282 -14.5q179 0 282.5 14.5t152.5 59t63.5 133.5t14.5 237zM353 1342q0 124 73.5 190.5t182.5 66.5q104 0 219 -49q33 -14 72 -31t79 -17q48 0 63 18.5t15 77.5h192
q0 -133 -92 -202q-72 -54 -164 -54q-105 0 -219 48q-33 14 -72 31t-79 17q-51 0 -64.5 -18.5t-13.5 -77.5h-192z" />
    <glyph glyph-name="odieresis" unicode="&#xf6;" horiz-adv-x="1602" 
d="M801 -22q-193 0 -328 19.5t-218 80t-121 181.5t-38 323q0 196 38 314t121 178t218 80t328 20q194 0 328.5 -20t217.5 -80t121 -178t38 -314q0 -202 -38 -323t-121 -181.5t-217.5 -80t-328.5 -19.5zM1314 582q0 143 -14.5 229t-63.5 129.5t-152.5 58.5t-282.5 15
q-178 0 -282 -15t-153 -58.5t-63.5 -129.5t-14.5 -229q0 -148 14.5 -237t63.5 -133.5t153 -59t282 -14.5q179 0 282.5 14.5t152.5 59t63.5 133.5t14.5 237zM1059 1344v192h192v-192h-192zM351 1344v192h192v-192h-192z" />
    <glyph glyph-name="divide" unicode="&#xf7;" horiz-adv-x="1400" 
d="M604 982v192h192v-192h-192zM188 633v160h1024v-160h-1024zM604 253v192h192v-192h-192z" />
    <glyph glyph-name="oslash" unicode="&#xf8;" horiz-adv-x="1602" 
d="M515 -233l-117 43l84 185q-139 21 -224 81t-123.5 181t-38.5 325q0 196 38 314t121 178t218 80t328 20q59 0 112 -1.5t101 -4.5l102 224l117 -43l-89 -197q130 -23 209.5 -83.5t116 -177.5t36.5 -309q0 -202 -38 -323t-121 -181.5t-217.5 -80t-328.5 -19.5q-51 0 -98 1
t-90 3zM288 582q0 -156 15.5 -246t71.5 -132.5t176 -55.5l392 864q-31 1 -67 1.5t-75 0.5q-178 0 -282 -15t-153 -58.5t-63.5 -129.5t-14.5 -229zM1314 582q0 144 -14.5 230t-65 129.5t-159.5 59.5l-391 -862q50 -1 117 -1q179 0 282.5 14.5t152.5 59t63.5 133.5t14.5 237z
" />
    <glyph glyph-name="ugrave" unicode="&#xf9;" 
d="M720 -22q-226 0 -356 49.5t-185 166t-55 318.5v640h193v-640q0 -114 18.5 -187.5t65.5 -114t132.5 -56.5t220.5 -16q200 0 314 33t161.5 103.5t47.5 183.5v694h192v-1152h-192v153q-42 -58 -106 -97t-171 -58.5t-280 -19.5zM1151 1340l-630 404l118 172l576 -480z" />
    <glyph glyph-name="uacute" unicode="&#xfa;" 
d="M720 -22q-226 0 -356 49.5t-185 166t-55 318.5v640h193v-640q0 -114 18.5 -187.5t65.5 -114t132.5 -56.5t220.5 -16q200 0 314 33t161.5 103.5t47.5 183.5v694h192v-1152h-192v153q-42 -58 -106 -97t-171 -58.5t-280 -19.5zM577 1342l-64 96l576 480l118 -172z" />
    <glyph glyph-name="ucircumflex" unicode="&#xfb;" 
d="M720 -22q-226 0 -356 49.5t-185 166t-55 318.5v640h193v-640q0 -114 18.5 -187.5t65.5 -114t132.5 -56.5t220.5 -16q200 0 314 33t161.5 103.5t47.5 183.5v694h192v-1152h-192v153q-42 -58 -106 -97t-171 -58.5t-280 -19.5zM513 1310l-128 96l320 480h192l320 -480
l-128 -96l-288 448z" />
    <glyph glyph-name="udieresis" unicode="&#xfc;" 
d="M720 -22q-226 0 -356 49.5t-185 166t-55 318.5v640h193v-640q0 -114 18.5 -187.5t65.5 -114t132.5 -56.5t220.5 -16q200 0 314 33t161.5 103.5t47.5 183.5v694h192v-1152h-192v153q-42 -58 -106 -97t-171 -58.5t-280 -19.5zM1059 1344v192h192v-192h-192zM351 1344v192
h192v-192h-192z" />
    <glyph glyph-name="yacute" unicode="&#xfd;" horiz-adv-x="1568" 
d="M308 -384v160q103 0 170.5 4.5t113 25t82 66.5t76.5 128h-64l-640 1152h220l548 -1009l461 1009h225l-584 -1216q-39 -81 -80.5 -141t-104 -100t-163.5 -59.5t-260 -19.5zM560 1342l-64 96l576 480l118 -172z" />
    <glyph glyph-name="thorn" unicode="&#xfe;" horiz-adv-x="1600" 
d="M128 -384v1920h192v-575q38 66 125.5 100.5t203.5 46.5t237 12q139 0 272 -27q203 -40 290.5 -172t87.5 -377q0 -161 -36 -274t-124 -182q-80 -63 -214.5 -91.5t-275.5 -28.5q-69 0 -120 1.5t-84 5.5q-295 32 -362 153v-512h-192zM786 128h114q164 0 264 30
q62 19 95.5 48.5t58.5 88.5q26 63 26 249q0 188 -32 264q-31 74 -102 105.5t-167 39t-203 7.5q-52 0 -96.5 -1t-82.5 -3q-227 -12 -293 -132q-48 -87 -48 -277q0 -191 48 -281q35 -64 95.5 -93.5t142.5 -37t180 -7.5z" />
    <glyph glyph-name="ydieresis" unicode="&#xff;" horiz-adv-x="1568" 
d="M308 -384v160q103 0 170.5 4.5t113 25t82 66.5t76.5 128h-64l-640 1152h220l548 -1009l461 1009h225l-584 -1216q-39 -81 -80.5 -141t-104 -100t-163.5 -59.5t-260 -19.5zM1042 1344v192h192v-192h-192zM334 1344v192h192v-192h-192z" />
    <glyph glyph-name="Amacron" unicode="&#x100;" horiz-adv-x="2176" 
d="M64 0l896 1536h256l896 -1536h-224l-192 352h-1216l-192 -352h-224zM576 512h1024l-512 896zM704 1689v160h768v-160h-768z" />
    <glyph glyph-name="amacron" unicode="&#x101;" horiz-adv-x="1560" 
d="M736 -22q-207 0 -341.5 21.5t-200 94.5t-65.5 227q0 157 61.5 230.5t195 95.5t350.5 22q176 0 295 -8t213 -28q-2 133 -18 209.5t-60 113.5t-128.5 47.5t-224.5 10.5q-160 0 -250.5 -7t-131.5 -25t-51.5 -52t-10.5 -88h-192q0 108 29.5 174t100.5 100t194.5 46t311.5 12
q202 0 325.5 -26t188 -93.5t87 -188.5t22.5 -312v-554h-192v79q-34 -36 -94 -58t-159.5 -32.5t-254.5 -10.5zM736 134q171 0 273 4t152.5 22t66.5 58t16 112v177l-508 6q-135 2 -217.5 -3.5t-125.5 -24t-57.5 -58t-14.5 -106.5q0 -65 14.5 -103t57.5 -56t125.5 -23t217.5 -5
zM420 1305v160h768v-160h-768z" />
    <glyph glyph-name="Abreve" unicode="&#x102;" horiz-adv-x="2176" 
d="M64 0l896 1536h256l896 -1536h-224l-192 352h-1216l-192 -352h-224zM576 512h1024l-512 896zM1088 1691q-121 0 -207 34t-131.5 118.5t-45.5 237.5h160q0 -189 69 -231q35 -21 155 -21t160 24q64 39 64 228h160q0 -153 -45.5 -237.5t-131 -118.5t-207.5 -34z" />
    <glyph glyph-name="abreve" unicode="&#x103;" horiz-adv-x="1560" 
d="M736 -22q-207 0 -341.5 21.5t-200 94.5t-65.5 227q0 157 61.5 230.5t195 95.5t350.5 22q176 0 295 -8t213 -28q-2 133 -18 209.5t-60 113.5t-128.5 47.5t-224.5 10.5q-160 0 -250.5 -7t-131.5 -25t-51.5 -52t-10.5 -88h-192q0 108 29.5 174t100.5 100t194.5 46t311.5 12
q202 0 325.5 -26t188 -93.5t87 -188.5t22.5 -312v-554h-192v79q-34 -36 -94 -58t-159.5 -32.5t-254.5 -10.5zM736 134q171 0 273 4t152.5 22t66.5 58t16 112v177l-508 6q-135 2 -217.5 -3.5t-125.5 -24t-57.5 -58t-14.5 -106.5q0 -65 14.5 -103t57.5 -56t125.5 -23t217.5 -5
zM804 1307q-121 0 -207 34t-131.5 118.5t-45.5 237.5h160q0 -189 69 -231q35 -21 155 -21t160 24q64 39 64 228h160q0 -153 -45.5 -237.5t-131 -118.5t-207.5 -34z" />
    <glyph glyph-name="Aogonek" unicode="&#x104;" horiz-adv-x="2176" 
d="M64 0l896 1536h256l896 -1536h-224l-192 352h-1216l-192 -352h-224zM576 512h1024l-512 896zM2082 -555q-259 0 -351 135q-33 50 -33 103t10.5 85.5t29.5 63.5q68 108 216 189h128q-192 -127 -192 -288q0 -79 53.5 -103.5t138.5 -24.5v-160z" />
    <glyph glyph-name="aogonek" unicode="&#x105;" horiz-adv-x="1560" 
d="M736 -22q-207 0 -341.5 21.5t-200 94.5t-65.5 227q0 157 61.5 230.5t195 95.5t350.5 22q176 0 295 -8t213 -28q-2 133 -18 209.5t-60 113.5t-128.5 47.5t-224.5 10.5q-160 0 -250.5 -7t-131.5 -25t-51.5 -52t-10.5 -88h-192q0 108 29.5 174t100.5 100t194.5 46t311.5 12
q202 0 325.5 -26t188 -93.5t87 -188.5t22.5 -312v-554h-192v79q-34 -36 -94 -58t-159.5 -32.5t-254.5 -10.5zM736 134q171 0 273 4t152.5 22t66.5 58t16 112v177l-508 6q-135 2 -217.5 -3.5t-125.5 -24t-57.5 -58t-14.5 -106.5q0 -65 14.5 -103t57.5 -56t125.5 -23t217.5 -5
zM1413 -556q-259 0 -351 135q-33 50 -33 103t10.5 85.5t29.5 63.5q68 108 216 189h128q-192 -127 -192 -288q0 -79 53.5 -103.5t138.5 -24.5v-160z" />
    <glyph glyph-name="Cacute" unicode="&#x106;" horiz-adv-x="2145" 
d="M128 748v40q0 204 20 342.5t69 225.5t133.5 133t212.5 62.5t308 16.5h403q206 0 347.5 -19.5t228 -77t125.5 -169t39 -295.5h-192q0 145 -26 225.5t-87.5 116.5t-167.5 44.5t-267 8.5h-403q-143 0 -241 -8.5t-159.5 -39t-94 -96.5t-44.5 -180t-12 -290v-40
q0 -170 12 -282t44.5 -179t94 -100t159.5 -43t241 -10h403q161 0 267 7t167.5 41t87.5 113.5t26 223.5h192q0 -184 -39 -294t-125.5 -165.5t-228 -73.5t-347.5 -18h-403q-225 0 -370 30.5t-226.5 112.5t-114 236t-32.5 401zM839 1726l-64 96l576 480l118 -172z" />
    <glyph glyph-name="cacute" unicode="&#x107;" horiz-adv-x="1571" 
d="M801 -22q-193 0 -328 19.5t-218 80t-121 181.5t-38 323q0 196 38 314t121 178t218 80t328 20q231 0 380.5 -26.5t221.5 -108.5t72 -250h-184q0 97 -40 145t-146 64t-304 16q-178 0 -282 -15t-153 -58.5t-63.5 -129.5t-14.5 -229q0 -148 14.5 -237t63.5 -133.5t153 -59
t282 -14.5q151 0 247 8.5t149 34t73.5 74t20.5 129.5h184q0 -134 -40 -215t-122 -122t-209.5 -55t-302.5 -14zM562 1342l-64 96l576 480l118 -172z" />
    <glyph glyph-name="Ccircumflex" unicode="&#x108;" horiz-adv-x="2145" 
d="M128 748v40q0 204 20 342.5t69 225.5t133.5 133t212.5 62.5t308 16.5h403q206 0 347.5 -19.5t228 -77t125.5 -169t39 -295.5h-192q0 145 -26 225.5t-87.5 116.5t-167.5 44.5t-267 8.5h-403q-143 0 -241 -8.5t-159.5 -39t-94 -96.5t-44.5 -180t-12 -290v-40
q0 -170 12 -282t44.5 -179t94 -100t159.5 -43t241 -10h403q161 0 267 7t167.5 41t87.5 113.5t26 223.5h192q0 -184 -39 -294t-125.5 -165.5t-228 -73.5t-347.5 -18h-403q-225 0 -370 30.5t-226.5 112.5t-114 236t-32.5 401zM775 1694l-128 96l320 480h192l320 -480l-128 -96
l-288 448z" />
    <glyph glyph-name="ccircumflex" unicode="&#x109;" horiz-adv-x="1571" 
d="M801 -22q-193 0 -328 19.5t-218 80t-121 181.5t-38 323q0 196 38 314t121 178t218 80t328 20q231 0 380.5 -26.5t221.5 -108.5t72 -250h-184q0 97 -40 145t-146 64t-304 16q-178 0 -282 -15t-153 -58.5t-63.5 -129.5t-14.5 -229q0 -148 14.5 -237t63.5 -133.5t153 -59
t282 -14.5q151 0 247 8.5t149 34t73.5 74t20.5 129.5h184q0 -134 -40 -215t-122 -122t-209.5 -55t-302.5 -14zM498 1310l-128 96l320 480h192l320 -480l-128 -96l-288 448z" />
    <glyph glyph-name="Cdotaccent" unicode="&#x10a;" horiz-adv-x="2145" 
d="M128 748v40q0 204 20 342.5t69 225.5t133.5 133t212.5 62.5t308 16.5h403q206 0 347.5 -19.5t228 -77t125.5 -169t39 -295.5h-192q0 145 -26 225.5t-87.5 116.5t-167.5 44.5t-267 8.5h-403q-143 0 -241 -8.5t-159.5 -39t-94 -96.5t-44.5 -180t-12 -290v-40
q0 -170 12 -282t44.5 -179t94 -100t159.5 -43t241 -10h403q161 0 267 7t167.5 41t87.5 113.5t26 223.5h192q0 -184 -39 -294t-125.5 -165.5t-228 -73.5t-347.5 -18h-403q-225 0 -370 30.5t-226.5 112.5t-114 236t-32.5 401zM967 1728v192h192v-192h-192z" />
    <glyph glyph-name="cdotaccent" unicode="&#x10b;" horiz-adv-x="1571" 
d="M801 -22q-193 0 -328 19.5t-218 80t-121 181.5t-38 323q0 196 38 314t121 178t218 80t328 20q231 0 380.5 -26.5t221.5 -108.5t72 -250h-184q0 97 -40 145t-146 64t-304 16q-178 0 -282 -15t-153 -58.5t-63.5 -129.5t-14.5 -229q0 -148 14.5 -237t63.5 -133.5t153 -59
t282 -14.5q151 0 247 8.5t149 34t73.5 74t20.5 129.5h184q0 -134 -40 -215t-122 -122t-209.5 -55t-302.5 -14zM690 1344v192h192v-192h-192z" />
    <glyph glyph-name="Ccaron" unicode="&#x10c;" horiz-adv-x="2145" 
d="M128 748v40q0 204 20 342.5t69 225.5t133.5 133t212.5 62.5t308 16.5h403q206 0 347.5 -19.5t228 -77t125.5 -169t39 -295.5h-192q0 145 -26 225.5t-87.5 116.5t-167.5 44.5t-267 8.5h-403q-143 0 -241 -8.5t-159.5 -39t-94 -96.5t-44.5 -180t-12 -290v-40
q0 -170 12 -282t44.5 -179t94 -100t159.5 -43t241 -10h403q161 0 267 7t167.5 41t87.5 113.5t26 223.5h192q0 -184 -39 -294t-125.5 -165.5t-228 -73.5t-347.5 -18h-403q-225 0 -370 30.5t-226.5 112.5t-114 236t-32.5 401zM967 1700l-320 480l128 96l288 -448l288 448
l128 -96l-320 -480h-192z" />
    <glyph glyph-name="ccaron" unicode="&#x10d;" horiz-adv-x="1571" 
d="M801 -22q-193 0 -328 19.5t-218 80t-121 181.5t-38 323q0 196 38 314t121 178t218 80t328 20q231 0 380.5 -26.5t221.5 -108.5t72 -250h-184q0 97 -40 145t-146 64t-304 16q-178 0 -282 -15t-153 -58.5t-63.5 -129.5t-14.5 -229q0 -148 14.5 -237t63.5 -133.5t153 -59
t282 -14.5q151 0 247 8.5t149 34t73.5 74t20.5 129.5h184q0 -134 -40 -215t-122 -122t-209.5 -55t-302.5 -14zM690 1316l-320 480l128 96l288 -448l288 448l128 -96l-320 -480h-192z" />
    <glyph glyph-name="Dcaron" unicode="&#x10e;" horiz-adv-x="2207" 
d="M196 0v1536h1140q225 0 370 -27t226.5 -104.5t114 -225.5t32.5 -391v-40q0 -235 -32.5 -382.5t-114 -227t-226.5 -109t-370 -29.5h-1140zM388 166h948q179 0 288 17t166 74t77 174t20 317v40q0 166 -12 274t-44.5 170.5t-94 92t-159.5 37.5t-241 8h-948v-1204zM1020 1700
l-320 480l128 96l288 -448l288 448l128 -96l-320 -480h-192z" />
    <glyph glyph-name="dcaron" unicode="&#x10f;" horiz-adv-x="1638" 
d="M801 -22q-193 0 -328 19.5t-218 80t-121 181.5t-38 323q0 196 38 314t121 178t218 80t328 20q185 0 312.5 -28t200.5 -125v515h192v-1536h-192v132q-73 -98 -200.5 -126t-312.5 -28zM1314 582q0 143 -20 229t-74 129.5t-155 58.5t-264 15q-178 0 -282 -15t-153 -58.5
t-63.5 -129.5t-14.5 -229q0 -148 14.5 -237t63.5 -133.5t153 -59t282 -14.5q163 0 264 14.5t155 59t74 133.5t20 237zM1687 1152l64 384h192l-128 -384h-128z" />
    <glyph glyph-name="Dcroat" unicode="&#x110;" horiz-adv-x="2112" 
d="M128 0v704h-128v160h128v672h1151q340 0 495 -83q81 -44 122 -105q64 -94 76 -232t12 -296v-52q0 -65 -1 -124.5t-3 -113.5q-5 -163 -50.5 -275.5t-155.5 -171.5q-155 -83 -495 -83h-1151zM320 160h959q266 0 360 36q62 23 91 65.5t45 116.5q17 82 17 390t-20 402
q-16 75 -48.5 113.5t-103.5 64.5q-74 28 -341 28h-959v-512h448v-160h-448v-544z" />
    <glyph glyph-name="dcroat" unicode="&#x111;" horiz-adv-x="1664" 
d="M832 -32q-169 0 -304 23t-227.5 87t-134.5 187q-38 112 -38 279q0 245 88 377t290 172q134 27 272 27q122 0 237.5 -12.5t203.5 -46.5t125 -101v289h-448v160h448v127h192v-127h128v-160h-128v-1249h-192v127q-88 -159 -512 -159zM824 128h2q107 0 199.5 5.5t163 34
t107.5 96.5q48 87 48 277q0 172 -40.5 268.5t-168.5 128.5q-87 22 -252 22q-164 0 -245 -6q-104 -8 -179 -38.5t-107 -107.5q-32 -76 -32 -264q0 -186 26 -249q26 -62 62 -91q67 -54 179.5 -65t236.5 -11z" />
    <glyph glyph-name="Emacron" unicode="&#x112;" horiz-adv-x="1792" 
d="M192 0v1536h1508v-160h-1316v-512h1261v-160h-1261v-544h1344v-160h-1536zM572 1689v160h768v-160h-768z" />
    <glyph glyph-name="emacron" unicode="&#x113;" horiz-adv-x="1567" 
d="M1447 342q0 -129 -38.5 -203t-117.5 -108t-201.5 -43.5t-291.5 -9.5q-193 0 -327.5 19.5t-217 80t-120 181.5t-37.5 323q0 196 36.5 314t118.5 178t215.5 80t326.5 20q221 0 366 -31t216.5 -118t71.5 -255v-247h-1158q1 -128 18 -205t68 -116t152.5 -51.5t270.5 -12.5
q152 0 245.5 6t142 26.5t65.5 61.5t17 110h179zM793 1014q-163 0 -262.5 -12t-151.5 -46.5t-70.5 -102.5t-19.5 -179h974v96q0 72 -16.5 119.5t-64.5 75t-141.5 38.5t-247.5 11zM400 1305v160h768v-160h-768z" />
    <glyph glyph-name="Ebreve" unicode="&#x114;" horiz-adv-x="1792" 
d="M192 0v1536h1508v-160h-1316v-512h1261v-160h-1261v-544h1344v-160h-1536zM956 1691q-121 0 -207 34t-131.5 118.5t-45.5 237.5h160q0 -189 69 -231q35 -21 155 -21t160 24q64 39 64 228h160q0 -153 -45.5 -237.5t-131 -118.5t-207.5 -34z" />
    <glyph glyph-name="ebreve" unicode="&#x115;" horiz-adv-x="1567" 
d="M1447 342q0 -129 -38.5 -203t-117.5 -108t-201.5 -43.5t-291.5 -9.5q-193 0 -327.5 19.5t-217 80t-120 181.5t-37.5 323q0 196 36.5 314t118.5 178t215.5 80t326.5 20q221 0 366 -31t216.5 -118t71.5 -255v-247h-1158q1 -128 18 -205t68 -116t152.5 -51.5t270.5 -12.5
q152 0 245.5 6t142 26.5t65.5 61.5t17 110h179zM793 1014q-163 0 -262.5 -12t-151.5 -46.5t-70.5 -102.5t-19.5 -179h974v96q0 72 -16.5 119.5t-64.5 75t-141.5 38.5t-247.5 11zM784 1307q-121 0 -207 34t-131.5 118.5t-45.5 237.5h160q0 -189 69 -231q35 -21 155 -21
t160 24q64 39 64 228h160q0 -153 -45.5 -237.5t-131 -118.5t-207.5 -34z" />
    <glyph glyph-name="Edotaccent" unicode="&#x116;" horiz-adv-x="1792" 
d="M192 0v1536h1508v-160h-1316v-512h1261v-160h-1261v-544h1344v-160h-1536zM860 1728v192h192v-192h-192z" />
    <glyph glyph-name="edotaccent" unicode="&#x117;" horiz-adv-x="1567" 
d="M1447 342q0 -129 -38.5 -203t-117.5 -108t-201.5 -43.5t-291.5 -9.5q-193 0 -327.5 19.5t-217 80t-120 181.5t-37.5 323q0 196 36.5 314t118.5 178t215.5 80t326.5 20q221 0 366 -31t216.5 -118t71.5 -255v-247h-1158q1 -128 18 -205t68 -116t152.5 -51.5t270.5 -12.5
q152 0 245.5 6t142 26.5t65.5 61.5t17 110h179zM793 1014q-163 0 -262.5 -12t-151.5 -46.5t-70.5 -102.5t-19.5 -179h974v96q0 72 -16.5 119.5t-64.5 75t-141.5 38.5t-247.5 11zM688 1344v192h192v-192h-192z" />
    <glyph glyph-name="Eogonek" unicode="&#x118;" horiz-adv-x="1792" 
d="M192 0v1536h1508v-160h-1316v-512h1261v-160h-1261v-544h1344v-160h-1536zM1714 -555q-259 0 -351 135q-33 50 -33 103t10.5 85.5t29.5 63.5q68 108 216 189h128q-192 -127 -192 -288q0 -79 53.5 -103.5t138.5 -24.5v-160z" />
    <glyph glyph-name="eogonek" unicode="&#x119;" horiz-adv-x="1567" 
d="M1447 342q0 -129 -38.5 -203t-117.5 -108t-201.5 -43.5t-291.5 -9.5q-193 0 -327.5 19.5t-217 80t-120 181.5t-37.5 323q0 196 36.5 314t118.5 178t215.5 80t326.5 20q221 0 366 -31t216.5 -118t71.5 -255v-247h-1158q1 -128 18 -205t68 -116t152.5 -51.5t270.5 -12.5
q152 0 245.5 6t142 26.5t65.5 61.5t17 110h179zM793 1014q-163 0 -262.5 -12t-151.5 -46.5t-70.5 -102.5t-19.5 -179h974v96q0 72 -16.5 119.5t-64.5 75t-141.5 38.5t-247.5 11zM1063 -556q-259 0 -351 135q-33 50 -33 103t10.5 85.5t29.5 63.5q68 108 216 189h128
q-192 -127 -192 -288q0 -79 53.5 -103.5t138.5 -24.5v-160z" />
    <glyph glyph-name="Ecaron" unicode="&#x11a;" horiz-adv-x="1792" 
d="M192 0v1536h1508v-160h-1316v-512h1261v-160h-1261v-544h1344v-160h-1536zM860 1700l-320 480l128 96l288 -448l288 448l128 -96l-320 -480h-192z" />
    <glyph glyph-name="ecaron" unicode="&#x11b;" horiz-adv-x="1567" 
d="M1447 342q0 -129 -38.5 -203t-117.5 -108t-201.5 -43.5t-291.5 -9.5q-193 0 -327.5 19.5t-217 80t-120 181.5t-37.5 323q0 196 36.5 314t118.5 178t215.5 80t326.5 20q221 0 366 -31t216.5 -118t71.5 -255v-247h-1158q1 -128 18 -205t68 -116t152.5 -51.5t270.5 -12.5
q152 0 245.5 6t142 26.5t65.5 61.5t17 110h179zM793 1014q-163 0 -262.5 -12t-151.5 -46.5t-70.5 -102.5t-19.5 -179h974v96q0 72 -16.5 119.5t-64.5 75t-141.5 38.5t-247.5 11zM688 1316l-320 480l128 96l288 -448l288 448l128 -96l-320 -480h-192z" />
    <glyph glyph-name="Gcircumflex" unicode="&#x11c;" horiz-adv-x="2177" 
d="M128 748v40q0 204 20 342.5t69 225.5t133.5 133t212.5 62.5t308 16.5h376q236 0 383.5 -18t227 -69t109.5 -148.5t30 -255.5h-192q0 119 -21 185.5t-79 96t-168.5 36.5t-289.5 7h-376q-143 0 -241 -8.5t-159.5 -39t-94 -96.5t-44.5 -180t-12 -290v-40q0 -170 12 -282
t44.5 -179t94 -100t159.5 -43t241 -10h443q165 0 266 13.5t153.5 58t70.5 136t18 247.5v59h-735v160h927v-219q0 -195 -33 -317t-111.5 -188.5t-214 -91t-341.5 -24.5h-443q-225 0 -370 30.5t-226.5 112.5t-114 236t-32.5 401zM801 1694l-128 96l320 480h192l320 -480
l-128 -96l-288 448z" />
    <glyph glyph-name="gcircumflex" unicode="&#x11d;" horiz-adv-x="1612" 
d="M835 -439q-153 0 -278.5 7.5t-215.5 36t-139 90t-49 168.5h192q0 -70 54.5 -100t163.5 -36t272 -6q121 0 207 7.5t140.5 43.5t80 120.5t25.5 237.5v27q-70 -90 -192.5 -119t-303.5 -29q-187 0 -319 21.5t-214.5 81.5t-120.5 174t-38 298q0 196 38 314t120.5 177.5
t214.5 79t319 19.5q181 0 303.5 -26.5t192.5 -117.5v122h192v-1030q-4 -190 -48 -302.5t-125.5 -168t-200 -73t-271.5 -17.5zM1288 584q0 143 -17.5 228.5t-68 129t-149 58t-261.5 14.5q-172 0 -272.5 -14.5t-149.5 -58t-63.5 -129t-14.5 -228.5q0 -130 14.5 -212t63 -126
t149.5 -60.5t273 -16.5q163 0 261.5 16.5t149 60.5t68 126t17.5 212zM518 1310l-128 96l320 480h192l320 -480l-128 -96l-288 448z" />
    <glyph glyph-name="Gbreve" unicode="&#x11e;" horiz-adv-x="2177" 
d="M128 748v40q0 204 20 342.5t69 225.5t133.5 133t212.5 62.5t308 16.5h376q236 0 383.5 -18t227 -69t109.5 -148.5t30 -255.5h-192q0 119 -21 185.5t-79 96t-168.5 36.5t-289.5 7h-376q-143 0 -241 -8.5t-159.5 -39t-94 -96.5t-44.5 -180t-12 -290v-40q0 -170 12 -282
t44.5 -179t94 -100t159.5 -43t241 -10h443q165 0 266 13.5t153.5 58t70.5 136t18 247.5v59h-735v160h927v-219q0 -195 -33 -317t-111.5 -188.5t-214 -91t-341.5 -24.5h-443q-225 0 -370 30.5t-226.5 112.5t-114 236t-32.5 401zM1089 1691q-121 0 -207 34t-131.5 118.5
t-45.5 237.5h160q0 -189 69 -231q35 -21 155 -21t160 24q64 39 64 228h160q0 -153 -45.5 -237.5t-131 -118.5t-207.5 -34z" />
    <glyph glyph-name="gbreve" unicode="&#x11f;" horiz-adv-x="1612" 
d="M835 -439q-153 0 -278.5 7.5t-215.5 36t-139 90t-49 168.5h192q0 -70 54.5 -100t163.5 -36t272 -6q121 0 207 7.5t140.5 43.5t80 120.5t25.5 237.5v27q-70 -90 -192.5 -119t-303.5 -29q-187 0 -319 21.5t-214.5 81.5t-120.5 174t-38 298q0 196 38 314t120.5 177.5
t214.5 79t319 19.5q181 0 303.5 -26.5t192.5 -117.5v122h192v-1030q-4 -190 -48 -302.5t-125.5 -168t-200 -73t-271.5 -17.5zM1288 584q0 143 -17.5 228.5t-68 129t-149 58t-261.5 14.5q-172 0 -272.5 -14.5t-149.5 -58t-63.5 -129t-14.5 -228.5q0 -130 14.5 -212t63 -126
t149.5 -60.5t273 -16.5q163 0 261.5 16.5t149 60.5t68 126t17.5 212zM806 1307q-121 0 -207 34t-131.5 118.5t-45.5 237.5h160q0 -189 69 -231q35 -21 155 -21t160 24q64 39 64 228h160q0 -153 -45.5 -237.5t-131 -118.5t-207.5 -34z" />
    <glyph glyph-name="Gdotaccent" unicode="&#x120;" horiz-adv-x="2177" 
d="M128 748v40q0 204 20 342.5t69 225.5t133.5 133t212.5 62.5t308 16.5h376q236 0 383.5 -18t227 -69t109.5 -148.5t30 -255.5h-192q0 119 -21 185.5t-79 96t-168.5 36.5t-289.5 7h-376q-143 0 -241 -8.5t-159.5 -39t-94 -96.5t-44.5 -180t-12 -290v-40q0 -170 12 -282
t44.5 -179t94 -100t159.5 -43t241 -10h443q165 0 266 13.5t153.5 58t70.5 136t18 247.5v59h-735v160h927v-219q0 -195 -33 -317t-111.5 -188.5t-214 -91t-341.5 -24.5h-443q-225 0 -370 30.5t-226.5 112.5t-114 236t-32.5 401zM993 1728v192h192v-192h-192z" />
    <glyph glyph-name="gdotaccent" unicode="&#x121;" horiz-adv-x="1612" 
d="M835 -439q-153 0 -278.5 7.5t-215.5 36t-139 90t-49 168.5h192q0 -70 54.5 -100t163.5 -36t272 -6q121 0 207 7.5t140.5 43.5t80 120.5t25.5 237.5v27q-70 -90 -192.5 -119t-303.5 -29q-187 0 -319 21.5t-214.5 81.5t-120.5 174t-38 298q0 196 38 314t120.5 177.5
t214.5 79t319 19.5q181 0 303.5 -26.5t192.5 -117.5v122h192v-1030q-4 -190 -48 -302.5t-125.5 -168t-200 -73t-271.5 -17.5zM1288 584q0 143 -17.5 228.5t-68 129t-149 58t-261.5 14.5q-172 0 -272.5 -14.5t-149.5 -58t-63.5 -129t-14.5 -228.5q0 -130 14.5 -212t63 -126
t149.5 -60.5t273 -16.5q163 0 261.5 16.5t149 60.5t68 126t17.5 212zM710 1344v192h192v-192h-192z" />
    <glyph glyph-name="uni0122" unicode="&#x122;" horiz-adv-x="2177" 
d="M128 748v40q0 204 20 342.5t69 225.5t133.5 133t212.5 62.5t308 16.5h376q236 0 383.5 -18t227 -69t109.5 -148.5t30 -255.5h-192q0 119 -21 185.5t-79 96t-168.5 36.5t-289.5 7h-376q-143 0 -241 -8.5t-159.5 -39t-94 -96.5t-44.5 -180t-12 -290v-40q0 -170 12 -282
t44.5 -179t94 -100t159.5 -43t241 -10h443q165 0 266 13.5t153.5 58t70.5 136t18 247.5v59h-735v160h927v-219q0 -195 -33 -317t-111.5 -188.5t-214 -91t-341.5 -24.5h-443q-225 0 -370 30.5t-226.5 112.5t-114 236t-32.5 401zM1185 -152l-128 -384h-128l64 384h192z" />
    <glyph glyph-name="uni0123" unicode="&#x123;" horiz-adv-x="1612" 
d="M835 -439q-153 0 -278.5 7.5t-215.5 36t-139 90t-49 168.5h192q0 -70 54.5 -100t163.5 -36t272 -6q121 0 207 7.5t140.5 43.5t80 120.5t25.5 237.5v27q-70 -90 -192.5 -119t-303.5 -29q-187 0 -319 21.5t-214.5 81.5t-120.5 174t-38 298q0 196 38 314t120.5 177.5
t214.5 79t319 19.5q181 0 303.5 -26.5t192.5 -117.5v122h192v-1030q-4 -190 -48 -302.5t-125.5 -168t-200 -73t-271.5 -17.5zM1288 584q0 143 -17.5 228.5t-68 129t-149 58t-261.5 14.5q-172 0 -272.5 -14.5t-149.5 -58t-63.5 -129t-14.5 -228.5q0 -130 14.5 -212t63 -126
t149.5 -60.5t273 -16.5q163 0 261.5 16.5t149 60.5t68 126t17.5 212zM713 1244l128 384h128l-64 -384h-192z" />
    <glyph glyph-name="Hcircumflex" unicode="&#x124;" horiz-adv-x="2184" 
d="M196 0v1536h192v-672h1408v672h192v-1536h-192v704h-1408v-704h-192zM804 1694l-128 96l320 480h192l320 -480l-128 -96l-288 448z" />
    <glyph glyph-name="hcircumflex" unicode="&#x125;" horiz-adv-x="1603" 
d="M132 0v1536h192v-537q43 58 106.5 97t170 58.5t279.5 19.5q226 0 356.5 -44t185.5 -157t55 -320v-653h-193v653q0 118 -20 190t-68.5 109t-133.5 49.5t-216 12.5q-200 0 -314 -33t-161 -103.5t-47 -183.5v-694h-192zM514 1647l-128 96l320 480h192l320 -480l-128 -96
l-288 448z" />
    <glyph glyph-name="Hbar" unicode="&#x126;" horiz-adv-x="2176" 
d="M192 0v1536h192v-672h1408v672h192v-1536h-192v704h-1408v-704h-192z" />
    <glyph glyph-name="hbar" unicode="&#x127;" 
d="M128 0v1252h-151v160h151v124h192v-124h425v-160h-425v-282q91 214 576 214q362 0 481 -137q58 -67 77 -168t19 -229v-650h-193v650q0 99 -15 172t-65 119q-91 83 -368 83q-421 0 -490 -183q-22 -60 -22 -127v-714h-192z" />
    <glyph glyph-name="Itilde" unicode="&#x128;" horiz-adv-x="576" 
d="M192 0v1536h192v-1536h-192zM-160 1726q0 124 73.5 190.5t182.5 66.5q104 0 219 -49q33 -14 72 -31t79 -17q48 0 63 18.5t15 77.5h192q0 -133 -92 -202q-72 -54 -164 -54q-105 0 -219 48q-33 14 -72 31t-79 17q-51 0 -64.5 -18.5t-13.5 -77.5h-192z" />
    <glyph glyph-name="itilde" unicode="&#x129;" horiz-adv-x="448" 
d="M128 0v1088h192v-1088h-192zM-224 1342q0 124 73.5 190.5t182.5 66.5q104 0 219 -49q33 -14 72 -31t79 -17q48 0 63 18.5t15 77.5h192q0 -133 -92 -202q-72 -54 -164 -54q-105 0 -219 48q-33 14 -72 31t-79 17q-51 0 -64.5 -18.5t-13.5 -77.5h-192z" />
    <glyph glyph-name="Imacron" unicode="&#x12a;" horiz-adv-x="576" 
d="M192 0v1536h192v-1536h-192zM-96 1689v160h768v-160h-768z" />
    <glyph glyph-name="imacron" unicode="&#x12b;" horiz-adv-x="448" 
d="M128 0v1088h192v-1088h-192zM-160 1305v160h768v-160h-768z" />
    <glyph glyph-name="Ibreve" unicode="&#x12c;" horiz-adv-x="576" 
d="M192 0v1536h192v-1536h-192zM288 1691q-121 0 -207 34t-131.5 118.5t-45.5 237.5h160q0 -189 69 -231q35 -21 155 -21t160 24q64 39 64 228h160q0 -153 -45.5 -237.5t-131 -118.5t-207.5 -34z" />
    <glyph glyph-name="ibreve" unicode="&#x12d;" horiz-adv-x="448" 
d="M128 0v1088h192v-1088h-192zM224 1307q-121 0 -207 34t-131.5 118.5t-45.5 237.5h160q0 -189 69 -231q35 -21 155 -21t160 24q64 39 64 228h160q0 -153 -45.5 -237.5t-131 -118.5t-207.5 -34z" />
    <glyph glyph-name="Iogonek" unicode="&#x12e;" horiz-adv-x="576" 
d="M192 0v1536h192v-1536h-192zM377 -556q-259 0 -351 135q-33 50 -33 103t10.5 85.5t29.5 63.5q68 108 216 189h128q-192 -127 -192 -288q0 -79 53.5 -103.5t138.5 -24.5v-160z" />
    <glyph glyph-name="iogonek" unicode="&#x12f;" horiz-adv-x="448" 
d="M128 0v1088h192v-1088h-192zM128 1344v192h192v-192h-192zM320 -576q-259 0 -351 135q-33 50 -33 103t10.5 85.5t29.5 63.5q68 108 216 189h128q-192 -127 -192 -288q0 -79 53.5 -103.5t138.5 -24.5v-160z" />
    <glyph glyph-name="Idotaccent" unicode="&#x130;" horiz-adv-x="576" 
d="M192 0v1536h192v-1536h-192zM192 1728v192h192v-192h-192z" />
    <glyph glyph-name="dotlessi" unicode="&#x131;" horiz-adv-x="448" 
d="M128 0v1088h192v-1088h-192z" />
    <glyph glyph-name="IJ" unicode="&#x132;" horiz-adv-x="2291" 
d="M192 0v1536h192v-1536h-192zM1152 0q-191 0 -298.5 55t-133.5 215q-16 95 -16 242v64h192v-64q0 -228 56 -298q31 -38 80.5 -48t119.5 -10h448q173 0 246.5 61.5t73.5 230.5v1088h192v-1088q0 -244 -112 -344q-116 -104 -400 -104h-448z" />
    <glyph glyph-name="ij" unicode="&#x133;" horiz-adv-x="1120" 
d="M128 0v1088h192v-1088h-192zM128 1344v192h192v-192h-192zM736 1344v192h192v-192h-192zM411 -384v160h145q97 0 138.5 36.5t41.5 163.5v1176h192v-1176q0 -181 -83 -270.5t-289 -89.5h-145z" />
    <glyph glyph-name="Jcircumflex" unicode="&#x134;" horiz-adv-x="1715" 
d="M576 0q-191 0 -298.5 55t-133.5 215q-16 95 -16 242v64h192v-64q0 -228 56 -298q31 -38 80.5 -48t119.5 -10h448q173 0 246.5 61.5t73.5 230.5v1088h192v-1088q0 -244 -112 -344q-116 -104 -400 -104h-448zM1153 1694l-128 96l320 480h192l320 -480l-128 -96l-288 448z
" />
    <glyph glyph-name="jcircumflex" unicode="&#x135;" horiz-adv-x="608" 
d="M128 -384v160q97 0 128.5 31.5t31.5 128.5v1216h192v-1216q0 -76 -10.5 -134.5t-45.5 -99.5q-74 -86 -296 -86zM96 1310l-128 96l320 480h192l320 -480l-128 -96l-288 448z" />
    <glyph glyph-name="uni0136" unicode="&#x136;" horiz-adv-x="2016" 
d="M192 0v1536h192v-672h255l993 672h288l-1088 -752l1120 -784h-288l-1024 704h-256v-704h-192zM1104 -152l-128 -384h-128l64 384h192z" />
    <glyph glyph-name="uni0137" unicode="&#x137;" horiz-adv-x="1414" 
d="M134 0v1536h192v-887l765 503h291l-813 -541l845 -611h-286l-802 591v-591h-192zM819 -152l-128 -384h-128l64 384h192z" />
    <glyph glyph-name="kgreenlandic" unicode="&#x138;" horiz-adv-x="1408" 
d="M128 0v1536h192v-880h64l704 432h288l-816 -512l848 -576h-288l-736 512h-64v-512h-192z" />
    <glyph glyph-name="Lacute" unicode="&#x139;" horiz-adv-x="1664" 
d="M192 0v1536h192v-1376h1216v-160h-1408zM608 1726l-64 96l576 480l118 -172z" />
    <glyph glyph-name="lacute" unicode="&#x13a;" horiz-adv-x="576" 
d="M192 0v1536h192v-1536h-192zM220 1655l-64 96l576 480l118 -172z" />
    <glyph glyph-name="uni013B" unicode="&#x13b;" horiz-adv-x="1664" 
d="M192 0v1536h192v-1376h1216v-160h-1408zM928 -152l-128 -384h-128l64 384h192z" />
    <glyph glyph-name="uni013C" unicode="&#x13c;" horiz-adv-x="576" 
d="M192 0v1536h192v-1536h-192zM384 -152l-128 -384h-128l64 384h192z" />
    <glyph glyph-name="Lcaron" unicode="&#x13d;" horiz-adv-x="1664" 
d="M192 0v1536h192v-1376h1216v-160h-1408zM768 1184l64 384h192l-128 -384h-128z" />
    <glyph glyph-name="lcaron" unicode="&#x13e;" horiz-adv-x="576" 
d="M192 0v1536h192v-1536h-192zM503 1152l64 384h192l-128 -384h-128z" />
    <glyph glyph-name="Ldot" unicode="&#x13f;" horiz-adv-x="1664" 
d="M192 0v1536h192v-1376h1216v-160h-1408zM802 704v192h192v-192h-192z" />
    <glyph glyph-name="ldot" unicode="&#x140;" horiz-adv-x="769" 
d="M192 0v1536h192v-1536h-192zM577 704v192h192v-192h-192z" />
    <glyph glyph-name="Lslash" unicode="&#x141;" horiz-adv-x="1664" 
d="M192 0v797l-128 -29v160l128 29v579h192v-535l384 87v-160l-384 -87v-681h1216v-160h-1408z" />
    <glyph glyph-name="lslash" unicode="&#x142;" horiz-adv-x="512" 
d="M128 0v797l-178 -49v160l178 49v579h192v-525l206 57v-160l-206 -57v-851h-192z" />
    <glyph glyph-name="Nacute" unicode="&#x143;" horiz-adv-x="2321" 
d="M192 0v1536h200l1543 -1299h2v1299h192v-1536h-200l-1543 1310h-2v-1310h-192zM937 1726l-64 96l576 480l118 -172z" />
    <glyph glyph-name="nacute" unicode="&#x144;" 
d="M132 0v1152h192v-153q43 58 106.5 97t170 58.5t279.5 19.5q226 0 356.5 -44t185.5 -157t55 -320v-653h-193v653q0 118 -20 190t-68.5 109t-133.5 49.5t-216 12.5q-200 0 -314 -33t-161 -103.5t-47 -183.5v-694h-192zM577 1342l-64 96l576 480l118 -172z" />
    <glyph glyph-name="uni0145" unicode="&#x145;" horiz-adv-x="2321" 
d="M192 0v1536h200l1543 -1299h2v1299h192v-1536h-200l-1543 1310h-2v-1310h-192zM1257 -152l-128 -384h-128l64 384h192z" />
    <glyph glyph-name="uni0146" unicode="&#x146;" 
d="M132 0v1152h192v-153q43 58 106.5 97t170 58.5t279.5 19.5q226 0 356.5 -44t185.5 -157t55 -320v-653h-193v653q0 118 -20 190t-68.5 109t-133.5 49.5t-216 12.5q-200 0 -314 -33t-161 -103.5t-47 -183.5v-694h-192zM897 -152l-128 -384h-128l64 384h192z" />
    <glyph glyph-name="Ncaron" unicode="&#x147;" horiz-adv-x="2321" 
d="M192 0v1536h200l1543 -1299h2v1299h192v-1536h-200l-1543 1310h-2v-1310h-192zM1065 1700l-320 480l128 96l288 -448l288 448l128 -96l-320 -480h-192z" />
    <glyph glyph-name="ncaron" unicode="&#x148;" 
d="M132 0v1152h192v-153q43 58 106.5 97t170 58.5t279.5 19.5q226 0 356.5 -44t185.5 -157t55 -320v-653h-193v653q0 118 -20 190t-68.5 109t-133.5 49.5t-216 12.5q-200 0 -314 -33t-161 -103.5t-47 -183.5v-694h-192zM705 1316l-320 480l128 96l288 -448l288 448l128 -96
l-320 -480h-192z" />
    <glyph glyph-name="napostrophe" unicode="&#x149;" horiz-adv-x="1665" 
d="M138 1208h-128l-128 384h192zM196 0v1152h192v-153q43 58 106.5 97t170 58.5t279.5 19.5q226 0 356.5 -44t185.5 -157t55 -320v-653h-193v653q0 118 -20 190t-68.5 109t-133.5 49.5t-216 12.5q-200 0 -314 -33t-161 -103.5t-47 -183.5v-694h-192z" />
    <glyph glyph-name="Eng" unicode="&#x14a;" 
d="M768 1279l-320 480l128 96l288 -448l288 448l128 -96l-320 -480h-192zM196 0v1152h192v-153q43 58 106.5 97t170 58.5t279.5 19.5q226 0 356.5 -44t185.5 -157t55 -320v-653h-193v653q0 118 -20 190t-68.5 109t-133.5 49.5t-216 12.5q-200 0 -314 -33t-161 -103.5
t-47 -183.5v-694h-192z" />
    <glyph glyph-name="eng" unicode="&#x14b;" horiz-adv-x="1733" 
d="M1188 -384v160q97 0 128.5 31.5t31.5 128.5v717q0 118 -20 190t-68.5 109t-133.5 49.5t-216 12.5q-200 0 -314 -33t-161 -103.5t-47 -183.5v-694h-192v1152h192v-153q44 58 107 97t169.5 58.5t279.5 19.5q226 0 356.5 -44t185.5 -157t55 -320v-717q0 -76 -11 -134.5
t-46 -99.5q-74 -86 -296 -86z" />
    <glyph glyph-name="Omacron" unicode="&#x14c;" horiz-adv-x="2145" 
d="M871 -32q-225 0 -370 30.5t-226.5 112.5t-114 236t-32.5 401v40q0 204 20 342.5t69 225.5t133.5 133t212.5 62.5t308 16.5h403q180 0 308 -16.5t212.5 -62.5t133.5 -133t69 -225.5t20 -342.5v-40q0 -247 -32.5 -401t-114 -236t-226.5 -112.5t-370 -30.5h-403zM871 134
h403q143 0 241 10t159.5 43t94 100t44.5 179t12 282v40q0 176 -12 290t-44.5 180t-94 96.5t-159.5 39t-241 8.5h-403q-143 0 -241 -8.5t-159.5 -39t-94 -96.5t-44.5 -180t-12 -290v-40q0 -170 12 -282t44.5 -179t94 -100t159.5 -43t241 -10zM689 1689v160h768v-160h-768z
" />
    <glyph glyph-name="omacron" unicode="&#x14d;" horiz-adv-x="1602" 
d="M801 -22q-193 0 -328 19.5t-218 80t-121 181.5t-38 323q0 196 38 314t121 178t218 80t328 20q194 0 328.5 -20t217.5 -80t121 -178t38 -314q0 -202 -38 -323t-121 -181.5t-217.5 -80t-328.5 -19.5zM1314 582q0 143 -14.5 229t-63.5 129.5t-152.5 58.5t-282.5 15
q-178 0 -282 -15t-153 -58.5t-63.5 -129.5t-14.5 -229q0 -148 14.5 -237t63.5 -133.5t153 -59t282 -14.5q179 0 282.5 14.5t152.5 59t63.5 133.5t14.5 237zM417 1305v160h768v-160h-768z" />
    <glyph glyph-name="Obreve" unicode="&#x14e;" horiz-adv-x="2145" 
d="M871 -32q-225 0 -370 30.5t-226.5 112.5t-114 236t-32.5 401v40q0 204 20 342.5t69 225.5t133.5 133t212.5 62.5t308 16.5h403q180 0 308 -16.5t212.5 -62.5t133.5 -133t69 -225.5t20 -342.5v-40q0 -247 -32.5 -401t-114 -236t-226.5 -112.5t-370 -30.5h-403zM871 134
h403q143 0 241 10t159.5 43t94 100t44.5 179t12 282v40q0 176 -12 290t-44.5 180t-94 96.5t-159.5 39t-241 8.5h-403q-143 0 -241 -8.5t-159.5 -39t-94 -96.5t-44.5 -180t-12 -290v-40q0 -170 12 -282t44.5 -179t94 -100t159.5 -43t241 -10zM1073 1691q-121 0 -207 34
t-131.5 118.5t-45.5 237.5h160q0 -189 69 -231q35 -21 155 -21t160 24q64 39 64 228h160q0 -153 -45.5 -237.5t-131 -118.5t-207.5 -34z" />
    <glyph glyph-name="obreve" unicode="&#x14f;" horiz-adv-x="1602" 
d="M801 -22q-193 0 -328 19.5t-218 80t-121 181.5t-38 323q0 196 38 314t121 178t218 80t328 20q194 0 328.5 -20t217.5 -80t121 -178t38 -314q0 -202 -38 -323t-121 -181.5t-217.5 -80t-328.5 -19.5zM1314 582q0 143 -14.5 229t-63.5 129.5t-152.5 58.5t-282.5 15
q-178 0 -282 -15t-153 -58.5t-63.5 -129.5t-14.5 -229q0 -148 14.5 -237t63.5 -133.5t153 -59t282 -14.5q179 0 282.5 14.5t152.5 59t63.5 133.5t14.5 237zM801 1307q-121 0 -207 34t-131.5 118.5t-45.5 237.5h160q0 -189 69 -231q35 -21 155 -21t160 24q64 39 64 228h160
q0 -153 -45.5 -237.5t-131 -118.5t-207.5 -34z" />
    <glyph glyph-name="Ohungarumlaut" unicode="&#x150;" horiz-adv-x="2145" 
d="M871 -32q-225 0 -370 30.5t-226.5 112.5t-114 236t-32.5 401v40q0 204 20 342.5t69 225.5t133.5 133t212.5 62.5t308 16.5h403q180 0 308 -16.5t212.5 -62.5t133.5 -133t69 -225.5t20 -342.5v-40q0 -247 -32.5 -401t-114 -236t-226.5 -112.5t-370 -30.5h-403zM871 134
h403q143 0 241 10t159.5 43t94 100t44.5 179t12 282v40q0 176 -12 290t-44.5 180t-94 96.5t-159.5 39t-241 8.5h-403q-143 0 -241 -8.5t-159.5 -39t-94 -96.5t-44.5 -180t-12 -290v-40q0 -170 12 -282t44.5 -179t94 -100t159.5 -43t241 -10zM1347 1688l-64 96l576 480
l128 -192zM794 1688l-64 96l576 480l128 -192z" />
    <glyph glyph-name="ohungarumlaut" unicode="&#x151;" horiz-adv-x="1602" 
d="M801 -22q-193 0 -328 19.5t-218 80t-121 181.5t-38 323q0 196 38 314t121 178t218 80t328 20q194 0 328.5 -20t217.5 -80t121 -178t38 -314q0 -202 -38 -323t-121 -181.5t-217.5 -80t-328.5 -19.5zM1314 582q0 143 -14.5 229t-63.5 129.5t-152.5 58.5t-282.5 15
q-178 0 -282 -15t-153 -58.5t-63.5 -129.5t-14.5 -229q0 -148 14.5 -237t63.5 -133.5t153 -59t282 -14.5q179 0 282.5 14.5t152.5 59t63.5 133.5t14.5 237zM1075 1304l-64 96l576 480l128 -192zM522 1304l-64 96l576 480l128 -192z" />
    <glyph glyph-name="OE" unicode="&#x152;" horiz-adv-x="3520" 
d="M831 -32q-342 0 -495 86q-109 61 -157 179.5t-48 286.5v323q0 158 11.5 295t73.5 234q42 67 120 110q149 83 444 83h677q313 0 463 -93v64h1536v-160h-1344v-512h1280v-160h-1280v-544h1344v-160h-1536v64q-156 -96 -511 -96h-578zM831 128h578q263 0 359 38
q59 24 89.5 67t43.5 113q19 94 19 422t-16 409q-15 77 -44.5 122.5t-91.5 70.5q-58 23 -129 28.5t-155 5.5h-731q-124 0 -209.5 -14t-136 -59.5t-69.5 -140.5q-18 -91 -18 -422q0 -328 16 -409q15 -78 43.5 -122.5t91.5 -70.5q96 -38 360 -38z" />
    <glyph glyph-name="oe" unicode="&#x153;" horiz-adv-x="2816" 
d="M2083 -33q-136 0 -268.5 22t-233 71.5t-141.5 131.5q-50 -99 -212 -160q-94 -36 -194 -50t-240 -14q-154 0 -288 27q-202 41 -290 173t-88 376q0 167 38 279q44 127 138 190.5t232.5 85t314.5 21.5q80 0 175 -13.5t184 -41.5t152 -70t78 -99q24 96 199 160q174 64 409 64
q259 0 410 -71q125 -59 177.5 -172t52.5 -301l-16 -64h-1136q0 -178 56.5 -267.5t213.5 -106.5q49 -5 125 -7.5t179 -2.5q207 0 294 36q48 20 70 56t22 100h192q0 -165 -93 -237.5t-245 -95.5q-125 -20 -267 -20zM848 128q64 0 120.5 3t105.5 8q109 12 167.5 60.5
t80.5 134.5t22 210q0 143 -26 227q-29 92 -96.5 131.5t-166.5 48.5t-223 9h-7q-123 0 -224 -8t-169 -56q-63 -44 -87.5 -129t-24.5 -195q0 -127 11 -220t77 -148q36 -30 92 -46q75 -22 157.5 -26t190.5 -4zM1536 640h960q0 187 -104 256q-64 43 -152 53.5t-204 10.5
q-108 0 -205 -6t-167.5 -37t-101.5 -105q-26 -64 -26 -172z" />
    <glyph glyph-name="Racute" unicode="&#x154;" horiz-adv-x="2087" 
d="M196 1536h1028q225 0 362.5 -20t208.5 -69t96 -134t25 -215v-40q0 -120 -28.5 -206.5t-109.5 -140t-240 -75.5l334 -636h-192l-327 622q-20 -1 -41.5 -1h-44.5h-879v-621h-192v1536zM388 787h849q171 0 269.5 11.5t145 40.5t59.5 82t13 137v40q0 95 -18 150t-72 81
t-161 33.5t-286 7.5h-799v-583zM780 1726l-64 96l576 480l118 -172z" />
    <glyph glyph-name="racute" unicode="&#x155;" horiz-adv-x="986" 
d="M148 0v1152h192v-159q32 51 64.5 85t85 54t142.5 28.5t237 8.5v-161q-198 0 -306.5 -14t-155.5 -47.5t-57 -92.5t-10 -150v-704h-192zM283 1342l-64 96l576 480l118 -172z" />
    <glyph glyph-name="uni0156" unicode="&#x156;" horiz-adv-x="2087" 
d="M196 1536h1028q225 0 362.5 -20t208.5 -69t96 -134t25 -215v-40q0 -120 -28.5 -206.5t-109.5 -140t-240 -75.5l334 -636h-192l-327 622q-20 -1 -41.5 -1h-44.5h-879v-621h-192v1536zM388 787h849q171 0 269.5 11.5t145 40.5t59.5 82t13 137v40q0 95 -18 150t-72 81
t-161 33.5t-286 7.5h-799v-583zM1140 -152l-128 -384h-128l64 384h192z" />
    <glyph glyph-name="uni0157" unicode="&#x157;" horiz-adv-x="986" 
d="M148 0v1152h192v-159q32 51 64.5 85t85 54t142.5 28.5t237 8.5v-161q-198 0 -306.5 -14t-155.5 -47.5t-57 -92.5t-10 -150v-704h-192zM340 -152l-128 -384h-128l64 384h192z" />
    <glyph glyph-name="Rcaron" unicode="&#x158;" horiz-adv-x="2087" 
d="M196 1536h1028q225 0 362.5 -20t208.5 -69t96 -134t25 -215v-40q0 -120 -28.5 -206.5t-109.5 -140t-240 -75.5l334 -636h-192l-327 622q-20 -1 -41.5 -1h-44.5h-879v-621h-192v1536zM388 787h849q171 0 269.5 11.5t145 40.5t59.5 82t13 137v40q0 95 -18 150t-72 81
t-161 33.5t-286 7.5h-799v-583zM908 1700l-320 480l128 96l288 -448l288 448l128 -96l-320 -480h-192z" />
    <glyph glyph-name="rcaron" unicode="&#x159;" horiz-adv-x="986" 
d="M148 0v1152h192v-159q32 51 64.5 85t85 54t142.5 28.5t237 8.5v-161q-198 0 -306.5 -14t-155.5 -47.5t-57 -92.5t-10 -150v-704h-192zM411 1316l-320 480l128 96l288 -448l288 448l128 -96l-320 -480h-192z" />
    <glyph glyph-name="Sacute" unicode="&#x15a;" horiz-adv-x="2142" 
d="M1827 444q0 89 -14 140t-63 75.5t-152 32t-282 10.5l-556 8q-206 3 -331 25t-189 69.5t-85.5 127.5t-21.5 200q0 131 29.5 216t107 133t219.5 67.5t367 19.5h428q204 0 340 -13t216 -60t114.5 -146t34.5 -272h-192q0 134 -25.5 202.5t-84 93.5t-157.5 27t-246 2h-418
q-179 0 -286.5 -7t-162.5 -32t-73.5 -80t-18.5 -151q0 -81 13 -130t58.5 -74.5t140.5 -35t259 -11.5l596 -8q210 -3 335.5 -24.5t188 -69.5t83 -129.5t20.5 -205.5q0 -135 -25.5 -226.5t-98.5 -146.5t-211 -79t-363 -24h-468q-205 0 -344 18t-221.5 72.5t-118.5 162.5
t-36 288h192q0 -141 23 -218t80.5 -110.5t161 -40t263.5 -6.5h458q179 0 283 11.5t154 44t64.5 93.5t14.5 161zM847 1726l-64 96l576 480l118 -172z" />
    <glyph glyph-name="sacute" unicode="&#x15b;" horiz-adv-x="1589" 
d="M779 -22q-210 0 -337.5 14t-193 52t-88 108t-22.5 182h184q0 -63 9 -101.5t51 -59t136.5 -28t265.5 -7.5q181 0 281.5 7.5t144.5 28t53.5 59.5t9.5 103q0 78 -14 117t-66 52.5t-166 14.5l-458 5q-177 2 -270 30t-127 98.5t-34 200.5q0 121 37.5 187t117.5 94t208 33.5
t309 5.5q213 0 338.5 -13t188 -49t82 -104.5t19.5 -178.5h-184q0 65 -9 102.5t-48.5 55t-128 22.5t-248.5 5q-182 0 -283 -4t-146 -19t-55 -47.5t-10 -89.5q0 -58 6.5 -91.5t34.5 -50.5t91.5 -22.5t177.5 -6.5l395 -4q178 -2 270.5 -29.5t126 -101t33.5 -212.5
q0 -125 -36.5 -197t-116.5 -106.5t-210.5 -44.5t-318.5 -10zM571 1342l-64 96l576 480l118 -172z" />
    <glyph glyph-name="Scircumflex" unicode="&#x15c;" horiz-adv-x="2142" 
d="M1827 444q0 89 -14 140t-63 75.5t-152 32t-282 10.5l-556 8q-206 3 -331 25t-189 69.5t-85.5 127.5t-21.5 200q0 131 29.5 216t107 133t219.5 67.5t367 19.5h428q204 0 340 -13t216 -60t114.5 -146t34.5 -272h-192q0 134 -25.5 202.5t-84 93.5t-157.5 27t-246 2h-418
q-179 0 -286.5 -7t-162.5 -32t-73.5 -80t-18.5 -151q0 -81 13 -130t58.5 -74.5t140.5 -35t259 -11.5l596 -8q210 -3 335.5 -24.5t188 -69.5t83 -129.5t20.5 -205.5q0 -135 -25.5 -226.5t-98.5 -146.5t-211 -79t-363 -24h-468q-205 0 -344 18t-221.5 72.5t-118.5 162.5
t-36 288h192q0 -141 23 -218t80.5 -110.5t161 -40t263.5 -6.5h458q179 0 283 11.5t154 44t64.5 93.5t14.5 161zM783 1694l-128 96l320 480h192l320 -480l-128 -96l-288 448z" />
    <glyph glyph-name="scircumflex" unicode="&#x15d;" horiz-adv-x="1589" 
d="M779 -22q-210 0 -337.5 14t-193 52t-88 108t-22.5 182h184q0 -63 9 -101.5t51 -59t136.5 -28t265.5 -7.5q181 0 281.5 7.5t144.5 28t53.5 59.5t9.5 103q0 78 -14 117t-66 52.5t-166 14.5l-458 5q-177 2 -270 30t-127 98.5t-34 200.5q0 121 37.5 187t117.5 94t208 33.5
t309 5.5q213 0 338.5 -13t188 -49t82 -104.5t19.5 -178.5h-184q0 65 -9 102.5t-48.5 55t-128 22.5t-248.5 5q-182 0 -283 -4t-146 -19t-55 -47.5t-10 -89.5q0 -58 6.5 -91.5t34.5 -50.5t91.5 -22.5t177.5 -6.5l395 -4q178 -2 270.5 -29.5t126 -101t33.5 -212.5
q0 -125 -36.5 -197t-116.5 -106.5t-210.5 -44.5t-318.5 -10zM507 1310l-128 96l320 480h192l320 -480l-128 -96l-288 448z" />
    <glyph glyph-name="Scedilla" unicode="&#x15e;" horiz-adv-x="2142" 
d="M1827 444q0 89 -14 140t-63 75.5t-152 32t-282 10.5l-556 8q-206 3 -331 25t-189 69.5t-85.5 127.5t-21.5 200q0 131 29.5 216t107 133t219.5 67.5t367 19.5h428q204 0 340 -13t216 -60t114.5 -146t34.5 -272h-192q0 134 -25.5 202.5t-84 93.5t-157.5 27t-246 2h-418
q-179 0 -286.5 -7t-162.5 -32t-73.5 -80t-18.5 -151q0 -81 13 -130t58.5 -74.5t140.5 -35t259 -11.5l596 -8q210 -3 335.5 -24.5t188 -69.5t83 -129.5t20.5 -205.5q0 -135 -25.5 -226.5t-98.5 -146.5t-211 -79t-363 -24h-468q-205 0 -344 18t-221.5 72.5t-118.5 162.5
t-36 288h192q0 -141 23 -218t80.5 -110.5t161 -40t263.5 -6.5h458q179 0 283 11.5t154 44t64.5 93.5t14.5 161zM992 -544v160q46 0 90 5t73 23t29 56q0 47 -53 61.5t-139 14.5v288h128v-192q128 0 192 -43.5t64 -146.5q0 -87 -48.5 -136.5t-135 -69.5t-200.5 -20z" />
    <glyph glyph-name="scedilla" unicode="&#x15f;" horiz-adv-x="1589" 
d="M779 -22q-210 0 -337.5 14t-193 52t-88 108t-22.5 182h184q0 -63 9 -101.5t51 -59t136.5 -28t265.5 -7.5q181 0 281.5 7.5t144.5 28t53.5 59.5t9.5 103q0 78 -14 117t-66 52.5t-166 14.5l-458 5q-177 2 -270 30t-127 98.5t-34 200.5q0 121 37.5 187t117.5 94t208 33.5
t309 5.5q213 0 338.5 -13t188 -49t82 -104.5t19.5 -178.5h-184q0 65 -9 102.5t-48.5 55t-128 22.5t-248.5 5q-182 0 -283 -4t-146 -19t-55 -47.5t-10 -89.5q0 -58 6.5 -91.5t34.5 -50.5t91.5 -22.5t177.5 -6.5l395 -4q178 -2 270.5 -29.5t126 -101t33.5 -212.5
q0 -125 -36.5 -197t-116.5 -106.5t-210.5 -44.5t-318.5 -10zM716 -544v160q46 0 90 5t73 23t29 56q0 47 -53 61.5t-139 14.5v288h128v-192q128 0 192 -43.5t64 -146.5q0 -87 -48.5 -136.5t-135 -69.5t-200.5 -20z" />
    <glyph glyph-name="Scaron" unicode="&#x160;" horiz-adv-x="2142" 
d="M1827 444q0 89 -14 140t-63 75.5t-152 32t-282 10.5l-556 8q-206 3 -331 25t-189 69.5t-85.5 127.5t-21.5 200q0 131 29.5 216t107 133t219.5 67.5t367 19.5h428q204 0 340 -13t216 -60t114.5 -146t34.5 -272h-192q0 134 -25.5 202.5t-84 93.5t-157.5 27t-246 2h-418
q-179 0 -286.5 -7t-162.5 -32t-73.5 -80t-18.5 -151q0 -81 13 -130t58.5 -74.5t140.5 -35t259 -11.5l596 -8q210 -3 335.5 -24.5t188 -69.5t83 -129.5t20.5 -205.5q0 -135 -25.5 -226.5t-98.5 -146.5t-211 -79t-363 -24h-468q-205 0 -344 18t-221.5 72.5t-118.5 162.5
t-36 288h192q0 -141 23 -218t80.5 -110.5t161 -40t263.5 -6.5h458q179 0 283 11.5t154 44t64.5 93.5t14.5 161zM975 1700l-320 480l128 96l288 -448l288 448l128 -96l-320 -480h-192z" />
    <glyph glyph-name="scaron" unicode="&#x161;" horiz-adv-x="1589" 
d="M779 -22q-210 0 -337.5 14t-193 52t-88 108t-22.5 182h184q0 -63 9 -101.5t51 -59t136.5 -28t265.5 -7.5q181 0 281.5 7.5t144.5 28t53.5 59.5t9.5 103q0 78 -14 117t-66 52.5t-166 14.5l-458 5q-177 2 -270 30t-127 98.5t-34 200.5q0 121 37.5 187t117.5 94t208 33.5
t309 5.5q213 0 338.5 -13t188 -49t82 -104.5t19.5 -178.5h-184q0 65 -9 102.5t-48.5 55t-128 22.5t-248.5 5q-182 0 -283 -4t-146 -19t-55 -47.5t-10 -89.5q0 -58 6.5 -91.5t34.5 -50.5t91.5 -22.5t177.5 -6.5l395 -4q178 -2 270.5 -29.5t126 -101t33.5 -212.5
q0 -125 -36.5 -197t-116.5 -106.5t-210.5 -44.5t-318.5 -10zM699 1316l-320 480l128 96l288 -448l288 448l128 -96l-320 -480h-192z" />
    <glyph glyph-name="Tcaron" unicode="&#x164;" horiz-adv-x="1916" 
d="M862 0v1376h-768v160h1728v-160h-768v-1376h-192zM862 1700l-320 480l128 96l288 -448l288 448l128 -96l-320 -480h-192z" />
    <glyph glyph-name="tcaron" unicode="&#x165;" horiz-adv-x="1297" 
d="M661 0q-176 0 -282 35.5t-153.5 126t-47.5 254.5v1051h192v-315h709v-158h-709v-578q0 -112 20.5 -167t83 -72t187.5 -17q111 0 174.5 7t93.5 37.5t38 100.5t8 197h170q0 -166 -20.5 -266t-73 -151t-147 -68t-243.5 -17zM591 1313l64 384h192l-128 -384h-128z" />
    <glyph glyph-name="Tbar" unicode="&#x166;" horiz-adv-x="1916" 
d="M862 0v652h-288v160h288v564h-768v160h1728v-160h-768v-564h288v-160h-288v-652h-192z" />
    <glyph glyph-name="tbar" unicode="&#x167;" horiz-adv-x="1440" 
d="M63 570v160h179v737h192v-315h709v-158h-709v-264h397v-160h-397v-154q0 -112 20.5 -167t83 -72t187.5 -17q111 0 174.5 7t93.5 37.5t38 100.5t8 197h170q0 -166 -20.5 -266t-73 -151t-147 -68t-243.5 -17q-176 0 -282 35.5t-153.5 126t-47.5 254.5v154h-179z" />
    <glyph glyph-name="Utilde" unicode="&#x168;" horiz-adv-x="2120" 
d="M879 -32q-225 0 -370 30.5t-226.5 112.5t-114 236t-32.5 401v788h192v-788q0 -170 12 -282t45 -179t94.5 -100t159.5 -43t240 -10h362q143 0 240.5 10t159 43t94.5 100t45 179t12 282v788h192v-788q0 -247 -32.5 -401t-114 -236t-226.5 -112.5t-370 -30.5h-362zM612 1726
q0 124 73.5 190.5t182.5 66.5q104 0 219 -49q33 -14 72 -31t79 -17q48 0 63 18.5t15 77.5h192q0 -133 -92 -202q-72 -54 -164 -54q-105 0 -219 48q-33 14 -72 31t-79 17q-51 0 -64.5 -18.5t-13.5 -77.5h-192z" />
    <glyph glyph-name="utilde" unicode="&#x169;" 
d="M720 -22q-226 0 -356 49.5t-185 166t-55 318.5v640h193v-640q0 -114 18.5 -187.5t65.5 -114t132.5 -56.5t220.5 -16q200 0 314 33t161.5 103.5t47.5 183.5v694h192v-1152h-192v153q-42 -58 -106 -97t-171 -58.5t-280 -19.5zM353 1342q0 124 73.5 190.5t182.5 66.5
q104 0 219 -49q33 -14 72 -31t79 -17q48 0 63 18.5t15 77.5h192q0 -133 -92 -202q-72 -54 -164 -54q-105 0 -219 48q-33 14 -72 31t-79 17q-51 0 -64.5 -18.5t-13.5 -77.5h-192z" />
    <glyph glyph-name="Umacron" unicode="&#x16a;" horiz-adv-x="2120" 
d="M879 -32q-225 0 -370 30.5t-226.5 112.5t-114 236t-32.5 401v788h192v-788q0 -170 12 -282t45 -179t94.5 -100t159.5 -43t240 -10h362q143 0 240.5 10t159 43t94.5 100t45 179t12 282v788h192v-788q0 -247 -32.5 -401t-114 -236t-226.5 -112.5t-370 -30.5h-362zM676 1689
v160h768v-160h-768z" />
    <glyph glyph-name="umacron" unicode="&#x16b;" 
d="M720 -22q-226 0 -356 49.5t-185 166t-55 318.5v640h193v-640q0 -114 18.5 -187.5t65.5 -114t132.5 -56.5t220.5 -16q200 0 314 33t161.5 103.5t47.5 183.5v694h192v-1152h-192v153q-42 -58 -106 -97t-171 -58.5t-280 -19.5zM417 1305v160h768v-160h-768z" />
    <glyph glyph-name="Ubreve" unicode="&#x16c;" horiz-adv-x="2120" 
d="M879 -32q-225 0 -370 30.5t-226.5 112.5t-114 236t-32.5 401v788h192v-788q0 -170 12 -282t45 -179t94.5 -100t159.5 -43t240 -10h362q143 0 240.5 10t159 43t94.5 100t45 179t12 282v788h192v-788q0 -247 -32.5 -401t-114 -236t-226.5 -112.5t-370 -30.5h-362z
M1060 1691q-121 0 -207 34t-131.5 118.5t-45.5 237.5h160q0 -189 69 -231q35 -21 155 -21t160 24q64 39 64 228h160q0 -153 -45.5 -237.5t-131 -118.5t-207.5 -34z" />
    <glyph glyph-name="ubreve" unicode="&#x16d;" 
d="M720 -22q-226 0 -356 49.5t-185 166t-55 318.5v640h193v-640q0 -114 18.5 -187.5t65.5 -114t132.5 -56.5t220.5 -16q200 0 314 33t161.5 103.5t47.5 183.5v694h192v-1152h-192v153q-42 -58 -106 -97t-171 -58.5t-280 -19.5zM801 1307q-121 0 -207 34t-131.5 118.5
t-45.5 237.5h160q0 -189 69 -231q35 -21 155 -21t160 24q64 39 64 228h160q0 -153 -45.5 -237.5t-131 -118.5t-207.5 -34z" />
    <glyph glyph-name="Uring" unicode="&#x16e;" horiz-adv-x="2120" 
d="M879 -32q-225 0 -370 30.5t-226.5 112.5t-114 236t-32.5 401v788h192v-788q0 -170 12 -282t45 -179t94.5 -100t159.5 -43t240 -10h362q143 0 240.5 10t159 43t94.5 100t45 179t12 282v788h192v-788q0 -247 -32.5 -401t-114 -236t-226.5 -112.5t-370 -30.5h-362z
M1060 1724q-166 0 -259 86t-93 234q0 154 97.5 237t254.5 83q166 0 259 -86t93 -234q0 -154 -97.5 -237t-254.5 -83zM1060 1852q109 0 164 70q28 35 28 122q0 96 -45.5 144t-146.5 48q-109 0 -164 -70q-28 -35 -28 -122q0 -96 46 -144t146 -48z" />
    <glyph glyph-name="uring" unicode="&#x16f;" 
d="M720 -22q-226 0 -356 49.5t-185 166t-55 318.5v640h193v-640q0 -114 18.5 -187.5t65.5 -114t132.5 -56.5t220.5 -16q200 0 314 33t161.5 103.5t47.5 183.5v694h192v-1152h-192v153q-42 -58 -106 -97t-171 -58.5t-280 -19.5zM801 1340q-166 0 -259 86t-93 234
q0 154 97.5 237t254.5 83q166 0 259 -86t93 -234q0 -154 -97.5 -237t-254.5 -83zM801 1468q109 0 164 70q28 35 28 122q0 96 -45.5 144t-146.5 48q-109 0 -164 -70q-28 -35 -28 -122q0 -96 46 -144t146 -48z" />
    <glyph glyph-name="Uhungarumlaut" unicode="&#x170;" horiz-adv-x="2120" 
d="M879 -32q-225 0 -370 30.5t-226.5 112.5t-114 236t-32.5 401v788h192v-788q0 -170 12 -282t45 -179t94.5 -100t159.5 -43t240 -10h362q143 0 240.5 10t159 43t94.5 100t45 179t12 282v788h192v-788q0 -247 -32.5 -401t-114 -236t-226.5 -112.5t-370 -30.5h-362z
M1334 1688l-64 96l576 480l128 -192zM781 1688l-64 96l576 480l128 -192z" />
    <glyph glyph-name="uhungarumlaut" unicode="&#x171;" 
d="M720 -22q-226 0 -356 49.5t-185 166t-55 318.5v640h193v-640q0 -114 18.5 -187.5t65.5 -114t132.5 -56.5t220.5 -16q200 0 314 33t161.5 103.5t47.5 183.5v694h192v-1152h-192v153q-42 -58 -106 -97t-171 -58.5t-280 -19.5zM1075 1304l-64 96l576 480l128 -192zM522 1304
l-64 96l576 480l128 -192z" />
    <glyph glyph-name="Uogonek" unicode="&#x172;" horiz-adv-x="2120" 
d="M879 -32q-225 0 -370 30.5t-226.5 112.5t-114 236t-32.5 401v788h192v-788q0 -170 12 -282t45 -179t94.5 -100t159.5 -43t240 -10h362q143 0 240.5 10t159 43t94.5 100t45 179t12 282v788h192v-788q0 -247 -32.5 -401t-114 -236t-226.5 -112.5t-370 -30.5h-362z
M1121 -555q-259 0 -351 135q-33 50 -33 103t10.5 85.5t29.5 63.5q68 108 216 189h128q-192 -127 -192 -288q0 -79 53.5 -103.5t138.5 -24.5v-160z" />
    <glyph glyph-name="uogonek" unicode="&#x173;" 
d="M720 -22q-226 0 -356 49.5t-185 166t-55 318.5v640h193v-640q0 -114 18.5 -187.5t65.5 -114t132.5 -56.5t220.5 -16q200 0 314 33t161.5 103.5t47.5 183.5v694h192v-1152h-192v153q-42 -58 -106 -97t-171 -58.5t-280 -19.5zM1411 -556q-259 0 -351 135q-33 50 -33 103
t10.5 85.5t29.5 63.5q68 108 216 189h128q-192 -127 -192 -288q0 -79 53.5 -103.5t138.5 -24.5v-160z" />
    <glyph glyph-name="Wcircumflex" unicode="&#x174;" horiz-adv-x="3328" 
d="M832 0l-755 1536h221l662 -1373l624 1373h224l624 -1373l598 1373h221l-691 -1536h-256l-608 1343l-608 -1343h-256zM1376 1694l-128 96l320 480h192l320 -480l-128 -96l-288 448z" />
    <glyph glyph-name="wcircumflex" unicode="&#x175;" horiz-adv-x="2240" 
d="M512 0l-442 1152h218l351 -997h2l383 997h192l379 -997h2l355 997h218l-442 -1152h-256l-351 933h-2l-351 -933h-256zM832 1310l-128 96l320 480h192l320 -480l-128 -96l-288 448z" />
    <glyph glyph-name="Ycircumflex" unicode="&#x176;" horiz-adv-x="2176" 
d="M992 0v640l-864 896h256l704 -752l704 752h256l-864 -896v-640h-192zM800 1694l-128 96l320 480h192l320 -480l-128 -96l-288 448z" />
    <glyph glyph-name="ycircumflex" unicode="&#x177;" horiz-adv-x="1568" 
d="M308 -384v160q103 0 170.5 4.5t113 25t82 66.5t76.5 128h-64l-640 1152h220l548 -1009l461 1009h225l-584 -1216q-39 -81 -80.5 -141t-104 -100t-163.5 -59.5t-260 -19.5zM496 1310l-128 96l320 480h192l320 -480l-128 -96l-288 448z" />
    <glyph glyph-name="Ydieresis" unicode="&#x178;" horiz-adv-x="2176" 
d="M992 0v640l-864 896h256l704 -752l704 752h256l-864 -896v-640h-192zM1346 1728v192h192v-192h-192zM638 1728v192h192v-192h-192z" />
    <glyph glyph-name="Zacute" unicode="&#x179;" horiz-adv-x="2046" 
d="M128 0v160l1486 1216h-1422v160h1696v-160l-1494 -1216h1526v-160h-1792zM799 1726l-64 96l576 480l118 -172z" />
    <glyph glyph-name="zacute" unicode="&#x17a;" horiz-adv-x="1472" 
d="M128 0v160l973 844h-909v148h1152v-160l-959 -842h959v-150h-1216zM512 1342l-64 96l576 480l118 -172z" />
    <glyph glyph-name="Zdotaccent" unicode="&#x17b;" horiz-adv-x="2046" 
d="M128 0v160l1486 1216h-1422v160h1696v-160l-1494 -1216h1526v-160h-1792zM927 1728v192h192v-192h-192z" />
    <glyph glyph-name="zdotaccent" unicode="&#x17c;" horiz-adv-x="1472" 
d="M128 0v160l973 844h-909v148h1152v-160l-959 -842h959v-150h-1216zM640 1344v192h192v-192h-192z" />
    <glyph glyph-name="Zcaron" unicode="&#x17d;" horiz-adv-x="2046" 
d="M128 0v160l1486 1216h-1422v160h1696v-160l-1494 -1216h1526v-160h-1792zM927 1700l-320 480l128 96l288 -448l288 448l128 -96l-320 -480h-192z" />
    <glyph glyph-name="zcaron" unicode="&#x17e;" horiz-adv-x="1472" 
d="M128 0v160l973 844h-909v148h1152v-160l-959 -842h959v-150h-1216zM640 1316l-320 480l128 96l288 -448l288 448l128 -96l-320 -480h-192z" />
    <glyph glyph-name="Dtail" unicode="&#x189;" horiz-adv-x="2112" 
d="M128 0v704h-128v160h128v672h1151q340 0 495 -83q81 -44 122 -105q64 -94 76 -232t12 -296v-52q0 -65 -1 -124.5t-3 -113.5q-5 -163 -50.5 -275.5t-155.5 -171.5q-155 -83 -495 -83h-1151zM320 160h959q266 0 360 36q62 23 91 65.5t45 116.5q17 82 17 390t-20 402
q-16 75 -48.5 113.5t-103.5 64.5q-74 28 -341 28h-959v-512h448v-160h-448v-544z" />
    <glyph glyph-name="florin" unicode="&#x192;" horiz-adv-x="1184" 
d="M-1 -288v160h56q94 0 160 16t89 92q16 51 16 148v832h-192v128h192v64q0 238 112 328q109 88 401 88h127v-160h-183q-94 0 -160 -15.5t-89 -92.5q-16 -51 -16 -148v-64h448v-128h-448v-832q0 -238 -112 -328q-109 -88 -401 -88z" />
    <glyph glyph-name="uni01C0" unicode="&#x1c0;" horiz-adv-x="448" 
d="M128 -128v1728h192v-1728h-192z" />
    <glyph glyph-name="uni01C1" unicode="&#x1c1;" horiz-adv-x="896" 
d="M576 -128v1728h192v-1728h-192zM128 -128v1728h192v-1728h-192z" />
    <glyph glyph-name="uni01C4" unicode="&#x1c4;" horiz-adv-x="4253" 
d="M196 0v1536h1140q225 0 370 -27t226.5 -104.5t114 -225.5t32.5 -391v-40q0 -235 -32.5 -382.5t-114 -227t-226.5 -109t-370 -29.5h-1140zM388 166h948q179 0 288 17t166 74t77 174t20 317v40q0 166 -12 274t-44.5 170.5t-94 92t-159.5 37.5t-241 8h-948v-1204zM2335 0
v160l1486 1216h-1422v160h1696v-160l-1494 -1216h1526v-160h-1792zM3134 1700l-320 480l128 96l288 -448l288 448l128 -96l-320 -480h-192z" />
    <glyph glyph-name="uni01C5" unicode="&#x1c5;" horiz-adv-x="3679" 
d="M196 0v1536h1140q225 0 370 -27t226.5 -104.5t114 -225.5t32.5 -391v-40q0 -235 -32.5 -382.5t-114 -227t-226.5 -109t-370 -29.5h-1140zM388 166h948q179 0 288 17t166 74t77 174t20 317v40q0 166 -12 274t-44.5 170.5t-94 92t-159.5 37.5t-241 8h-948v-1204zM2335 0
v160l973 844h-909v148h1152v-160l-959 -842h959v-150h-1216zM2847 1316l-320 480l128 96l288 -448l288 448l128 -96l-320 -480h-192z" />
    <glyph glyph-name="uni01C6" unicode="&#x1c6;" horiz-adv-x="3110" 
d="M801 -22q-193 0 -328 19.5t-218 80t-121 181.5t-38 323q0 196 38 314t121 178t218 80t328 20q185 0 312.5 -28t200.5 -125v515h192v-1536h-192v132q-73 -98 -200.5 -126t-312.5 -28zM1314 582q0 143 -20 229t-74 129.5t-155 58.5t-264 15q-178 0 -282 -15t-153 -58.5
t-63.5 -129.5t-14.5 -229q0 -148 14.5 -237t63.5 -133.5t153 -59t282 -14.5q163 0 264 14.5t155 59t74 133.5t20 237zM1766 0v160l973 844h-909v148h1152v-160l-959 -842h959v-150h-1216zM2278 1316l-320 480l128 96l288 -448l288 448l128 -96l-320 -480h-192z" />
    <glyph glyph-name="uni01C7" unicode="&#x1c7;" horiz-adv-x="3379" 
d="M192 0v1536h192v-1376h1216v-160h-1408zM2240 0q-191 0 -298.5 55t-133.5 215q-16 95 -16 242v64h192v-64q0 -228 56 -298q31 -38 80.5 -48t119.5 -10h448q173 0 246.5 61.5t73.5 230.5v1088h192v-1088q0 -244 -112 -344q-116 -104 -400 -104h-448z" />
    <glyph glyph-name="uni01C8" unicode="&#x1c8;" horiz-adv-x="2336" 
d="M192 0v1536h192v-1376h1216v-160h-1408zM1952 1344v192h192v-192h-192zM1627 -384v160h145q97 0 138.5 36.5t41.5 163.5v1176h192v-1176q0 -181 -83 -270.5t-289 -89.5h-145z" />
    <glyph glyph-name="uni01C9" unicode="&#x1c9;" horiz-adv-x="1248" 
d="M192 0v1536h192v-1536h-192zM864 1344v192h192v-192h-192zM539 -384v160h145q97 0 138.5 36.5t41.5 163.5v1176h192v-1176q0 -181 -83 -270.5t-289 -89.5h-145z" />
    <glyph glyph-name="uni01CA" unicode="&#x1ca;" horiz-adv-x="4036" 
d="M192 0v1536h200l1543 -1299h2v1299h192v-1536h-200l-1543 1310h-2v-1310h-192zM2897 0q-191 0 -298.5 55t-133.5 215q-16 95 -16 242v64h192v-64q0 -228 56 -298q31 -38 80.5 -48t119.5 -10h448q173 0 246.5 61.5t73.5 230.5v1088h192v-1088q0 -244 -112 -344
q-116 -104 -400 -104h-448z" />
    <glyph glyph-name="uni01CB" unicode="&#x1cb;" horiz-adv-x="2993" 
d="M192 0v1536h200l1543 -1299h2v1299h192v-1536h-200l-1543 1310h-2v-1310h-192zM2609 1344v192h192v-192h-192zM2284 -384v160h145q97 0 138.5 36.5t41.5 163.5v1176h192v-1176q0 -181 -83 -270.5t-289 -89.5h-145z" />
    <glyph glyph-name="uni01CC" unicode="&#x1cc;" horiz-adv-x="2273" 
d="M132 0v1152h192v-153q43 58 106.5 97t170 58.5t279.5 19.5q226 0 356.5 -44t185.5 -157t55 -320v-653h-193v653q0 118 -20 190t-68.5 109t-133.5 49.5t-216 12.5q-200 0 -314 -33t-161 -103.5t-47 -183.5v-694h-192zM1889 1344v192h192v-192h-192zM1564 -384v160h145
q97 0 138.5 36.5t41.5 163.5v1176h192v-1176q0 -181 -83 -270.5t-289 -89.5h-145z" />
    <glyph glyph-name="uni01CD" unicode="&#x1cd;" horiz-adv-x="2176" 
d="M64 0l896 1536h256l896 -1536h-224l-192 352h-1216l-192 -352h-224zM576 512h1024l-512 896zM992 1700l-320 480l128 96l288 -448l288 448l128 -96l-320 -480h-192z" />
    <glyph glyph-name="uni01CE" unicode="&#x1ce;" horiz-adv-x="1560" 
d="M736 -22q-207 0 -341.5 21.5t-200 94.5t-65.5 227q0 157 61.5 230.5t195 95.5t350.5 22q176 0 295 -8t213 -28q-2 133 -18 209.5t-60 113.5t-128.5 47.5t-224.5 10.5q-160 0 -250.5 -7t-131.5 -25t-51.5 -52t-10.5 -88h-192q0 108 29.5 174t100.5 100t194.5 46t311.5 12
q202 0 325.5 -26t188 -93.5t87 -188.5t22.5 -312v-554h-192v79q-34 -36 -94 -58t-159.5 -32.5t-254.5 -10.5zM736 134q171 0 273 4t152.5 22t66.5 58t16 112v177l-508 6q-135 2 -217.5 -3.5t-125.5 -24t-57.5 -58t-14.5 -106.5q0 -65 14.5 -103t57.5 -56t125.5 -23t217.5 -5
zM708 1316l-320 480l128 96l288 -448l288 448l128 -96l-320 -480h-192z" />
    <glyph glyph-name="uni01CF" unicode="&#x1cf;" horiz-adv-x="576" 
d="M192 0v1536h192v-1536h-192zM192 1700l-320 480l128 96l288 -448l288 448l128 -96l-320 -480h-192z" />
    <glyph glyph-name="uni01D0" unicode="&#x1d0;" horiz-adv-x="448" 
d="M128 0v1088h192v-1088h-192zM128 1316l-320 480l128 96l288 -448l288 448l128 -96l-320 -480h-192z" />
    <glyph glyph-name="uni01D1" unicode="&#x1d1;" horiz-adv-x="2145" 
d="M871 -32q-225 0 -370 30.5t-226.5 112.5t-114 236t-32.5 401v40q0 204 20 342.5t69 225.5t133.5 133t212.5 62.5t308 16.5h403q180 0 308 -16.5t212.5 -62.5t133.5 -133t69 -225.5t20 -342.5v-40q0 -247 -32.5 -401t-114 -236t-226.5 -112.5t-370 -30.5h-403zM871 134
h403q143 0 241 10t159.5 43t94 100t44.5 179t12 282v40q0 176 -12 290t-44.5 180t-94 96.5t-159.5 39t-241 8.5h-403q-143 0 -241 -8.5t-159.5 -39t-94 -96.5t-44.5 -180t-12 -290v-40q0 -170 12 -282t44.5 -179t94 -100t159.5 -43t241 -10zM977 1700l-320 480l128 96
l288 -448l288 448l128 -96l-320 -480h-192z" />
    <glyph glyph-name="uni01D2" unicode="&#x1d2;" horiz-adv-x="1602" 
d="M801 -22q-193 0 -328 19.5t-218 80t-121 181.5t-38 323q0 196 38 314t121 178t218 80t328 20q194 0 328.5 -20t217.5 -80t121 -178t38 -314q0 -202 -38 -323t-121 -181.5t-217.5 -80t-328.5 -19.5zM1314 582q0 143 -14.5 229t-63.5 129.5t-152.5 58.5t-282.5 15
q-178 0 -282 -15t-153 -58.5t-63.5 -129.5t-14.5 -229q0 -148 14.5 -237t63.5 -133.5t153 -59t282 -14.5q179 0 282.5 14.5t152.5 59t63.5 133.5t14.5 237zM705 1316l-320 480l128 96l288 -448l288 448l128 -96l-320 -480h-192z" />
    <glyph glyph-name="uni01D3" unicode="&#x1d3;" horiz-adv-x="2120" 
d="M879 -32q-225 0 -370 30.5t-226.5 112.5t-114 236t-32.5 401v788h192v-788q0 -170 12 -282t45 -179t94.5 -100t159.5 -43t240 -10h362q143 0 240.5 10t159 43t94.5 100t45 179t12 282v788h192v-788q0 -247 -32.5 -401t-114 -236t-226.5 -112.5t-370 -30.5h-362zM964 1700
l-320 480l128 96l288 -448l288 448l128 -96l-320 -480h-192z" />
    <glyph glyph-name="uni01D4" unicode="&#x1d4;" 
d="M720 -22q-226 0 -356 49.5t-185 166t-55 318.5v640h193v-640q0 -114 18.5 -187.5t65.5 -114t132.5 -56.5t220.5 -16q200 0 314 33t161.5 103.5t47.5 183.5v694h192v-1152h-192v153q-42 -58 -106 -97t-171 -58.5t-280 -19.5zM705 1316l-320 480l128 96l288 -448l288 448
l128 -96l-320 -480h-192z" />
    <glyph glyph-name="uni01E2" unicode="&#x1e2;" horiz-adv-x="3072" 
d="M0 0l1408 1536h1536v-160h-1280v-512h1216v-160h-1216v-544h1280v-160h-1472v352h-890l-326 -352h-256zM704 512h768v864zM1862 1689v160h768v-160h-768z" />
    <glyph glyph-name="uni01E3" unicode="&#x1e3;" horiz-adv-x="2752" 
d="M762 -36q-114 0 -226 12.5t-204.5 48t-148 104t-55.5 180.5q0 253 176 328q104 45 238 50q132 6 221 6q98 0 204.5 -10.5t192.5 -37t120 -73.5q0 173 -32 279.5t-148 141.5q-73 23 -237 23q-80 0 -142 -2t-106 -6q-103 -10 -167 -49t-64 -152h-192q0 205 140 285
q144 84 502 84q226 0 319 -34q87 -33 138 -77t91 -124q62 138 202 186.5t341 48.5q199 0 297 -19q209 -40 305.5 -165.5t96.5 -385.5l-16 -67h-1136v-28q2 -117 26.5 -200t91.5 -124q70 -43 170.5 -51t219.5 -8q68 0 123.5 2t98.5 6q104 10 167 49.5t63 151.5h192
q0 -202 -140 -285q-145 -84 -468 -84q-142 0 -264 13t-216.5 53t-153.5 120q-101 -139 -398 -180q-40 -5 -95.5 -7.5t-126.5 -2.5zM1472 673h960q0 98 -26 169t-78 107q-95 67 -356 67q-108 0 -205 -8.5t-167.5 -42.5t-101.5 -112q-26 -67 -26 -180zM814 128q121 0 209 7.5
t161 42.5q48 24 72 65.5t24 93.5q0 103 -110 143q-114 42 -400 42q-290 0 -356 -24q-55 -22 -74.5 -54.5t-19.5 -106.5q0 -69 19.5 -110t69.5 -61q50 -21 155 -30q51 -4 114 -6t136 -2zM1002 1305v160h768v-160h-768z" />
    <glyph glyph-name="Gcaron" unicode="&#x1e6;" horiz-adv-x="2177" 
d="M128 748v40q0 204 20 342.5t69 225.5t133.5 133t212.5 62.5t308 16.5h376q236 0 383.5 -18t227 -69t109.5 -148.5t30 -255.5h-192q0 119 -21 185.5t-79 96t-168.5 36.5t-289.5 7h-376q-143 0 -241 -8.5t-159.5 -39t-94 -96.5t-44.5 -180t-12 -290v-40q0 -170 12 -282
t44.5 -179t94 -100t159.5 -43t241 -10h443q165 0 266 13.5t153.5 58t70.5 136t18 247.5v59h-735v160h927v-219q0 -195 -33 -317t-111.5 -188.5t-214 -91t-341.5 -24.5h-443q-225 0 -370 30.5t-226.5 112.5t-114 236t-32.5 401zM993 1700l-320 480l128 96l288 -448l288 448
l128 -96l-320 -480h-192z" />
    <glyph glyph-name="gcaron" unicode="&#x1e7;" horiz-adv-x="1612" 
d="M835 -439q-153 0 -278.5 7.5t-215.5 36t-139 90t-49 168.5h192q0 -70 54.5 -100t163.5 -36t272 -6q121 0 207 7.5t140.5 43.5t80 120.5t25.5 237.5v27q-70 -90 -192.5 -119t-303.5 -29q-187 0 -319 21.5t-214.5 81.5t-120.5 174t-38 298q0 196 38 314t120.5 177.5
t214.5 79t319 19.5q181 0 303.5 -26.5t192.5 -117.5v122h192v-1030q-4 -190 -48 -302.5t-125.5 -168t-200 -73t-271.5 -17.5zM1288 584q0 143 -17.5 228.5t-68 129t-149 58t-261.5 14.5q-172 0 -272.5 -14.5t-149.5 -58t-63.5 -129t-14.5 -228.5q0 -130 14.5 -212t63 -126
t149.5 -60.5t273 -16.5q163 0 261.5 16.5t149 60.5t68 126t17.5 212zM710 1316l-320 480l128 96l288 -448l288 448l128 -96l-320 -480h-192z" />
    <glyph glyph-name="uni01E8" unicode="&#x1e8;" horiz-adv-x="2016" 
d="M192 0v1536h192v-672h255l993 672h288l-1088 -752l1120 -784h-288l-1024 704h-256v-704h-192zM912 1700l-320 480l128 96l288 -448l288 448l128 -96l-320 -480h-192z" />
    <glyph glyph-name="uni01E9" unicode="&#x1e9;" horiz-adv-x="1414" 
d="M134 0v1536h192v-887l765 503h291l-813 -541l845 -611h-286l-802 591v-591h-192zM134 1700l-320 480l128 96l288 -448l288 448l128 -96l-320 -480h-192z" />
    <glyph glyph-name="uni01EA" unicode="&#x1ea;" horiz-adv-x="2145" 
d="M871 -32q-225 0 -370 30.5t-226.5 112.5t-114 236t-32.5 401v40q0 204 20 342.5t69 225.5t133.5 133t212.5 62.5t308 16.5h403q180 0 308 -16.5t212.5 -62.5t133.5 -133t69 -225.5t20 -342.5v-40q0 -247 -32.5 -401t-114 -236t-226.5 -112.5t-370 -30.5h-403zM871 134
h403q143 0 241 10t159.5 43t94 100t44.5 179t12 282v40q0 176 -12 290t-44.5 180t-94 96.5t-159.5 39t-241 8.5h-403q-143 0 -241 -8.5t-159.5 -39t-94 -96.5t-44.5 -180t-12 -290v-40q0 -170 12 -282t44.5 -179t94 -100t159.5 -43t241 -10zM1204 -556q-259 0 -351 135
q-33 50 -33 103t10.5 85.5t29.5 63.5q68 108 216 189h128q-192 -127 -192 -288q0 -79 53.5 -103.5t138.5 -24.5v-160z" />
    <glyph glyph-name="uni01EB" unicode="&#x1eb;" horiz-adv-x="1602" 
d="M801 -22q-193 0 -328 19.5t-218 80t-121 181.5t-38 323q0 196 38 314t121 178t218 80t328 20q194 0 328.5 -20t217.5 -80t121 -178t38 -314q0 -202 -38 -323t-121 -181.5t-217.5 -80t-328.5 -19.5zM1314 582q0 143 -14.5 229t-63.5 129.5t-152.5 58.5t-282.5 15
q-178 0 -282 -15t-153 -58.5t-63.5 -129.5t-14.5 -229q0 -148 14.5 -237t63.5 -133.5t153 -59t282 -14.5q179 0 282.5 14.5t152.5 59t63.5 133.5t14.5 237zM896 -556q-259 0 -351 135q-33 50 -33 103t10.5 85.5t29.5 63.5q68 108 216 189h128q-192 -127 -192 -288
q0 -79 53.5 -103.5t138.5 -24.5v-160z" />
    <glyph glyph-name="uni01F0" unicode="&#x1f0;" horiz-adv-x="608" 
d="M128 -384v160q97 0 128.5 31.5t31.5 128.5v1216h192v-1216q0 -76 -10.5 -134.5t-45.5 -99.5q-74 -86 -296 -86zM288 1316l-320 480l128 96l288 -448l288 448l128 -96l-320 -480h-192z" />
    <glyph glyph-name="uni01F1" unicode="&#x1f1;" horiz-adv-x="4253" 
d="M196 0v1536h1140q225 0 370 -27t226.5 -104.5t114 -225.5t32.5 -391v-40q0 -235 -32.5 -382.5t-114 -227t-226.5 -109t-370 -29.5h-1140zM388 166h948q179 0 288 17t166 74t77 174t20 317v40q0 166 -12 274t-44.5 170.5t-94 92t-159.5 37.5t-241 8h-948v-1204zM2335 0
v160l1486 1216h-1422v160h1696v-160l-1494 -1216h1526v-160h-1792z" />
    <glyph glyph-name="uni01F2" unicode="&#x1f2;" horiz-adv-x="3679" 
d="M196 0v1536h1140q225 0 370 -27t226.5 -104.5t114 -225.5t32.5 -391v-40q0 -235 -32.5 -382.5t-114 -227t-226.5 -109t-370 -29.5h-1140zM388 166h948q179 0 288 17t166 74t77 174t20 317v40q0 166 -12 274t-44.5 170.5t-94 92t-159.5 37.5t-241 8h-948v-1204zM2335 0
v160l973 844h-909v148h1152v-160l-959 -842h959v-150h-1216z" />
    <glyph glyph-name="uni01F3" unicode="&#x1f3;" horiz-adv-x="3110" 
d="M801 -22q-193 0 -328 19.5t-218 80t-121 181.5t-38 323q0 196 38 314t121 178t218 80t328 20q185 0 312.5 -28t200.5 -125v515h192v-1536h-192v132q-73 -98 -200.5 -126t-312.5 -28zM1314 582q0 143 -20 229t-74 129.5t-155 58.5t-264 15q-178 0 -282 -15t-153 -58.5
t-63.5 -129.5t-14.5 -229q0 -148 14.5 -237t63.5 -133.5t153 -59t282 -14.5q163 0 264 14.5t155 59t74 133.5t20 237zM1766 0v160l973 844h-909v148h1152v-160l-959 -842h959v-150h-1216z" />
    <glyph glyph-name="uni01F4" unicode="&#x1f4;" horiz-adv-x="2177" 
d="M128 748v40q0 204 20 342.5t69 225.5t133.5 133t212.5 62.5t308 16.5h376q236 0 383.5 -18t227 -69t109.5 -148.5t30 -255.5h-192q0 119 -21 185.5t-79 96t-168.5 36.5t-289.5 7h-376q-143 0 -241 -8.5t-159.5 -39t-94 -96.5t-44.5 -180t-12 -290v-40q0 -170 12 -282
t44.5 -179t94 -100t159.5 -43t241 -10h443q165 0 266 13.5t153.5 58t70.5 136t18 247.5v59h-735v160h927v-219q0 -195 -33 -317t-111.5 -188.5t-214 -91t-341.5 -24.5h-443q-225 0 -370 30.5t-226.5 112.5t-114 236t-32.5 401zM865 1726l-64 96l576 480l118 -172z" />
    <glyph glyph-name="uni01F5" unicode="&#x1f5;" horiz-adv-x="1612" 
d="M835 -439q-153 0 -278.5 7.5t-215.5 36t-139 90t-49 168.5h192q0 -70 54.5 -100t163.5 -36t272 -6q121 0 207 7.5t140.5 43.5t80 120.5t25.5 237.5v27q-70 -90 -192.5 -119t-303.5 -29q-187 0 -319 21.5t-214.5 81.5t-120.5 174t-38 298q0 196 38 314t120.5 177.5
t214.5 79t319 19.5q181 0 303.5 -26.5t192.5 -117.5v122h192v-1030q-4 -190 -48 -302.5t-125.5 -168t-200 -73t-271.5 -17.5zM1288 584q0 143 -17.5 228.5t-68 129t-149 58t-261.5 14.5q-172 0 -272.5 -14.5t-149.5 -58t-63.5 -129t-14.5 -228.5q0 -130 14.5 -212t63 -126
t149.5 -60.5t273 -16.5q163 0 261.5 16.5t149 60.5t68 126t17.5 212zM582 1342l-64 96l576 480l118 -172z" />
    <glyph glyph-name="uni01F8" unicode="&#x1f8;" horiz-adv-x="2321" 
d="M192 0v1536h200l1543 -1299h2v1299h192v-1536h-200l-1543 1310h-2v-1310h-192zM1511 1724l-630 404l118 172l576 -480z" />
    <glyph glyph-name="uni01F9" unicode="&#x1f9;" 
d="M132 0v1152h192v-153q43 58 106.5 97t170 58.5t279.5 19.5q226 0 356.5 -44t185.5 -157t55 -320v-653h-193v653q0 118 -20 190t-68.5 109t-133.5 49.5t-216 12.5q-200 0 -314 -33t-161 -103.5t-47 -183.5v-694h-192zM1151 1340l-630 404l118 172l576 -480z" />
    <glyph glyph-name="Aringacute" unicode="&#x1fa;" horiz-adv-x="2176" 
d="M64 0l896 1536h256l896 -1536h-224l-192 352h-1216l-192 -352h-224zM576 512h1024l-512 896zM1088 1724q-166 0 -259 86t-93 234q0 154 97.5 237t254.5 83q166 0 259 -86t93 -234q0 -154 -97.5 -237t-254.5 -83zM1088 1852q109 0 164 70q28 35 28 122q0 96 -45.5 144
t-146.5 48q-109 0 -164 -70q-28 -35 -28 -122q0 -96 46 -144t146 -48zM864 2464l-64 96l576 480l118 -172z" />
    <glyph glyph-name="aringacute" unicode="&#x1fb;" horiz-adv-x="1560" 
d="M736 -22q-207 0 -341.5 21.5t-200 94.5t-65.5 227q0 157 61.5 230.5t195 95.5t350.5 22q176 0 295 -8t213 -28q-2 133 -18 209.5t-60 113.5t-128.5 47.5t-224.5 10.5q-160 0 -250.5 -7t-131.5 -25t-51.5 -52t-10.5 -88h-192q0 108 29.5 174t100.5 100t194.5 46t311.5 12
q202 0 325.5 -26t188 -93.5t87 -188.5t22.5 -312v-554h-192v79q-34 -36 -94 -58t-159.5 -32.5t-254.5 -10.5zM736 134q171 0 273 4t152.5 22t66.5 58t16 112v177l-508 6q-135 2 -217.5 -3.5t-125.5 -24t-57.5 -58t-14.5 -106.5q0 -65 14.5 -103t57.5 -56t125.5 -23t217.5 -5
zM804 1340q-166 0 -259 86t-93 234q0 154 97.5 237t254.5 83q166 0 259 -86t93 -234q0 -154 -97.5 -237t-254.5 -83zM804 1468q109 0 164 70q28 35 28 122q0 96 -45.5 144t-146.5 48q-109 0 -164 -70q-28 -35 -28 -122q0 -96 46 -144t146 -48zM580 2080l-64 96l576 480
l118 -172z" />
    <glyph glyph-name="AEacute" unicode="&#x1fc;" horiz-adv-x="3072" 
d="M0 0l1408 1536h1536v-160h-1280v-512h1216v-160h-1216v-544h1280v-160h-1472v352h-890l-326 -352h-256zM704 512h768v864zM2022 1726l-64 96l576 480l118 -172z" />
    <glyph glyph-name="aeacute" unicode="&#x1fd;" horiz-adv-x="2752" 
d="M762 -36q-114 0 -226 12.5t-204.5 48t-148 104t-55.5 180.5q0 253 176 328q104 45 238 50q132 6 221 6q98 0 204.5 -10.5t192.5 -37t120 -73.5q0 173 -32 279.5t-148 141.5q-73 23 -237 23q-80 0 -142 -2t-106 -6q-103 -10 -167 -49t-64 -152h-192q0 205 140 285
q144 84 502 84q226 0 319 -34q87 -33 138 -77t91 -124q62 138 202 186.5t341 48.5q199 0 297 -19q209 -40 305.5 -165.5t96.5 -385.5l-16 -67h-1136v-28q2 -117 26.5 -200t91.5 -124q70 -43 170.5 -51t219.5 -8q68 0 123.5 2t98.5 6q104 10 167 49.5t63 151.5h192
q0 -202 -140 -285q-145 -84 -468 -84q-142 0 -264 13t-216.5 53t-153.5 120q-101 -139 -398 -180q-40 -5 -95.5 -7.5t-126.5 -2.5zM1472 673h960q0 98 -26 169t-78 107q-95 67 -356 67q-108 0 -205 -8.5t-167.5 -42.5t-101.5 -112q-26 -67 -26 -180zM814 128q121 0 209 7.5
t161 42.5q48 24 72 65.5t24 93.5q0 103 -110 143q-114 42 -400 42q-290 0 -356 -24q-55 -22 -74.5 -54.5t-19.5 -106.5q0 -69 19.5 -110t69.5 -61q50 -21 155 -30q51 -4 114 -6t136 -2zM1162 1342l-64 96l576 480l118 -172z" />
    <glyph glyph-name="Oslashacute" unicode="&#x1fe;" horiz-adv-x="2145" 
d="M664 -254l-126 52l88 180q-148 15 -245 59.5t-152.5 131.5t-78 228.5t-22.5 350.5v40q0 204 20 342.5t69 225.5t133.5 133t212.5 62.5t308 16.5h403q74 0 133 -2l111 226l126 -52l-91 -184q138 -16 228 -60t141.5 -130.5t73 -227.5t21.5 -350v-40q0 -247 -32.5 -401
t-114 -236t-226.5 -112.5t-370 -30.5h-403q-52 0 -97 1zM320 748q0 -185 14.5 -301.5t54.5 -181.5t116.5 -93t199.5 -35l621 1265h-52h-403q-143 0 -241 -8.5t-159.5 -39t-94 -96.5t-44.5 -180t-12 -290v-40zM871 134h403q143 0 241 10t159.5 43t94 100t44.5 179t12 282v40
q0 184 -13.5 300.5t-50 181t-105.5 92.5t-180 36l-621 -1264h16zM849 1726l-64 96l576 480l118 -172z" />
    <glyph glyph-name="oslashacute" unicode="&#x1ff;" horiz-adv-x="1602" 
d="M515 -233l-117 43l84 185q-139 21 -224 81t-123.5 181t-38.5 325q0 196 38 314t121 178t218 80t328 20q59 0 112 -1.5t101 -4.5l102 224l117 -43l-89 -197q130 -23 209.5 -83.5t116 -177.5t36.5 -309q0 -202 -38 -323t-121 -181.5t-217.5 -80t-328.5 -19.5q-51 0 -98 1
t-90 3zM288 582q0 -156 15.5 -246t71.5 -132.5t176 -55.5l392 864q-31 1 -67 1.5t-75 0.5q-178 0 -282 -15t-153 -58.5t-63.5 -129.5t-14.5 -229zM1314 582q0 144 -14.5 230t-65 129.5t-159.5 59.5l-391 -862q50 -1 117 -1q179 0 282.5 14.5t152.5 59t63.5 133.5t14.5 237z
M577 1342l-64 96l576 480l118 -172z" />
    <glyph glyph-name="uni0200" unicode="&#x200;" horiz-adv-x="2176" 
d="M64 0l896 1536h256l896 -1536h-224l-192 352h-1216l-192 -352h-224zM576 512h1024l-512 896z" />
    <glyph glyph-name="uni0201" unicode="&#x201;" horiz-adv-x="1560" 
d="M736 -22q-207 0 -341.5 21.5t-200 94.5t-65.5 227q0 157 61.5 230.5t195 95.5t350.5 22q176 0 295 -8t213 -28q-2 133 -18 209.5t-60 113.5t-128.5 47.5t-224.5 10.5q-160 0 -250.5 -7t-131.5 -25t-51.5 -52t-10.5 -88h-192q0 108 29.5 174t100.5 100t194.5 46t311.5 12
q202 0 325.5 -26t188 -93.5t87 -188.5t22.5 -312v-554h-192v79q-34 -36 -94 -58t-159.5 -32.5t-254.5 -10.5zM736 134q171 0 273 4t152.5 22t66.5 58t16 112v177l-508 6q-135 2 -217.5 -3.5t-125.5 -24t-57.5 -58t-14.5 -106.5q0 -65 14.5 -103t57.5 -56t125.5 -23t217.5 -5
z" />
    <glyph glyph-name="uni0202" unicode="&#x202;" horiz-adv-x="2176" 
d="M64 0l896 1536h256l896 -1536h-224l-192 352h-1216l-192 -352h-224zM576 512h1024l-512 896zM1088 2081q122 0 207.5 -33.5t131 -118.5t45.5 -238h-160q0 189 -64 228q-40 24 -160 24t-155 -21q-69 -42 -69 -231h-160q0 153 45.5 238t131.5 118.5t207 33.5z" />
    <glyph glyph-name="uni0203" unicode="&#x203;" horiz-adv-x="1560" 
d="M736 -22q-207 0 -341.5 21.5t-200 94.5t-65.5 227q0 157 61.5 230.5t195 95.5t350.5 22q176 0 295 -8t213 -28q-2 133 -18 209.5t-60 113.5t-128.5 47.5t-224.5 10.5q-160 0 -250.5 -7t-131.5 -25t-51.5 -52t-10.5 -88h-192q0 108 29.5 174t100.5 100t194.5 46t311.5 12
q202 0 325.5 -26t188 -93.5t87 -188.5t22.5 -312v-554h-192v79q-34 -36 -94 -58t-159.5 -32.5t-254.5 -10.5zM736 134q171 0 273 4t152.5 22t66.5 58t16 112v177l-508 6q-135 2 -217.5 -3.5t-125.5 -24t-57.5 -58t-14.5 -106.5q0 -65 14.5 -103t57.5 -56t125.5 -23t217.5 -5
zM804 1697q122 0 207.5 -33.5t131 -118.5t45.5 -238h-160q0 189 -64 228q-40 24 -160 24t-155 -21q-69 -42 -69 -231h-160q0 153 45.5 238t131.5 118.5t207 33.5z" />
    <glyph glyph-name="uni0204" unicode="&#x204;" horiz-adv-x="1792" 
d="M192 0v1536h1508v-160h-1316v-512h1261v-160h-1261v-544h1344v-160h-1536z" />
    <glyph glyph-name="uni0205" unicode="&#x205;" horiz-adv-x="1567" 
d="M1447 342q0 -129 -38.5 -203t-117.5 -108t-201.5 -43.5t-291.5 -9.5q-193 0 -327.5 19.5t-217 80t-120 181.5t-37.5 323q0 196 36.5 314t118.5 178t215.5 80t326.5 20q221 0 366 -31t216.5 -118t71.5 -255v-247h-1158q1 -128 18 -205t68 -116t152.5 -51.5t270.5 -12.5
q152 0 245.5 6t142 26.5t65.5 61.5t17 110h179zM793 1014q-163 0 -262.5 -12t-151.5 -46.5t-70.5 -102.5t-19.5 -179h974v96q0 72 -16.5 119.5t-64.5 75t-141.5 38.5t-247.5 11z" />
    <glyph glyph-name="uni0206" unicode="&#x206;" horiz-adv-x="1792" 
d="M192 0v1536h1508v-160h-1316v-512h1261v-160h-1261v-544h1344v-160h-1536zM956 2081q122 0 207.5 -33.5t131 -118.5t45.5 -238h-160q0 189 -64 228q-40 24 -160 24t-155 -21q-69 -42 -69 -231h-160q0 153 45.5 238t131.5 118.5t207 33.5z" />
    <glyph glyph-name="uni0207" unicode="&#x207;" horiz-adv-x="1567" 
d="M1447 342q0 -129 -38.5 -203t-117.5 -108t-201.5 -43.5t-291.5 -9.5q-193 0 -327.5 19.5t-217 80t-120 181.5t-37.5 323q0 196 36.5 314t118.5 178t215.5 80t326.5 20q221 0 366 -31t216.5 -118t71.5 -255v-247h-1158q1 -128 18 -205t68 -116t152.5 -51.5t270.5 -12.5
q152 0 245.5 6t142 26.5t65.5 61.5t17 110h179zM793 1014q-163 0 -262.5 -12t-151.5 -46.5t-70.5 -102.5t-19.5 -179h974v96q0 72 -16.5 119.5t-64.5 75t-141.5 38.5t-247.5 11zM784 1697q122 0 207.5 -33.5t131 -118.5t45.5 -238h-160q0 189 -64 228q-40 24 -160 24
t-155 -21q-69 -42 -69 -231h-160q0 153 45.5 238t131.5 118.5t207 33.5z" />
    <glyph glyph-name="uni0208" unicode="&#x208;" horiz-adv-x="576" 
d="M192 0v1536h192v-1536h-192z" />
    <glyph glyph-name="uni0209" unicode="&#x209;" horiz-adv-x="448" 
d="M128 0v1088h192v-1088h-192z" />
    <glyph glyph-name="uni020A" unicode="&#x20a;" horiz-adv-x="576" 
d="M192 0v1536h192v-1536h-192zM288 2081q122 0 207.5 -33.5t131 -118.5t45.5 -238h-160q0 189 -64 228q-40 24 -160 24t-155 -21q-69 -42 -69 -231h-160q0 153 45.5 238t131.5 118.5t207 33.5z" />
    <glyph glyph-name="uni020B" unicode="&#x20b;" horiz-adv-x="448" 
d="M128 0v1088h192v-1088h-192zM224 1697q122 0 207.5 -33.5t131 -118.5t45.5 -238h-160q0 189 -64 228q-40 24 -160 24t-155 -21q-69 -42 -69 -231h-160q0 153 45.5 238t131.5 118.5t207 33.5z" />
    <glyph glyph-name="uni020C" unicode="&#x20c;" horiz-adv-x="2145" 
d="M871 -32q-225 0 -370 30.5t-226.5 112.5t-114 236t-32.5 401v40q0 204 20 342.5t69 225.5t133.5 133t212.5 62.5t308 16.5h403q180 0 308 -16.5t212.5 -62.5t133.5 -133t69 -225.5t20 -342.5v-40q0 -247 -32.5 -401t-114 -236t-226.5 -112.5t-370 -30.5h-403zM871 134
h403q143 0 241 10t159.5 43t94 100t44.5 179t12 282v40q0 176 -12 290t-44.5 180t-94 96.5t-159.5 39t-241 8.5h-403q-143 0 -241 -8.5t-159.5 -39t-94 -96.5t-44.5 -180t-12 -290v-40q0 -170 12 -282t44.5 -179t94 -100t159.5 -43t241 -10z" />
    <glyph glyph-name="uni020D" unicode="&#x20d;" horiz-adv-x="1602" 
d="M801 -22q-193 0 -328 19.5t-218 80t-121 181.5t-38 323q0 196 38 314t121 178t218 80t328 20q194 0 328.5 -20t217.5 -80t121 -178t38 -314q0 -202 -38 -323t-121 -181.5t-217.5 -80t-328.5 -19.5zM1314 582q0 143 -14.5 229t-63.5 129.5t-152.5 58.5t-282.5 15
q-178 0 -282 -15t-153 -58.5t-63.5 -129.5t-14.5 -229q0 -148 14.5 -237t63.5 -133.5t153 -59t282 -14.5q179 0 282.5 14.5t152.5 59t63.5 133.5t14.5 237z" />
    <glyph glyph-name="uni020E" unicode="&#x20e;" horiz-adv-x="2145" 
d="M871 -32q-225 0 -370 30.5t-226.5 112.5t-114 236t-32.5 401v40q0 204 20 342.5t69 225.5t133.5 133t212.5 62.5t308 16.5h403q180 0 308 -16.5t212.5 -62.5t133.5 -133t69 -225.5t20 -342.5v-40q0 -247 -32.5 -401t-114 -236t-226.5 -112.5t-370 -30.5h-403zM871 134
h403q143 0 241 10t159.5 43t94 100t44.5 179t12 282v40q0 176 -12 290t-44.5 180t-94 96.5t-159.5 39t-241 8.5h-403q-143 0 -241 -8.5t-159.5 -39t-94 -96.5t-44.5 -180t-12 -290v-40q0 -170 12 -282t44.5 -179t94 -100t159.5 -43t241 -10zM1073 2081q122 0 207.5 -33.5
t131 -118.5t45.5 -238h-160q0 189 -64 228q-40 24 -160 24t-155 -21q-69 -42 -69 -231h-160q0 153 45.5 238t131.5 118.5t207 33.5z" />
    <glyph glyph-name="uni020F" unicode="&#x20f;" horiz-adv-x="1602" 
d="M801 -22q-193 0 -328 19.5t-218 80t-121 181.5t-38 323q0 196 38 314t121 178t218 80t328 20q194 0 328.5 -20t217.5 -80t121 -178t38 -314q0 -202 -38 -323t-121 -181.5t-217.5 -80t-328.5 -19.5zM1314 582q0 143 -14.5 229t-63.5 129.5t-152.5 58.5t-282.5 15
q-178 0 -282 -15t-153 -58.5t-63.5 -129.5t-14.5 -229q0 -148 14.5 -237t63.5 -133.5t153 -59t282 -14.5q179 0 282.5 14.5t152.5 59t63.5 133.5t14.5 237zM801 1697q122 0 207.5 -33.5t131 -118.5t45.5 -238h-160q0 189 -64 228q-40 24 -160 24t-155 -21q-69 -42 -69 -231
h-160q0 153 45.5 238t131.5 118.5t207 33.5z" />
    <glyph glyph-name="uni0210" unicode="&#x210;" horiz-adv-x="2087" 
d="M196 1536h1028q225 0 362.5 -20t208.5 -69t96 -134t25 -215v-40q0 -120 -28.5 -206.5t-109.5 -140t-240 -75.5l334 -636h-192l-327 622q-20 -1 -41.5 -1h-44.5h-879v-621h-192v1536zM388 787h849q171 0 269.5 11.5t145 40.5t59.5 82t13 137v40q0 95 -18 150t-72 81
t-161 33.5t-286 7.5h-799v-583z" />
    <glyph glyph-name="uni0211" unicode="&#x211;" horiz-adv-x="986" 
d="M148 0v1152h192v-159q32 51 64.5 85t85 54t142.5 28.5t237 8.5v-161q-198 0 -306.5 -14t-155.5 -47.5t-57 -92.5t-10 -150v-704h-192z" />
    <glyph glyph-name="uni0212" unicode="&#x212;" horiz-adv-x="2087" 
d="M196 1536h1028q225 0 362.5 -20t208.5 -69t96 -134t25 -215v-40q0 -120 -28.5 -206.5t-109.5 -140t-240 -75.5l334 -636h-192l-327 622q-20 -1 -41.5 -1h-44.5h-879v-621h-192v1536zM388 787h849q171 0 269.5 11.5t145 40.5t59.5 82t13 137v40q0 95 -18 150t-72 81
t-161 33.5t-286 7.5h-799v-583zM1004 2081q122 0 207.5 -33.5t131 -118.5t45.5 -238h-160q0 189 -64 228q-40 24 -160 24t-155 -21q-69 -42 -69 -231h-160q0 153 45.5 238t131.5 118.5t207 33.5z" />
    <glyph glyph-name="uni0213" unicode="&#x213;" horiz-adv-x="986" 
d="M148 0v1152h192v-159q32 51 64.5 85t85 54t142.5 28.5t237 8.5v-161q-198 0 -306.5 -14t-155.5 -47.5t-57 -92.5t-10 -150v-704h-192zM507 1697q122 0 207.5 -33.5t131 -118.5t45.5 -238h-160q0 189 -64 228q-40 24 -160 24t-155 -21q-69 -42 -69 -231h-160
q0 153 45.5 238t131.5 118.5t207 33.5z" />
    <glyph glyph-name="uni0214" unicode="&#x214;" horiz-adv-x="2120" 
d="M879 -32q-225 0 -370 30.5t-226.5 112.5t-114 236t-32.5 401v788h192v-788q0 -170 12 -282t45 -179t94.5 -100t159.5 -43t240 -10h362q143 0 240.5 10t159 43t94.5 100t45 179t12 282v788h192v-788q0 -247 -32.5 -401t-114 -236t-226.5 -112.5t-370 -30.5h-362z" />
    <glyph glyph-name="uni0215" unicode="&#x215;" 
d="M720 -22q-226 0 -356 49.5t-185 166t-55 318.5v640h193v-640q0 -114 18.5 -187.5t65.5 -114t132.5 -56.5t220.5 -16q200 0 314 33t161.5 103.5t47.5 183.5v694h192v-1152h-192v153q-42 -58 -106 -97t-171 -58.5t-280 -19.5z" />
    <glyph glyph-name="uni0216" unicode="&#x216;" horiz-adv-x="2120" 
d="M879 -32q-225 0 -370 30.5t-226.5 112.5t-114 236t-32.5 401v788h192v-788q0 -170 12 -282t45 -179t94.5 -100t159.5 -43t240 -10h362q143 0 240.5 10t159 43t94.5 100t45 179t12 282v788h192v-788q0 -247 -32.5 -401t-114 -236t-226.5 -112.5t-370 -30.5h-362z
M1060 2081q122 0 207.5 -33.5t131 -118.5t45.5 -238h-160q0 189 -64 228q-40 24 -160 24t-155 -21q-69 -42 -69 -231h-160q0 153 45.5 238t131.5 118.5t207 33.5z" />
    <glyph glyph-name="uni0217" unicode="&#x217;" 
d="M720 -22q-226 0 -356 49.5t-185 166t-55 318.5v640h193v-640q0 -114 18.5 -187.5t65.5 -114t132.5 -56.5t220.5 -16q200 0 314 33t161.5 103.5t47.5 183.5v694h192v-1152h-192v153q-42 -58 -106 -97t-171 -58.5t-280 -19.5zM801 1697q122 0 207.5 -33.5t131 -118.5
t45.5 -238h-160q0 189 -64 228q-40 24 -160 24t-155 -21q-69 -42 -69 -231h-160q0 153 45.5 238t131.5 118.5t207 33.5z" />
    <glyph glyph-name="uni0218" unicode="&#x218;" horiz-adv-x="2142" 
d="M1827 444q0 89 -14 140t-63 75.5t-152 32t-282 10.5l-556 8q-206 3 -331 25t-189 69.5t-85.5 127.5t-21.5 200q0 131 29.5 216t107 133t219.5 67.5t367 19.5h428q204 0 340 -13t216 -60t114.5 -146t34.5 -272h-192q0 134 -25.5 202.5t-84 93.5t-157.5 27t-246 2h-418
q-179 0 -286.5 -7t-162.5 -32t-73.5 -80t-18.5 -151q0 -81 13 -130t58.5 -74.5t140.5 -35t259 -11.5l596 -8q210 -3 335.5 -24.5t188 -69.5t83 -129.5t20.5 -205.5q0 -135 -25.5 -226.5t-98.5 -146.5t-211 -79t-363 -24h-468q-205 0 -344 18t-221.5 72.5t-118.5 162.5
t-36 288h192q0 -141 23 -218t80.5 -110.5t161 -40t263.5 -6.5h458q179 0 283 11.5t154 44t64.5 93.5t14.5 161zM1167 -152l-128 -384h-128l64 384h192z" />
    <glyph glyph-name="uni0219" unicode="&#x219;" horiz-adv-x="1589" 
d="M779 -22q-210 0 -337.5 14t-193 52t-88 108t-22.5 182h184q0 -63 9 -101.5t51 -59t136.5 -28t265.5 -7.5q181 0 281.5 7.5t144.5 28t53.5 59.5t9.5 103q0 78 -14 117t-66 52.5t-166 14.5l-458 5q-177 2 -270 30t-127 98.5t-34 200.5q0 121 37.5 187t117.5 94t208 33.5
t309 5.5q213 0 338.5 -13t188 -49t82 -104.5t19.5 -178.5h-184q0 65 -9 102.5t-48.5 55t-128 22.5t-248.5 5q-182 0 -283 -4t-146 -19t-55 -47.5t-10 -89.5q0 -58 6.5 -91.5t34.5 -50.5t91.5 -22.5t177.5 -6.5l395 -4q178 -2 270.5 -29.5t126 -101t33.5 -212.5
q0 -125 -36.5 -197t-116.5 -106.5t-210.5 -44.5t-318.5 -10zM891 -152l-128 -384h-128l64 384h192z" />
    <glyph glyph-name="uni021A" unicode="&#x21a;" horiz-adv-x="1916" 
d="M862 0v1376h-768v160h1728v-160h-768v-1376h-192zM1054 -152l-128 -384h-128l64 384h192z" />
    <glyph glyph-name="uni021B" unicode="&#x21b;" horiz-adv-x="1297" 
d="M661 0q-176 0 -282 35.5t-153.5 126t-47.5 254.5v1051h192v-315h709v-158h-709v-578q0 -112 20.5 -167t83 -72t187.5 -17q111 0 174.5 7t93.5 37.5t38 100.5t8 197h170q0 -166 -20.5 -266t-73 -151t-147 -68t-243.5 -17zM745 -152l-128 -384h-128l64 384h192z" />
    <glyph glyph-name="uni021E" unicode="&#x21e;" horiz-adv-x="2184" 
d="M196 0v1536h192v-672h1408v672h192v-1536h-192v704h-1408v-704h-192zM996 1700l-320 480l128 96l288 -448l288 448l128 -96l-320 -480h-192z" />
    <glyph glyph-name="uni021F" unicode="&#x21f;" horiz-adv-x="1603" 
d="M132 0v1536h192v-537q43 58 106.5 97t170 58.5t279.5 19.5q226 0 356.5 -44t185.5 -157t55 -320v-653h-193v653q0 118 -20 190t-68.5 109t-133.5 49.5t-216 12.5q-200 0 -314 -33t-161 -103.5t-47 -183.5v-694h-192zM706 1653l-320 480l128 96l288 -448l288 448l128 -96
l-320 -480h-192z" />
    <glyph glyph-name="uni0226" unicode="&#x226;" horiz-adv-x="2176" 
d="M64 0l896 1536h256l896 -1536h-224l-192 352h-1216l-192 -352h-224zM576 512h1024l-512 896zM992 1728v192h192v-192h-192z" />
    <glyph glyph-name="uni0227" unicode="&#x227;" horiz-adv-x="1560" 
d="M736 -22q-207 0 -341.5 21.5t-200 94.5t-65.5 227q0 157 61.5 230.5t195 95.5t350.5 22q176 0 295 -8t213 -28q-2 133 -18 209.5t-60 113.5t-128.5 47.5t-224.5 10.5q-160 0 -250.5 -7t-131.5 -25t-51.5 -52t-10.5 -88h-192q0 108 29.5 174t100.5 100t194.5 46t311.5 12
q202 0 325.5 -26t188 -93.5t87 -188.5t22.5 -312v-554h-192v79q-34 -36 -94 -58t-159.5 -32.5t-254.5 -10.5zM736 134q171 0 273 4t152.5 22t66.5 58t16 112v177l-508 6q-135 2 -217.5 -3.5t-125.5 -24t-57.5 -58t-14.5 -106.5q0 -65 14.5 -103t57.5 -56t125.5 -23t217.5 -5
zM708 1344v192h192v-192h-192z" />
    <glyph glyph-name="uni0228" unicode="&#x228;" horiz-adv-x="1792" 
d="M192 0v1536h1508v-160h-1316v-512h1261v-160h-1261v-544h1344v-160h-1536zM817 -544v160q46 0 90 5t73 23t29 56q0 47 -53 61.5t-139 14.5v288h128v-192q128 0 192 -43.5t64 -146.5q0 -87 -48.5 -136.5t-135 -69.5t-200.5 -20z" />
    <glyph glyph-name="uni0229" unicode="&#x229;" horiz-adv-x="1567" 
d="M1447 342q0 -129 -38.5 -203t-117.5 -108t-201.5 -43.5t-291.5 -9.5q-193 0 -327.5 19.5t-217 80t-120 181.5t-37.5 323q0 196 36.5 314t118.5 178t215.5 80t326.5 20q221 0 366 -31t216.5 -118t71.5 -255v-247h-1158q1 -128 18 -205t68 -116t152.5 -51.5t270.5 -12.5
q152 0 245.5 6t142 26.5t65.5 61.5t17 110h179zM793 1014q-163 0 -262.5 -12t-151.5 -46.5t-70.5 -102.5t-19.5 -179h974v96q0 72 -16.5 119.5t-64.5 75t-141.5 38.5t-247.5 11zM705 -544v160q46 0 90 5t73 23t29 56q0 47 -53 61.5t-139 14.5v288h128v-192q128 0 192 -43.5
t64 -146.5q0 -87 -48.5 -136.5t-135 -69.5t-200.5 -20z" />
    <glyph glyph-name="uni022E" unicode="&#x22e;" horiz-adv-x="2145" 
d="M871 -32q-225 0 -370 30.5t-226.5 112.5t-114 236t-32.5 401v40q0 204 20 342.5t69 225.5t133.5 133t212.5 62.5t308 16.5h403q180 0 308 -16.5t212.5 -62.5t133.5 -133t69 -225.5t20 -342.5v-40q0 -247 -32.5 -401t-114 -236t-226.5 -112.5t-370 -30.5h-403zM871 134
h403q143 0 241 10t159.5 43t94 100t44.5 179t12 282v40q0 176 -12 290t-44.5 180t-94 96.5t-159.5 39t-241 8.5h-403q-143 0 -241 -8.5t-159.5 -39t-94 -96.5t-44.5 -180t-12 -290v-40q0 -170 12 -282t44.5 -179t94 -100t159.5 -43t241 -10zM977 1728v192h192v-192h-192z
" />
    <glyph glyph-name="uni022F" unicode="&#x22f;" horiz-adv-x="1602" 
d="M801 -22q-193 0 -328 19.5t-218 80t-121 181.5t-38 323q0 196 38 314t121 178t218 80t328 20q194 0 328.5 -20t217.5 -80t121 -178t38 -314q0 -202 -38 -323t-121 -181.5t-217.5 -80t-328.5 -19.5zM1314 582q0 143 -14.5 229t-63.5 129.5t-152.5 58.5t-282.5 15
q-178 0 -282 -15t-153 -58.5t-63.5 -129.5t-14.5 -229q0 -148 14.5 -237t63.5 -133.5t153 -59t282 -14.5q179 0 282.5 14.5t152.5 59t63.5 133.5t14.5 237zM705 1344v192h192v-192h-192z" />
    <glyph glyph-name="uni0232" unicode="&#x232;" horiz-adv-x="2176" 
d="M992 0v640l-864 896h256l704 -752l704 752h256l-864 -896v-640h-192zM704 1689v160h768v-160h-768z" />
    <glyph glyph-name="uni0233" unicode="&#x233;" horiz-adv-x="1568" 
d="M308 -384v160q103 0 170.5 4.5t113 25t82 66.5t76.5 128h-64l-640 1152h220l548 -1009l461 1009h225l-584 -1216q-39 -81 -80.5 -141t-104 -100t-163.5 -59.5t-260 -19.5zM400 1305v160h768v-160h-768z" />
    <glyph glyph-name="uni0237" unicode="&#x237;" horiz-adv-x="608" 
d="M128 -384v160q97 0 128.5 31.5t31.5 128.5v1216h192v-1216q0 -76 -10.5 -134.5t-45.5 -99.5q-74 -86 -296 -86z" />
    <glyph glyph-name="circumflex" unicode="&#x2c6;" horiz-adv-x="1088" 
d="M256 1310l-128 96l320 480h192l320 -480l-128 -96l-288 448z" />
    <glyph glyph-name="caron" unicode="&#x2c7;" horiz-adv-x="1088" 
d="M448 1316l-320 480l128 96l288 -448l288 448l128 -96l-320 -480h-192z" />
    <glyph glyph-name="breve" unicode="&#x2d8;" horiz-adv-x="1280" 
d="M640 1307q-121 0 -207 34t-131.5 118.5t-45.5 237.5h160q0 -189 69 -231q35 -21 155 -21t160 24q64 39 64 228h160q0 -153 -45.5 -237.5t-131 -118.5t-207.5 -34z" />
    <glyph glyph-name="dotaccent" unicode="&#x2d9;" horiz-adv-x="448" 
d="M128 1344v192h192v-192h-192z" />
    <glyph glyph-name="ring" unicode="&#x2da;" horiz-adv-x="1280" 
d="M640 1340q-166 0 -259 86t-93 234q0 154 97.5 237t254.5 83q166 0 259 -86t93 -234q0 -154 -97.5 -237t-254.5 -83zM640 1468q109 0 164 70q28 35 28 122q0 96 -45.5 144t-146.5 48q-109 0 -164 -70q-28 -35 -28 -122q0 -96 46 -144t146 -48z" />
    <glyph glyph-name="ogonek" unicode="&#x2db;" horiz-adv-x="640" 
d="M512 -512q-259 0 -351 135q-33 50 -33 103t10.5 85.5t29.5 63.5q68 108 216 189h128q-192 -127 -192 -288q0 -79 53.5 -103.5t138.5 -24.5v-160z" />
    <glyph glyph-name="tilde" unicode="&#x2dc;" horiz-adv-x="1152" 
d="M128 1342q0 124 73.5 190.5t182.5 66.5q104 0 219 -49q33 -14 72 -31t79 -17q48 0 63 18.5t15 77.5h192q0 -133 -92 -202q-72 -54 -164 -54q-105 0 -219 48q-33 14 -72 31t-79 17q-51 0 -64.5 -18.5t-13.5 -77.5h-192z" />
    <glyph glyph-name="hungarumlaut" unicode="&#x2dd;" horiz-adv-x="1512" 
d="M745 1280l-64 96l576 480l128 -192zM192 1280l-64 96l576 480l128 -192z" />
    <glyph glyph-name="gravecomb" unicode="&#x300;" horiz-adv-x="0" 
d="M768 1280l-630 404l118 172l576 -480z" />
    <glyph glyph-name="acutecomb" unicode="&#x301;" horiz-adv-x="0" 
d="M192 1342l-64 96l576 480l118 -172z" />
    <glyph glyph-name="uni0302" unicode="&#x302;" horiz-adv-x="0" 
d="M256 1310l-128 96l320 480h192l320 -480l-128 -96l-288 448z" />
    <glyph glyph-name="tildecomb" unicode="&#x303;" horiz-adv-x="0" 
d="M128 1342q0 124 73.5 190.5t182.5 66.5q104 0 219 -49q33 -14 72 -31t79 -17q48 0 63 18.5t15 77.5h192q0 -133 -92 -202q-72 -54 -164 -54q-105 0 -219 48q-33 14 -72 31t-79 17q-51 0 -64.5 -18.5t-13.5 -77.5h-192z" />
    <glyph glyph-name="uni0304" unicode="&#x304;" horiz-adv-x="0" 
d="M128 1305v160h768v-160h-768z" />
    <glyph glyph-name="uni0306" unicode="&#x306;" horiz-adv-x="0" 
d="M640 1307q-121 0 -207 34t-131.5 118.5t-45.5 237.5h160q0 -189 69 -231q35 -21 155 -21t160 24q64 39 64 228h160q0 -153 -45.5 -237.5t-131 -118.5t-207.5 -34z" />
    <glyph glyph-name="uni0307" unicode="&#x307;" horiz-adv-x="0" 
d="M128 1344v192h192v-192h-192z" />
    <glyph glyph-name="uni0308" unicode="&#x308;" horiz-adv-x="0" 
d="M802 1344v192h192v-192h-192zM94 1344v192h192v-192h-192z" />
    <glyph glyph-name="uni030A" unicode="&#x30a;" horiz-adv-x="0" 
d="M640 1340q-166 0 -259 86t-93 234q0 154 97.5 237t254.5 83q166 0 259 -86t93 -234q0 -154 -97.5 -237t-254.5 -83zM640 1468q109 0 164 70q28 35 28 122q0 96 -45.5 144t-146.5 48q-109 0 -164 -70q-28 -35 -28 -122q0 -96 46 -144t146 -48z" />
    <glyph glyph-name="uni030B" unicode="&#x30b;" horiz-adv-x="0" 
d="M745 1280l-64 96l576 480l128 -192zM192 1280l-64 96l576 480l128 -192z" />
    <glyph glyph-name="uni030C" unicode="&#x30c;" horiz-adv-x="0" 
d="M448 1316l-320 480l128 96l288 -448l288 448l128 -96l-320 -480h-192z" />
    <glyph glyph-name="uni0311" unicode="&#x311;" horiz-adv-x="0" 
d="M640 1697q122 0 207.5 -33.5t131 -118.5t45.5 -238h-160q0 189 -64 228q-40 24 -160 24t-155 -21q-69 -42 -69 -231h-160q0 153 45.5 238t131.5 118.5t207 33.5z" />
    <glyph glyph-name="uni0312" unicode="&#x312;" horiz-adv-x="0" 
d="M64 1244l128 384h128l-64 -384h-192z" />
    <glyph glyph-name="uni0326" unicode="&#x326;" horiz-adv-x="0" 
d="M320 -152l-128 -384h-128l64 384h192z" />
    <glyph glyph-name="uni0327" unicode="&#x327;" horiz-adv-x="0" 
d="M128 -544v160q46 0 90 5t73 23t29 56q0 47 -53 61.5t-139 14.5v288h128v-192q128 0 192 -43.5t64 -146.5q0 -87 -48.5 -136.5t-135 -69.5t-200.5 -20z" />
    <glyph glyph-name="uni0328" unicode="&#x328;" horiz-adv-x="0" 
d="M512 -512q-259 0 -351 135q-33 50 -33 103t10.5 85.5t29.5 63.5q68 108 216 189h128q-192 -127 -192 -288q0 -79 53.5 -103.5t138.5 -24.5v-160z" />
    <glyph glyph-name="uni0394" unicode="&#x394;" horiz-adv-x="1664" 
d="M128 -1l576 1537h256l576 -1537h-1408zM384 159h896l-448 1249z" />
    <glyph glyph-name="uni03A9" unicode="&#x3a9;" horiz-adv-x="1472" 
d="M192 0v160h192q-256 93 -256 511q0 263 53 405q59 156 193.5 211t361.5 55q161 0 284.5 -30t196.5 -110q127 -139 127 -531q0 -418 -256 -511h192v-160h-384v224q113 0 161.5 53.5t72.5 151.5q22 87 22 292q0 204 -36 310q-19 56 -50.5 87t-87.5 48t-242 17
q-189 0 -250 -19q-94 -28 -130 -133q-36 -106 -36 -360q0 -276 80 -377q31 -39 73 -54.5t103 -15.5v-224h-384z" />
    <glyph glyph-name="uni03BC" unicode="&#x3bc;" 
d="M129 -384v1472h192v-576q0 -101 14.5 -176t65.5 -123q89 -85 368 -85q422 0 491 189q21 59 21 131v640h192v-1088h-192v191q-30 -60 -82 -100t-123 -67q-150 -56 -386 -56t-369 65v-417h-192z" />
    <glyph glyph-name="uni1E02" unicode="&#x1e02;" horiz-adv-x="2112" 
d="M192 0v1536h1224q174 0 285.5 -32.5t165 -115t53.5 -233.5q0 -136 -63 -225t-193 -98q170 -17 245 -121.5t75 -262.5q0 -137 -31.5 -225t-105.5 -136.5t-200.5 -67.5t-315.5 -19h-1139zM384 896h895q155 0 254 11t147 65t48 183q0 101 -28.5 148t-96.5 60t-187 13h-1032
v-480zM384 160h947q137 0 226.5 7t141 34t72.5 85.5t21 161.5q0 106 -39.5 165t-110 85t-163.5 32t-200 6h-895v-576zM990 1728v192h192v-192h-192z" />
    <glyph glyph-name="uni1E03" unicode="&#x1e03;" horiz-adv-x="1638" 
d="M837 -22q-185 0 -312.5 28t-200.5 126v-132h-192v1536h192v-515q73 97 200.5 125t312.5 28q194 0 328.5 -20t217.5 -80t121 -178t38 -314q0 -202 -38 -323t-121 -181.5t-217.5 -80t-328.5 -19.5zM1350 582q0 143 -14.5 229t-63.5 129.5t-152.5 58.5t-282.5 15
q-163 0 -264 -15t-155 -58.5t-74 -129.5t-20 -229q0 -148 20 -237t74 -133.5t155 -59t264 -14.5q179 0 282.5 14.5t152.5 59t63.5 133.5t14.5 237zM738 1599v192h192v-192h-192z" />
    <glyph glyph-name="uni1E0A" unicode="&#x1e0a;" horiz-adv-x="2207" 
d="M196 0v1536h1140q225 0 370 -27t226.5 -104.5t114 -225.5t32.5 -391v-40q0 -235 -32.5 -382.5t-114 -227t-226.5 -109t-370 -29.5h-1140zM388 166h948q179 0 288 17t166 74t77 174t20 317v40q0 166 -12 274t-44.5 170.5t-94 92t-159.5 37.5t-241 8h-948v-1204zM1020 1728
v192h192v-192h-192z" />
    <glyph glyph-name="uni1E0B" unicode="&#x1e0b;" horiz-adv-x="1638" 
d="M801 -22q-193 0 -328 19.5t-218 80t-121 181.5t-38 323q0 196 38 314t121 178t218 80t328 20q185 0 312.5 -28t200.5 -125v515h192v-1536h-192v132q-73 -98 -200.5 -126t-312.5 -28zM1314 582q0 143 -20 229t-74 129.5t-155 58.5t-264 15q-178 0 -282 -15t-153 -58.5
t-63.5 -129.5t-14.5 -229q0 -148 14.5 -237t63.5 -133.5t153 -59t282 -14.5q163 0 264 14.5t155 59t74 133.5t20 237zM672 1532v192h192v-192h-192z" />
    <glyph glyph-name="uni1E1E" unicode="&#x1e1e;" horiz-adv-x="1728" 
d="M192 0v1536h1448v-160h-1256v-512h1199v-160h-1199v-704h-192zM768 1728v192h192v-192h-192z" />
    <glyph glyph-name="uni1E1F" unicode="&#x1e1f;" horiz-adv-x="1056" 
d="M320 0v1006h-192v146h192v50q0 164 53.5 252t167 121t292.5 33h223v-156h-224q-143 0 -211 -18t-88.5 -71.5t-20.5 -160.5v-50h544v-146h-544v-1006h-192zM617 1660v192h192v-192h-192z" />
    <glyph glyph-name="uni1E40" unicode="&#x1e40;" horiz-adv-x="2808" 
d="M196 0v1536h286l929 -1253l915 1253h286v-1536h-192v1362l-917 -1261h-174l-941 1261v-1362h-192zM1308 1728v192h192v-192h-192z" />
    <glyph glyph-name="uni1E41" unicode="&#x1e41;" horiz-adv-x="2474" 
d="M132 0v1152h192v-143q43 58 103 97t153.5 58.5t239.5 19.5q181 0 295 -49t168 -169q49 76 118 124.5t173.5 71t257.5 22.5q182 0 296 -49.5t167.5 -168.5t53.5 -326v-640h-192v640q0 158 -33 240.5t-109.5 113t-206.5 30.5q-255 0 -363.5 -75t-108.5 -245v1q1 -31 1 -65
v-640h-192v640q0 158 -33 240.5t-109.5 113t-206.5 30.5q-255 0 -363.5 -75t-108.5 -245v-704h-192zM1141 1344v192h192v-192h-192z" />
    <glyph glyph-name="uni1E56" unicode="&#x1e56;" horiz-adv-x="1991" 
d="M196 0v1536h1028q225 0 362.5 -22t208.5 -73.5t96 -139t25 -217.5v-40q0 -124 -25.5 -210.5t-98.5 -139.5t-211 -77.5t-363 -24.5h-830v-592h-192zM1724 1084q0 95 -18 152t-72 86t-161 38.5t-286 9.5h-799v-612h799q179 0 286 11.5t161 42t72 87t18 145.5v40zM900 1728
v192h192v-192h-192z" />
    <glyph glyph-name="uni1E57" unicode="&#x1e57;" horiz-adv-x="1638" 
d="M1350 582q0 143 -14.5 229t-63.5 129.5t-152.5 58.5t-282.5 15q-163 0 -264 -15t-155 -58.5t-74 -129.5t-20 -229q0 -148 20 -237t74 -133.5t155 -59t264 -14.5q179 0 282.5 14.5t152.5 59t63.5 133.5t14.5 237zM132 -384v1536h192v-131q73 97 200.5 125t312.5 28
q194 0 328.5 -20t217.5 -80t121 -178t38 -314q0 -202 -38 -323t-121 -181.5t-217.5 -80t-328.5 -19.5q-185 0 -312.5 28t-200.5 126v-516h-192zM723 1344v192h192v-192h-192z" />
    <glyph glyph-name="uni1E60" unicode="&#x1e60;" horiz-adv-x="2142" 
d="M1827 444q0 89 -14 140t-63 75.5t-152 32t-282 10.5l-556 8q-206 3 -331 25t-189 69.5t-85.5 127.5t-21.5 200q0 131 29.5 216t107 133t219.5 67.5t367 19.5h428q204 0 340 -13t216 -60t114.5 -146t34.5 -272h-192q0 134 -25.5 202.5t-84 93.5t-157.5 27t-246 2h-418
q-179 0 -286.5 -7t-162.5 -32t-73.5 -80t-18.5 -151q0 -81 13 -130t58.5 -74.5t140.5 -35t259 -11.5l596 -8q210 -3 335.5 -24.5t188 -69.5t83 -129.5t20.5 -205.5q0 -135 -25.5 -226.5t-98.5 -146.5t-211 -79t-363 -24h-468q-205 0 -344 18t-221.5 72.5t-118.5 162.5
t-36 288h192q0 -141 23 -218t80.5 -110.5t161 -40t263.5 -6.5h458q179 0 283 11.5t154 44t64.5 93.5t14.5 161zM975 1728v192h192v-192h-192z" />
    <glyph glyph-name="uni1E61" unicode="&#x1e61;" horiz-adv-x="1589" 
d="M779 -22q-210 0 -337.5 14t-193 52t-88 108t-22.5 182h184q0 -63 9 -101.5t51 -59t136.5 -28t265.5 -7.5q181 0 281.5 7.5t144.5 28t53.5 59.5t9.5 103q0 78 -14 117t-66 52.5t-166 14.5l-458 5q-177 2 -270 30t-127 98.5t-34 200.5q0 121 37.5 187t117.5 94t208 33.5
t309 5.5q213 0 338.5 -13t188 -49t82 -104.5t19.5 -178.5h-184q0 65 -9 102.5t-48.5 55t-128 22.5t-248.5 5q-182 0 -283 -4t-146 -19t-55 -47.5t-10 -89.5q0 -58 6.5 -91.5t34.5 -50.5t91.5 -22.5t177.5 -6.5l395 -4q178 -2 270.5 -29.5t126 -101t33.5 -212.5
q0 -125 -36.5 -197t-116.5 -106.5t-210.5 -44.5t-318.5 -10zM699 1344v192h192v-192h-192z" />
    <glyph glyph-name="uni1E6A" unicode="&#x1e6a;" horiz-adv-x="1916" 
d="M862 0v1376h-768v160h1728v-160h-768v-1376h-192zM862 1728v192h192v-192h-192z" />
    <glyph glyph-name="uni1E6B" unicode="&#x1e6b;" horiz-adv-x="1297" 
d="M661 0q-176 0 -282 35.5t-153.5 126t-47.5 254.5v1051h192v-315h709v-158h-709v-578q0 -112 20.5 -167t83 -72t187.5 -17q111 0 174.5 7t93.5 37.5t38 100.5t8 197h170q0 -166 -20.5 -266t-73 -151t-147 -68t-243.5 -17zM563 1619v192h192v-192h-192z" />
    <glyph glyph-name="Wgrave" unicode="&#x1e80;" horiz-adv-x="3328" 
d="M832 0l-755 1536h221l662 -1373l624 1373h224l624 -1373l598 1373h221l-691 -1536h-256l-608 1343l-608 -1343h-256zM2014 1724l-630 404l118 172l576 -480z" />
    <glyph glyph-name="wgrave" unicode="&#x1e81;" horiz-adv-x="2240" 
d="M512 0l-442 1152h218l351 -997h2l383 997h192l379 -997h2l355 997h218l-442 -1152h-256l-351 933h-2l-351 -933h-256zM1470 1340l-630 404l118 172l576 -480z" />
    <glyph glyph-name="Wacute" unicode="&#x1e82;" horiz-adv-x="3328" 
d="M832 0l-755 1536h221l662 -1373l624 1373h224l624 -1373l598 1373h221l-691 -1536h-256l-608 1343l-608 -1343h-256zM1440 1726l-64 96l576 480l118 -172z" />
    <glyph glyph-name="wacute" unicode="&#x1e83;" horiz-adv-x="2240" 
d="M512 0l-442 1152h218l351 -997h2l383 997h192l379 -997h2l355 997h218l-442 -1152h-256l-351 933h-2l-351 -933h-256zM896 1342l-64 96l576 480l118 -172z" />
    <glyph glyph-name="Wdieresis" unicode="&#x1e84;" horiz-adv-x="3328" 
d="M832 0l-755 1536h221l662 -1373l624 1373h224l624 -1373l598 1373h221l-691 -1536h-256l-608 1343l-608 -1343h-256zM1922 1728v192h192v-192h-192zM1214 1728v192h192v-192h-192z" />
    <glyph glyph-name="wdieresis" unicode="&#x1e85;" horiz-adv-x="2240" 
d="M512 0l-442 1152h218l351 -997h2l383 997h192l379 -997h2l355 997h218l-442 -1152h-256l-351 933h-2l-351 -933h-256zM1378 1344v192h192v-192h-192zM670 1344v192h192v-192h-192z" />
    <glyph glyph-name="uni1E9E" unicode="&#x1e9e;" horiz-adv-x="1792" 
d="M192 -386v2024h1408v-2024h-1408zM384 -226h1024v1704h-1024v-1704z" />
    <glyph glyph-name="uni1EBC" unicode="&#x1ebc;" horiz-adv-x="1792" 
d="M192 0v1536h1508v-160h-1316v-512h1261v-160h-1261v-544h1344v-160h-1536zM508 1726q0 124 73.5 190.5t182.5 66.5q104 0 219 -49q33 -14 72 -31t79 -17q48 0 63 18.5t15 77.5h192q0 -133 -92 -202q-72 -54 -164 -54q-105 0 -219 48q-33 14 -72 31t-79 17
q-51 0 -64.5 -18.5t-13.5 -77.5h-192z" />
    <glyph glyph-name="uni1EBD" unicode="&#x1ebd;" horiz-adv-x="1567" 
d="M1447 342q0 -129 -38.5 -203t-117.5 -108t-201.5 -43.5t-291.5 -9.5q-193 0 -327.5 19.5t-217 80t-120 181.5t-37.5 323q0 196 36.5 314t118.5 178t215.5 80t326.5 20q221 0 366 -31t216.5 -118t71.5 -255v-247h-1158q1 -128 18 -205t68 -116t152.5 -51.5t270.5 -12.5
q152 0 245.5 6t142 26.5t65.5 61.5t17 110h179zM793 1014q-163 0 -262.5 -12t-151.5 -46.5t-70.5 -102.5t-19.5 -179h974v96q0 72 -16.5 119.5t-64.5 75t-141.5 38.5t-247.5 11zM336 1342q0 124 73.5 190.5t182.5 66.5q104 0 219 -49q33 -14 72 -31t79 -17q48 0 63 18.5
t15 77.5h192q0 -133 -92 -202q-72 -54 -164 -54q-105 0 -219 48q-33 14 -72 31t-79 17q-51 0 -64.5 -18.5t-13.5 -77.5h-192z" />
    <glyph glyph-name="Ygrave" unicode="&#x1ef2;" horiz-adv-x="2176" 
d="M992 0v640l-864 896h256l704 -752l704 752h256l-864 -896v-640h-192zM1438 1724l-630 404l118 172l576 -480z" />
    <glyph glyph-name="ygrave" unicode="&#x1ef3;" horiz-adv-x="1568" 
d="M308 -384v160q103 0 170.5 4.5t113 25t82 66.5t76.5 128h-64l-640 1152h220l548 -1009l461 1009h225l-584 -1216q-39 -81 -80.5 -141t-104 -100t-163.5 -59.5t-260 -19.5zM1134 1340l-630 404l118 172l576 -480z" />
    <glyph glyph-name="uni1EF8" unicode="&#x1ef8;" horiz-adv-x="2176" 
d="M992 0v640l-864 896h256l704 -752l704 752h256l-864 -896v-640h-192zM640 1726q0 124 73.5 190.5t182.5 66.5q104 0 219 -49q33 -14 72 -31t79 -17q48 0 63 18.5t15 77.5h192q0 -133 -92 -202q-72 -54 -164 -54q-105 0 -219 48q-33 14 -72 31t-79 17q-51 0 -64.5 -18.5
t-13.5 -77.5h-192z" />
    <glyph glyph-name="uni1EF9" unicode="&#x1ef9;" horiz-adv-x="1568" 
d="M308 -384v160q103 0 170.5 4.5t113 25t82 66.5t76.5 128h-64l-640 1152h220l548 -1009l461 1009h225l-584 -1216q-39 -81 -80.5 -141t-104 -100t-163.5 -59.5t-260 -19.5zM336 1342q0 124 73.5 190.5t182.5 66.5q104 0 219 -49q33 -14 72 -31t79 -17q48 0 63 18.5
t15 77.5h192q0 -133 -92 -202q-72 -54 -164 -54q-105 0 -219 48q-33 14 -72 31t-79 17q-51 0 -64.5 -18.5t-13.5 -77.5h-192z" />
    <glyph glyph-name="endash" unicode="&#x2013;" horiz-adv-x="1088" 
d="M128 512v160h832v-160h-832z" />
    <glyph glyph-name="emdash" unicode="&#x2014;" horiz-adv-x="1088" 
d="M0 512v160h1088v-160h-1088z" />
    <glyph glyph-name="quoteleft" unicode="&#x2018;" horiz-adv-x="512" 
d="M128 1152l64 384h192l-128 -384h-128z" />
    <glyph glyph-name="quoteright" unicode="&#x2019;" horiz-adv-x="512" 
d="M128 1152l64 384h192l-128 -384h-128z" />
    <glyph glyph-name="quotesinglbase" unicode="&#x201a;" horiz-adv-x="448" 
d="M64 -256l64 384h192l-128 -384h-128z" />
    <glyph glyph-name="quotedblleft" unicode="&#x201c;" horiz-adv-x="768" 
d="M384 1152l64 384h192l-128 -384h-128zM128 1152l64 384h192l-128 -384h-128z" />
    <glyph glyph-name="quotedblright" unicode="&#x201d;" horiz-adv-x="832" 
d="M448 1152l64 384h192l-128 -384h-128zM128 1152l64 384h192l-128 -384h-128z" />
    <glyph glyph-name="quotedblbase" unicode="&#x201e;" horiz-adv-x="832" 
d="M448 -192l64 384h192l-128 -384h-128zM128 -192l64 384h192l-128 -384h-128z" />
    <glyph glyph-name="dagger" unicode="&#x2020;" horiz-adv-x="960" 
d="M384 -128v1056h-256v160h256v512h192v-512h256v-160h-256v-1056h-192z" />
    <glyph glyph-name="daggerdbl" unicode="&#x2021;" horiz-adv-x="960" 
d="M384 -128v448h-256v160h256v448h-256v160h256v512h192v-512h256v-160h-256v-448h256v-160h-256v-448h-192z" />
    <glyph glyph-name="bullet" unicode="&#x2022;" horiz-adv-x="1280" 
d="M640 256q-256 0 -256 256t256 256t256 -256q0 -127 -66 -191.5t-190 -64.5z" />
    <glyph glyph-name="ellipsis" unicode="&#x2026;" horiz-adv-x="1344" 
d="M1024 0v192h192v-192h-192zM576 0v192h192v-192h-192zM128 0v192h192v-192h-192z" />
    <glyph glyph-name="perthousand" unicode="&#x2030;" horiz-adv-x="5459" 
d="M798 454q-179 0 -303.5 18t-201.5 74t-112 167.5t-35 298.5q0 185 35 296t112 167t201.5 74.5t303.5 18.5t303 -18.5t201 -74.5t112 -167t35 -296q0 -187 -35 -298.5t-112 -167.5t-201 -74t-303 -18zM1521 0l704 1536h192l-704 -1536h-192zM798 602q165 0 260.5 13.5
t141 54.5t59 123t13.5 219q0 135 -13.5 216.5t-59 123t-141 55.5t-260.5 14t-260.5 -14t-141.5 -55.5t-59 -123t-13 -216.5q0 -137 13 -219t59 -123t141.5 -54.5t260.5 -13.5zM4661 -32q-178 0 -302.5 18t-201.5 74t-112 167.5t-35 298.5q0 185 35 295.5t112 167t201.5 75
t302.5 18.5q179 0 303.5 -18.5t201.5 -75t112 -167t35 -295.5q0 -187 -35 -298.5t-112 -167.5t-201.5 -74t-303.5 -18zM3071 -32q-178 0 -302.5 18t-201.5 74t-112 167.5t-35 298.5q0 185 35 295.5t112 167t201.5 75t302.5 18.5q179 0 303.5 -18.5t201.5 -75t112 -167
t35 -295.5q0 -187 -35 -298.5t-112 -167.5t-201.5 -74t-303.5 -18zM4661 115q165 0 260.5 13.5t141.5 55t59 123.5t13 219q0 135 -13 216.5t-59 122.5t-141.5 55t-260.5 14t-260.5 -14t-141 -55t-59 -122.5t-13.5 -216.5q0 -137 13.5 -219t59 -123.5t141 -55t260.5 -13.5z
M3071 115q165 0 260.5 13.5t141.5 55t59 123.5t13 219q0 135 -13 216.5t-59 122.5t-141.5 55t-260.5 14t-260.5 -14t-141 -55t-59 -122.5t-13.5 -216.5q0 -137 13.5 -219t59 -123.5t141 -55t260.5 -13.5z" />
    <glyph glyph-name="guilsinglleft" unicode="&#x2039;" horiz-adv-x="896" 
d="M672 128l-544 384v192l544 384l96 -128l-512 -352l512 -352z" />
    <glyph glyph-name="guilsinglright" unicode="&#x203a;" horiz-adv-x="896" 
d="M224 128l-96 128l512 352l-512 352l96 128l544 -384v-192z" />
    <glyph glyph-name="fraction" unicode="&#x2044;" horiz-adv-x="756" 
d="M-70 0l704 1536h192l-704 -1536h-192z" />
    <glyph glyph-name="uni2074" unicode="&#x2074;" horiz-adv-x="1424" 
d="M912 447v242h-832v192l768 687h256v-719h242v-160h-242v-242h-192zM272 849h640v571z" />
    <glyph glyph-name="Euro" unicode="&#x20ac;" horiz-adv-x="2042" 
d="M816 0q-38 0 -103.5 4t-112.5 5q-128 5 -216 39.5t-147 116.5q-51 73 -74 174t-28.5 219t-5.5 242v127q0 209 37 345q31 113 117.5 183.5t213.5 91.5q66 11 120 13.5t115 2.5h188q56 0 110.5 1t102.5 5h131q55 -3 91.5 -5.5t70 -5t76.5 -6.5q115 -10 190.5 -46.5
t127.5 -120.5q93 -150 93 -466v-287q0 -43 -3.5 -99.5t-10.5 -124.5q-15 -139 -63.5 -224.5t-139.5 -127.5t-237 -50l-326 -6h-317zM1008 1434q3 0 3 3t-3 3q-2 0 -2 -3t2 -3zM928 158h192q61 0 96.5 1t76.5 3.5t119 6.5q197 11 258 97q51 71 51 238v567q0 140 -60 230
t-190 94q-136 7 -245 10.5t-189 3.5h-56l-180 -6q-20 -1 -50 -1.5t-70 -0.5t-80 -5t-81 -14q-161 -36 -182 -180q-20 -154 -20 -194v-344q0 -15 2 -48t4.5 -69t3.5 -59q6 -97 31 -166.5t80 -108.5q56 -40 261 -49q63 -3 114.5 -4.5t113.5 -1.5z" />
    <glyph glyph-name="trademark" unicode="&#x2122;" horiz-adv-x="2752" 
d="M1216 704v832h320l384 -672l398 672h306v-832h-192v683l-415 -683h-194l-415 704v-704h-192zM512 704v704h-384v128h960v-128h-384v-704h-192z" />
    <glyph glyph-name="partialdiff" unicode="&#x2202;" horiz-adv-x="1984" 
d="M831 -32q-412 0 -567 120q-74 58 -105 145.5t-31 214.5q0 128 31 215t105 145q155 120 567 120h321q353 0 512 -96q0 275 -40 376q-48 123 -197 164q-129 36 -467 36q-434 0 -544 -86q-48 -37 -56 -82.5t-8 -119.5h-160q0 163 35 228q37 68 88 105t133 62q176 53 447 53
q270 0 421 -20q190 -25 314.5 -93.5t177.5 -223.5q48 -138 48 -463v-56q0 -163 -12 -305.5t-76 -242.5q-42 -67 -120 -110q-154 -86 -496 -86h-321zM831 128h321q121 0 223.5 10t172.5 49.5t95 129.5q21 75 21 179q0 96 -18 150t-80 82q-57 26 -157 33q-50 4 -114 5.5
t-143 1.5h-321q-224 0 -307 -20q-67 -16 -105.5 -36.5t-64.5 -67.5q-34 -63 -34 -196q0 -136 26 -185q26 -47 61 -71t93 -38q107 -26 331 -26z" />
    <glyph glyph-name="uni2206" unicode="&#x2206;" horiz-adv-x="1664" 
d="M1536 -1h-1408l576 1537h256zM384 159h896l-448 1249z" />
    <glyph glyph-name="product" unicode="&#x220f;" horiz-adv-x="1792" 
d="M128 0v1536h1536v-1536h-192v1376h-1152v-1376h-192z" />
    <glyph glyph-name="summation" unicode="&#x2211;" horiz-adv-x="1664" 
d="M128 0v176l576 608l-576 576v176h1408v-160h-1216l544 -544v-96l-544 -576h1216v-160h-1408z" />
    <glyph glyph-name="minus" unicode="&#x2212;" horiz-adv-x="1400" 
d="M187 632v160h1026v-160h-1026z" />
    <glyph glyph-name="radical" unicode="&#x221a;" horiz-adv-x="1632" 
d="M640 0l-512 896h224l416 -768l512 1408h224l-608 -1536h-256z" />
    <glyph glyph-name="infinity" unicode="&#x221e;" horiz-adv-x="2496" 
d="M642 -32q-269 0 -391.5 149.5t-122.5 426.5q0 278 122.5 427t391.5 149t497 -276q67 -81 120 -157q297 433 595 433q269 0 391.5 -149.5t122.5 -426.5t-122.5 -426.5t-391.5 -149.5q-303 0 -603 425q-302 -425 -609 -425zM646 128q63 0 132 36q66 35 136 95
q115 100 242 276q-128 192 -211 271q-82 78 -154 116q-71 38 -130 38q-116 0 -185.5 -29t-107.5 -109q-48 -97 -48 -254q0 -136 28 -234.5t99 -152t199 -53.5zM1854 128q182 0 252 111t70 305q0 263 -101 352q-46 41 -99.5 52.5t-133.5 11.5q-53 0 -120 -37t-132 -96
q-118 -107 -235 -279q294 -420 499 -420z" />
    <glyph glyph-name="integral" unicode="&#x222b;" horiz-adv-x="1089" 
d="M128 -288v160h56q94 0 160 16t89 92q16 51 16 148v1024q0 238 112 328q109 88 400 88v-160h-55q-94 0 -160 -15.5t-89 -92.5q-16 -51 -16 -148v-1024q0 -238 -112 -328q-109 -88 -401 -88z" />
    <glyph glyph-name="approxequal" unicode="&#x2248;" horiz-adv-x="1400" 
d="M252 832q0 136 92 204q72 52 153 52q105 0 171.5 -26t139.5 -55q39 -15 70 -15q52 0 65 20.5t13 75.5h192q0 -133 -92 -202q-72 -54 -154 -54q-105 0 -171 26.5t-139 54.5q-39 15 -70 15q-52 0 -65 -20t-13 -76h-192zM252 447q0 137 92 205q71 51 153 51q105 0 171.5 -26
t139.5 -55q39 -15 70 -15q52 0 65 20.5t13 75.5h192q0 -132 -92 -201q-73 -55 -154 -55q-105 0 -171 26.5t-139 54.5q-39 15 -70 15q-52 0 -65 -20t-13 -76h-192z" />
    <glyph glyph-name="notequal" unicode="&#x2260;" horiz-adv-x="1400" 
d="M197 460v160h363l127 273h-490v160h564l154 331l160 -64l-124 -267h252v-160h-326l-127 -273h453v-160h-527l-168 -361l-160 64l138 297h-289z" />
    <glyph glyph-name="lessequal" unicode="&#x2264;" horiz-adv-x="1400" 
d="M1148 192l-896 544v192l896 544v-256l-752 -384l752 -384v-256zM252 -32v160h894v-160h-894z" />
    <glyph glyph-name="greaterequal" unicode="&#x2265;" horiz-adv-x="1400" 
d="M252 192v256l752 384l-752 384v256l896 -544v-192zM252 -32v160h894v-160h-894z" />
    <glyph glyph-name="lozenge" unicode="&#x25ca;" horiz-adv-x="1280" 
d="M576 0l-448 768l448 768h128l448 -768l-448 -768h-128zM640 256l288 512l-288 512l-288 -512z" />
    <glyph glyph-name="R.ss02" horiz-adv-x="2087" 
d="M196 0v1536h1028q225 0 362.5 -20t208.5 -69t96 -134t25 -215v-40q0 -163 -57.5 -248t-194.5 -107q137 -22 194.5 -105t57.5 -233v-365h-192v335q0 89 -11.5 145.5t-58 87t-147.5 42t-280 11.5h-839v-621h-192zM1724 1098q0 95 -18 150t-72 81t-161 33.5t-286 7.5h-799
v-583h849q171 0 269.5 11.5t145 40.5t59.5 82t13 137v40z" />
    <glyph glyph-name="i.loclTRK" horiz-adv-x="448" 
d="M128 0v1088h192v-1088h-192zM128 1344v192h192v-192h-192z" />
    <glyph glyph-name="a.ss01" horiz-adv-x="1560" 
d="M736 -22q-207 0 -341.5 21.5t-200 94.5t-65.5 227q0 157 61.5 230.5t195 95.5t350.5 22q163 0 264.5 -10t158.5 -28t85 -43q-1 149 -14.5 234.5t-56.5 126.5t-129 53t-231 12q-160 0 -250.5 -7t-131.5 -25t-51.5 -52t-10.5 -88h-192q0 108 29.5 174t100.5 100t194.5 46
t311.5 12q202 0 325.5 -26t188 -93.5t87 -188.5t22.5 -312v-554h-192v79q-34 -36 -94 -58t-159.5 -32.5t-254.5 -10.5zM736 134q171 0 273 4t152.5 22t66.5 58t16 112q0 65 -16 102.5t-66.5 54.5t-152.5 21.5t-273 4.5q-135 0 -217.5 -5t-125.5 -23.5t-57.5 -57.5
t-14.5 -106q0 -65 14.5 -103t57.5 -56t125.5 -23t217.5 -5z" />
    <glyph glyph-name="one.dnom" horiz-adv-x="938" 
d="M576 0v928l-416 -384l-96 128l448 416h256v-1088h-192z" />
    <glyph glyph-name="two.dnom" horiz-adv-x="1344" 
d="M128 0v224q0 105 39 161t111 83.5t170 45.5l386 73q69 13 110.5 32t60.5 59t19 116q0 95 -45 126.5t-137 35.5q-34 2 -86.5 3t-123.5 1q-141 0 -212 -12q-66 -10 -83 -36.5t-17 -111.5h-192q0 141 50 209.5t147.5 90t239.5 21.5q32 0 65 -0.5t67 -0.5q106 0 210.5 -6.5
t174.5 -39.5q78 -37 106 -107t28 -195q0 -158 -81.5 -231.5t-236.5 -104.5l-258 -51q-177 -35 -224 -51q-42 -13 -62.5 -29.5t-27 -49t-6.5 -95.5h866v-160h-1058z" />
    <glyph glyph-name="three.dnom" horiz-adv-x="1403" 
d="M537 0q-276 0 -363 75q-74 63 -74 213h192q0 -81 31 -98.5t104 -22.5q53 -4 100.5 -5t75.5 -1q139 0 248 1t155 17q47 16 61.5 50.5t14.5 101.5q0 90 -46.5 120t-144.5 30h-391v160h391q106 0 148.5 34.5t42.5 135.5q0 92 -43 121.5t-136 29.5q-46 0 -107.5 -0.5
t-158.5 -0.5q-59 0 -116.5 -1.5t-93.5 -4.5q-76 -7 -105.5 -32t-29.5 -120h-192q0 167 74 238q54 52 145 66.5t197 14.5h73.5t72.5 -0.5t109 -0.5q50 0 117.5 -1t134 -8.5t113.5 -27.5q81 -33 110 -104.5t29 -190.5q0 -100 -39.5 -151t-120.5 -77q66 -26 100.5 -55t47 -78
t12.5 -137q0 -109 -44.5 -168.5t-122 -85t-176.5 -31t-209 -5.5q-67 0 -101.5 -0.5t-84.5 -0.5z" />
    <glyph glyph-name="four.dnom" horiz-adv-x="1424" 
d="M912 0v242h-832v192l768 687h256v-719h242v-160h-242v-242h-192zM272 402h640v571z" />
    <glyph glyph-name="one.numr" horiz-adv-x="938" 
d="M576 447v928l-416 -384l-96 128l448 416h256v-1088h-192z" />
    <glyph glyph-name="two.numr" horiz-adv-x="1344" 
d="M128 450v224q0 105 39 161t111 83.5t170 45.5l386 73q69 13 110.5 32t60.5 59t19 116q0 95 -45 126.5t-137 35.5q-34 2 -86.5 3t-123.5 1q-141 0 -212 -12q-66 -10 -83 -36.5t-17 -111.5h-192q0 141 50 209.5t147.5 90t239.5 21.5q32 0 65 -0.5t67 -0.5q106 0 210.5 -6.5
t174.5 -39.5q78 -37 106 -107t28 -195q0 -158 -81.5 -231.5t-236.5 -104.5l-258 -51q-177 -35 -224 -51q-42 -13 -62.5 -29.5t-27 -49t-6.5 -95.5h866v-160h-1058z" />
    <glyph glyph-name="three.numr" horiz-adv-x="1403" 
d="M537 447q-276 0 -363 75q-74 63 -74 213h192q0 -81 31 -98.5t104 -22.5q53 -4 100.5 -5t75.5 -1q139 0 248 1t155 17q47 16 61.5 50.5t14.5 101.5q0 90 -46.5 120t-144.5 30h-391v160h391q106 0 148.5 34.5t42.5 135.5q0 92 -43 121.5t-136 29.5q-46 0 -107.5 -0.5
t-158.5 -0.5q-59 0 -116.5 -1.5t-93.5 -4.5q-76 -7 -105.5 -32t-29.5 -120h-192q0 167 74 238q54 52 145 66.5t197 14.5h73.5t72.5 -0.5t109 -0.5q50 0 117.5 -1t134 -8.5t113.5 -27.5q81 -33 110 -104.5t29 -190.5q0 -100 -39.5 -151t-120.5 -77q66 -26 100.5 -55t47 -78
t12.5 -137q0 -109 -44.5 -168.5t-122 -85t-176.5 -31t-209 -5.5q-67 0 -101.5 -0.5t-84.5 -0.5z" />
    <glyph glyph-name="four.numr" horiz-adv-x="1424" 
d="M912 450v242h-832v192l768 687h256v-719h242v-160h-242v-242h-192zM272 852h640v571z" />
    <glyph glyph-name="uni030C.alt" horiz-adv-x="0" 
d="M167 1184l64 384h192l-128 -384h-128z" />
    </font>
</defs>
</svg>
