<?xml version="1.0" encoding="UTF-8" standalone="no"?>
<!-- Created with Inkscape (http://www.inkscape.org/) -->

<svg
    version="1.1"
    id="svg2"
    width="3282"
    height="1927"
    viewBox="0 0 3282 1927"
    xmlns="http://www.w3.org/2000/svg"
    xmlns:svg="http://www.w3.org/2000/svg"
    preserveAspectRatio="xMidYMid slice">

    <g>
        <path d="m 2054.6306,207.02189 c -0.7342,0.59131 -267.2258,190.08255 -267.2258,190.08255 0,0 -228.4814,202.37856 -228.4814,202.37856 0,0 6.8936,9.82066 6.8936,9.82066 0,0 -0.1642,8.5041 -0.1642,8.5041 0,0 0.8316,1.71759 0.8316,1.71759 0,0 4.4614,2.29623 4.4614,2.29623 0,0 14.6563,24.48187 14.6563,24.48187 0,0 -42.5931,41.92915 -42.5931,41.92915 0,0 33.3074,39.55891 33.3074,39.55891 0,0 7.8993,9.39496 7.8993,9.39496 0,0 105.7451,95.4635 105.7451,95.4635 0,0 29.3986,-28.16232 29.3986,-28.16232 0,0 14.5597,-6.96059 14.5597,-6.96059 0,0 59.6161,-22.70014 59.6161,-22.70014 0,0 84.4193,-36.82288 84.4193,-36.82288 0,0 42.5021,-16.05108 42.5021,-16.05108 0,0 54.0693,-22.9736 54.0693,-22.9736 0,0 57.8188,-24.13793 57.8188,-24.13793 0,0 174.2755,-73.17637 174.2755,-73.17637 0,0 21.6669,3.16736 21.6669,3.16736 0,0 191.9757,54.80229 191.9757,54.80229 0,0 29.3041,11.20206 29.3041,11.20206 0,0 2.3462,-80.59016 2.3462,-80.59016 0,0 -27.7964,0.95936 -27.7964,0.95936 -8.156,-0.84855 -16.3108,-1.69699 -24.4444,-3.40694 -8.1335,-1.70995 -16.2445,-4.28149 -23.6237,-7.74299 -7.3793,-3.4615 -14.0264,-7.81316 -20.0488,-13.39146 -6.0224,-5.5783 -11.4194,-12.38324 -15.0499,-20.5444 -3.6305,-8.16116 -5.4937,-17.67813 -6.7335,-26.03919 -1.2398,-8.36105 -1.8559,-15.56564 -3.2136,-23.99899 -1.3577,-8.43335 -3.4569,-18.095 -6.1071,-28.79723 -2.6502,-10.70222 -5.8514,-22.44435 -10.0182,-32.56795 -4.1668,-10.12361 -9.2993,-18.62805 -12.3109,-23.56865 -3.0115,-4.94061 -3.9027,-6.31821 -4.7931,-7.6947 0,0 14.3306,-56.30856 14.3306,-56.30856 0,0 -10.6885,-3.80653 -10.6885,-3.80653 0,0 0.9175,-3.60818 0.9175,-3.60818 0,0 -5.4183,-6.82515 -5.4183,-6.82515 0,0 -9.3528,5.70133 -9.3528,5.70133 0,0 -6.0592,-9.769 -6.0592,-9.769 0,0 0.471,-2.64384 0.471,-2.64384 0,0 -17.9323,-32.1791 -17.9323,-32.1791 0,0 9.5926,-27.94596 9.5926,-27.94596 -0.058,-0.56869 -0.1157,-1.1363 -0.2755,-1.61935 -0.1598,-0.48306 -0.423,-0.88168 -0.6854,-1.27916 0,0 6.6757,-15.69957 6.6757,-15.69957 0.4301,-1.93732 0.86,-3.87391 0.7514,-5.51995 -0.1085,-1.64604 -0.7564,-3.00125 -1.5806,-4.1407 -0.8242,-1.13945 -1.8262,-2.06381 -2.8272,-2.98721 0,0 -73.9489,-35.5104 -73.9489,-35.5104 0,0 -35.128,-15.81868 -35.128,-15.81868 -3.1078,-0.84224 -6.2144,-1.68417 -10.2301,-2.48313 -4.0157,-0.79897 -8.939,-1.55448 -14.9273,-1.89828 -5.9884,-0.34379 -13.0413,-0.27568 -19.9869,0.45537 -6.9455,0.73104 -13.7832,2.12513 -21.2705,4.57694 -7.4872,2.45182 -15.6233,5.96125 -22.7148,9.45776 -7.0915,3.4965 -13.1378,6.97983 -16.8953,9.31289 -3.7576,2.33305 -5.2259,3.51557 -5.9601,4.10688 z" id="path256" class="area old" data-i="1" />
        <path d="m 1375.3706,1129.6075 -26.6117,-16.9546 -53.2137,-37.6722 -76.7286,-56.3669 167.0464,-175.96415 108.0427,-106.05239 48.2346,-47.77298 41.2635,49.03069 106.0806,95.38845 -123.777,117.88311 -59.0386,52.70737 -75.0442,69.301 z" id="path260" class="area center" data-i="2" />
        <path d="m 1089.8011,1157.9471 c 5.6836,-7.3749 128.4699,-138.4584 128.4699,-138.4584 0,0 84.8042,61.7018 84.8042,61.7018 0,0 23.7427,16.7123 23.7427,16.7123 0,0 20.464,14.7496 20.464,14.7496 0,0 26.9871,17.8988 26.9871,17.8988 0,0 -11.3761,7.3483 -11.3761,7.3483 0,0 -25.6976,15.0784 -25.6976,15.0784 0,0 -8.206,5.4819 -8.206,5.4819 0,0 -90.9884,74.2424 -90.9884,74.2424 0,0 3.6321,15.9448 3.6321,15.9448 0,0 -39.2943,39.1358 -39.2943,39.1358 0,0 -4.1315,7.6938 -4.1315,7.6938 0,0 -22.2441,46.1249 -22.2441,46.1249 0,0 -17.8595,43.2992 -17.8595,43.2992 0,0 -13.0812,61.5892 -13.0812,61.5892 0,0 -64.7134,27.1388 -64.7134,27.1388 0,0 -110.22197,113.2018 -110.22197,113.2018 -5.60597,7.7387 -11.21206,15.4776 -14.66139,20.9907 -3.44933,5.5131 -4.74171,8.7997 -6.03431,12.0869 0,0 -1.80428,45.3467 -1.80428,45.3467 0,0 -1.1362,3.8809 -1.1362,3.8809 0,0 -22.65215,33.6567 -22.65215,33.6567 0,0 -19.89222,15.655 -19.89222,15.655 0,0 -23.21605,30.5642 -23.21605,30.5642 0,0 -11.25281,12.5722 -11.25281,12.5722 0,0 -10.02928,18.3347 -10.02928,18.3347 0,0 -148.60246,-115.6856 -148.60246,-115.6856 -5.2578,-5.535 -10.51458,-11.069 -14.38714,-15.8271 -3.87255,-4.758 -6.36024,-8.7403 -8.84724,-12.7215 0,0 41.45553,-55.0418 41.45553,-55.0418 6.29305,-8.2457 12.58598,-16.4912 19.02951,-23.8253 6.44354,-7.3341 13.03712,-13.7562 21.34018,-19.8237 8.30307,-6.0674 18.31474,-11.7796 28.606,-15.8998 10.29127,-4.1202 20.86109,-6.6482 33.37492,-9.698 12.51383,-3.0498 26.97018,-6.621 41.42751,-10.1925 0,0 199.78205,-238.4924 199.78205,-238.4924 0.9351,-2.011 1.87,-4.0217 1.8583,-6.1606 -0.012,-2.1389 -0.9714,-4.4076 -1.9306,-6.6752 0,0 -12.0655,-11.9918 -12.0655,-11.9918 -1.9373,-3.4148 -3.8739,-6.8284 -5.0608,-10.7764 -1.1869,-3.948 -1.6228,-8.4289 -0.4986,-13.8989 1.1242,-5.4699 3.8086,-11.9279 10.8346,-22.5322 7.026,-10.6042 18.3929,-25.3537 24.0765,-32.7286 z" id="path262" class="area new" data-i="3" />
    </g>
    <style type="text/css">
        .area {
            cursor: pointer;
            fill: #2694b350;
            stroke-opacity: 1;
            stroke: #2694b3;
            transition: .3s;
        }
        .area:hover {
            fill: #2cccf870;
            stroke: #3cdbff;
            <!-- fill-opacity: .6; -->
        }
        <!-- .center:hover {
            fill: #3db6d4e0;
        }
        .new:hover {
            fill: #2694b3c0;
        }
        .old:hover {
            fill: #1a6593aa;
        } -->
    </style>
</svg>
